<svg width="500" height="500" viewBox="0 0 500 500" fill="none" xmlns="http://www.w3.org/2000/svg">
<path fill-rule="evenodd" clip-rule="evenodd" d="M471.408 256.3C474.132 249.565 484.571 223.77 484.571 223.77L440.715 248.274C440.561 248.368 427.726 255.466 409.103 263.485C418.447 240.157 426.702 216.439 434.842 185.321C450.338 126.151 458.656 60.9254 459.002 58.18C459.002 58.1742 462.291 31.8823 462.291 31.8823C462.291 31.8823 379.664 54.7803 371.691 56.9859C342.345 21.4801 297.142 0.369019 249.663 0.369019C201.979 0.369019 156.664 21.6087 127.326 57.3574C119.112 55.0564 36.2435 31.8823 36.2435 31.8823L39.6543 58.3334C39.7381 59.005 48.479 125.884 64.7377 186.091C72.6471 215.385 81.4461 239.082 90.6003 261.614C70.7915 253.243 54.1851 245.355 53.9785 245.259L13.2888 225.813C13.2888 225.813 23.0098 250.3 25.7574 257.215C25.2313 257.006 11 251.584 11 251.584L24.6413 288.255C24.6413 288.255 24.6205 288.193 24.6147 288.177C25.5367 290.852 31.3291 306.452 75.3159 425.011L81.3672 441.319C81.3672 441.319 91.2277 438.184 94.133 437.272C96.5612 443.844 102.891 460.966 102.891 460.966L120.635 451.828C134.174 444.885 163.212 433.12 186.705 429.323C214.632 467.611 236.447 487.459 237.386 488.316L249.447 499.171L261.303 488.098C262.254 487.203 284.298 466.429 311.621 429.34C337.82 432.835 360.22 443.4 371.52 449.643L388.839 459.206L396.402 440.935C396.402 440.935 397.321 438.702 398.33 436.255C399.781 436.752 408.177 439.6 408.177 439.6L414.582 423.288C415.812 420.155 443.864 354.32 470.942 290.901L489 248.612C489 248.612 471.474 256.268 471.408 256.3Z" fill="white"/>
<path fill-rule="evenodd" clip-rule="evenodd" d="M444.271 254.635C444.012 254.775 423.256 266.286 395.792 276.749C408.188 247.308 417.973 221.024 427.795 183.476C443.303 124.26 451.689 57.9354 451.771 57.2704L453.708 41.8135L438.688 45.9768C438.688 45.9768 253.71 97.238 248.287 98.743C242.867 97.2264 44.874 41.8533 44.874 41.8533L46.8773 57.4072C46.9644 58.0664 55.6033 124.327 71.7682 184.197C81.5506 220.435 92.8649 248.397 103.978 274.959C77.5581 264.543 51.1718 251.983 50.8349 251.817L26.9092 240.389L36.6908 265.022C60.2123 324.242 72.1814 356.737 87.3347 397.879L106.872 450.736L117.297 445.361C132.868 437.371 165.09 424.549 190.005 421.495C218.673 461.463 241.28 482.028 242.271 482.917L249.354 489.289L256.322 482.778C257.328 481.837 280.35 460.138 308.332 421.53C337.381 424.511 362.331 436.255 375.041 443.272L385.224 448.906L389.679 438.153C401.244 410.21 458.4 269.008 458.986 267.588L470.058 240.221L444.271 254.635Z" fill="#262420"/>
<path fill-rule="evenodd" clip-rule="evenodd" d="M465.121 261.538C464.632 261.739 418.859 281.209 381.421 290.509C396.027 256.828 408.766 226.553 420.529 181.629C435.917 122.871 444.242 57.0232 444.323 56.364L444.893 51.8168L440.474 53.0431C440.474 53.0431 249.738 105.9 248.109 106.35C246.481 105.9 53.3966 51.8947 53.3966 51.8947L53.9866 56.4685C54.0654 57.131 62.6404 122.891 78.68 182.288C89.1893 221.202 101.534 250.605 113.476 279.047C113.476 279.047 115.572 284.068 117.41 288.469C85.0425 280.276 41.1578 264.897 40.6922 264.735L34.5098 262.567L36.8159 268.692C56.0513 319.823 65.8976 347.289 76.319 376.361L97.4597 434.863L100.248 433.994C130.111 424.7 168.726 417.343 192.93 414.255C220.823 454.6 246.784 477.28 247.051 477.51L249.095 479.279L251.099 477.467C251.349 477.237 276.048 454.722 304.741 414.554C329.62 416.21 375.916 426.67 393.508 433.629L396.312 434.736L397.464 431.958C409.01 404.07 468.525 266.943 469.122 265.56L472.187 258.514L465.121 261.538Z" fill="white"/>
<path fill-rule="evenodd" clip-rule="evenodd" d="M370.99 299.206L373.38 293.688C389.551 256.445 402.319 227.033 414.617 180.08C427.577 130.59 435.495 76.0133 437.656 60.1642C429.15 62.5149 248.924 112.468 248.924 112.468L248.101 112.696C248.101 112.696 69.2212 62.6658 60.6753 60.2778C62.9051 76.165 71.0876 130.712 84.5828 180.696C94.9851 219.214 107.253 248.432 119.114 276.679L127.689 297.215L195.847 407.729L196.896 409.269C220.302 443.446 242.413 464.926 249.008 471.036C255.411 464.894 276.691 443.57 300.768 409.617L301.737 408.243L370.99 299.206Z" fill="#848683"/>
<path fill-rule="evenodd" clip-rule="evenodd" d="M119.528 232.338C117.719 229.738 109.833 217.145 109.83 196.258C109.83 195.636 109.838 195.008 109.853 194.372C104.453 179.816 101.513 164.158 101.513 147.87C101.513 109.128 118.132 73.9918 144.96 48.5482C171.785 23.1103 208.819 7.35413 249.657 7.35413C290.495 7.35413 327.533 23.1103 354.354 48.5482C381.18 73.9918 397.795 109.128 397.795 147.87C397.795 162.231 395.516 176.1 391.276 189.153C391.27 215.684 383.445 240.436 369.912 261.379C369.778 261.547 369.089 262.259 367.135 263.308C367.135 263.313 367.036 263.369 366.919 263.514C366.803 263.663 366.681 263.875 366.67 264.212C366.66 264.223 366.422 265.807 365.902 267.053L366.128 266.96L365.556 267.756C340.263 302.387 298.736 324.966 251.794 324.966C190.276 324.963 138.054 286.182 119.528 232.338Z" fill="#262420"/>
<path fill-rule="evenodd" clip-rule="evenodd" d="M449.747 273.704C448.81 274.11 355.352 314.392 248.261 313.93H248.258C153.974 313.524 47.0772 273.138 46.0075 272.736L23.4312 264.113L31.4625 285.716C31.6136 286.305 31.6136 286.305 82.1438 422.474L85.7811 432.277L95.7552 429.119C118.012 422.061 177.388 405.639 247.865 405.639C313.354 405.639 370.545 419.13 394.017 427.097L403.936 430.467L407.798 420.629C409.217 417.027 442.328 339.371 464.239 288.051L475.095 262.628L449.747 273.704Z" fill="#005291"/>
<path fill-rule="evenodd" clip-rule="evenodd" d="M450.779 286.915L441.244 290.396C441.244 290.396 420.174 298.095 420.011 298.148C419.019 298.453 411.381 300.908 405.352 305.949C403.279 307.675 401.171 310.177 399.304 312.762C399.682 311.716 399.9 311.095 399.915 311.046L402.758 303.189L394.678 305.345L375.474 310.449L375.472 310.461C373.634 310.859 360.647 313.698 356.713 314.558L352.289 315.299L329.815 319.07C328.864 319.218 320.172 320.741 315.628 325.311C314.621 326.323 313.749 327.447 312.981 328.624L314.264 321.064L308.591 321.598L290.428 323.313L289.829 328.011C289.364 327.432 288.817 326.88 288.169 326.381C284.717 323.719 279.012 323.783 277.349 323.867C277.305 323.867 250.727 324.565 250.727 324.565V324.594L229.229 324.451C228.345 324.478 221.591 324.756 216.937 329.164C216.225 329.835 215.615 330.596 215.085 331.407C214.986 328.862 214.923 327.331 214.923 327.331L214.772 323.501C214.772 323.501 193.047 321.532 192.25 321.462L192.247 321.447L165.992 318.089L167.172 324.051L167.474 325.593C161.485 318.643 152.121 316.179 151.682 316.069C151.564 316.04 124.659 309.956 124.659 309.956L127.693 322.011C126.91 320.628 126.076 319.337 125.2 318.222C121.272 313.218 117.908 309.468 110.347 306.716C103.744 304.319 90.2301 301.143 89.6551 300.998L81.9954 299.208L82.0129 299.258C75.0835 296.254 59.8174 291.245 54.6349 289.568L46.0483 286.788L93.6649 415.425C93.6649 415.425 111.138 410.594 112.042 410.347C112.042 410.352 112.054 410.379 112.054 410.379C112.054 410.379 130.336 406.012 131.665 405.695C132.598 405.529 150.839 402.243 150.839 402.243L150.81 402.144C155.878 401.362 166.117 399.794 167.135 399.64C167.967 399.517 176.824 398.248 181.712 397.548L181.715 397.58C181.715 397.58 200.168 395.68 200.246 395.665C202.209 395.54 208.226 394.939 211.419 392.394C212.611 391.449 213.55 390.424 214.292 389.396L214.559 394.444L236.327 393.739L236.478 393.727C237.147 393.658 243.155 392.949 246.947 389.276C247.407 388.832 247.819 388.357 248.192 387.864L247.976 393.454C247.976 393.454 264.691 393.887 265.54 393.91V393.934L285.435 394.444L285.444 394.433L299.812 395.54L318.079 397.519C318.782 397.595 325.133 398.158 331.043 394.913C331.557 394.619 332.066 394.305 332.545 393.948L331.045 399.105L349.65 402.264C349.65 402.264 349.667 402.194 349.673 402.188C350.301 402.304 363.102 404.632 366.198 405.195L368.251 405.75C368.635 405.857 377.707 408.275 384.905 407.409C393.456 406.371 402.183 399.428 406.135 390.507L424.628 347.794L424.55 347.797C424.862 347.08 450.779 286.915 450.779 286.915Z" fill="white"/>
<path fill-rule="evenodd" clip-rule="evenodd" d="M286.442 390.241L298.027 391.124L308.998 325.95L294.325 327.337L286.442 390.241Z" fill="#262420"/>
<path fill-rule="evenodd" clip-rule="evenodd" d="M334.384 330.762L328.922 354.085L343.403 353.701L352.97 319.59L330.766 323.362C330.766 323.362 322.641 324.684 318.954 328.379C313.944 333.415 312.664 342.838 312.664 342.838L303.775 391.562L318.268 393.042C318.268 393.042 324.063 393.765 328.85 391.301C332.327 389.503 334.482 385.847 335.698 382.341C336.899 378.833 340.193 364.986 340.193 364.986H326.517L323.627 378.833C323.627 378.833 323.226 381.556 321.21 384.275C319.198 387.013 315.259 386.798 315.259 386.798L324.732 343.221C324.732 343.221 326.256 337.323 328.352 334.266C330.827 330.64 334.384 330.762 334.384 330.762Z" fill="#262420"/>
<path fill-rule="evenodd" clip-rule="evenodd" d="M359.313 355.192L371.732 315.752L359.062 318.469L336.692 395.54L346.617 397.135L357.085 364.21L360.083 364.138C360.083 364.138 362.008 364.789 362.008 366.744C362.008 368.691 361.107 370.823 361.107 370.823L352.255 398.088L363.927 400.268L373.566 371.988C373.566 371.988 375.085 367.293 374.771 364.986C374.244 361.055 372.366 358.76 372.366 358.76C372.366 358.76 374.771 358.76 377.993 355.633C381.212 352.518 381.212 350.182 382.014 347.852C382.819 345.513 395.736 309.92 395.736 309.92L379.01 314.102L369.15 345.905C369.15 345.905 368.42 349.136 366.817 351.473C365.201 353.805 364.119 354.636 363.159 354.819C361.194 355.203 359.313 355.192 359.313 355.192Z" fill="#262420"/>
<path fill-rule="evenodd" clip-rule="evenodd" d="M417.411 316.31L406.551 345.513L421.433 344.741L442.742 294.502L421.433 302.291C421.433 302.291 413.85 304.542 408.162 309.296C403.617 313.103 398.508 321.758 397.3 324.492C396.097 327.214 391.27 338.113 390.473 341.626C389.665 345.124 382.427 364.596 382.427 364.596H399.316L392.081 383.68C392.081 383.68 391.27 387.963 388.452 391.469C385.64 394.971 381.624 395.36 381.624 395.36L391.27 370.823H380.816L369.47 401.386C369.47 401.386 377.946 403.838 384.381 403.066C390.816 402.289 398.508 396.923 402.128 388.744C405.748 380.559 417.81 352.518 417.81 352.518L397.656 353.518L403.806 335.634C403.806 335.634 408.069 325.376 410.977 321.758C412.852 319.43 417.411 316.31 417.411 316.31Z" fill="#262420"/>
<path fill-rule="evenodd" clip-rule="evenodd" d="M53.2832 293.729L96.3721 410.143L109.117 406.587L77.189 312.414C77.189 312.414 82.013 312.804 86.0345 320.201C90.056 327.598 92.0651 333.049 93.2784 337.724C94.485 342.405 114.791 405.268 114.791 405.268L127.733 402.266L102.926 319.43C102.926 319.43 106.143 319.43 109.356 324.872C112.574 330.326 113.79 335.004 113.79 335.004L132.88 401.165L145.37 398.675L129.469 337.343C129.469 337.343 125.881 326.541 121.758 320.921C118.606 316.624 114.901 313.155 108.972 311.124C102.569 308.927 88.7183 305.386 88.7183 305.386L90.7946 311.6C90.7946 311.6 86.125 306.454 81.9466 304.159C78.16 302.079 53.2832 293.729 53.2832 293.729Z" fill="#262420"/>
<path fill-rule="evenodd" clip-rule="evenodd" d="M154.398 357.585L147.504 327.447C147.504 327.447 151.616 328.33 154.029 330.669C156.442 333.011 157.155 339.517 157.155 339.517L160.836 357.585H154.398ZM168.836 394.863L179.737 393.407L170.429 344.976C170.429 344.976 168.286 334.127 165.57 329.914C160.763 322.473 150.568 319.869 150.568 319.869L130.609 315.764L151.275 397.643L163.61 395.595L156.009 364.986L163.113 365.061L168.836 394.863Z" fill="#262420"/>
<path fill-rule="evenodd" clip-rule="evenodd" d="M171.555 323.185L185.236 392.821L200.011 391.269C200.011 391.269 206.746 391.051 208.691 389.514C212.747 386.315 212.712 381.727 212.712 381.727L210.913 327.653L196.681 326.265L201.851 377.45C201.851 377.45 202.197 382.059 199.84 384.462C197.897 386.425 195.823 386.019 195.823 386.019L188.507 325.376L171.555 323.185Z" fill="#262420"/>
<path fill-rule="evenodd" clip-rule="evenodd" d="M218.741 389.93L236.106 389.247C236.106 389.247 241.163 388.744 243.978 386.01C246.79 383.294 247.374 378.334 247.374 378.334L247.697 368.49L236.031 368.6L236.106 378.334C236.106 378.334 236.275 381.556 234.745 383.032C233.594 384.151 229.604 384.084 229.604 384.084L229.668 364.509H247.744L248.13 358.547L229.285 358.736L229.276 341.521C229.276 341.521 229.165 339.049 230.898 337.741C232.725 336.361 236.031 336.753 236.031 336.753V354.465H248.5L250.056 329.091L229.276 328.664C229.276 328.664 223.59 328.792 220.026 332.174C215.908 336.073 216.406 345.028 216.406 345.028L218.741 389.93Z" fill="#262420"/>
<path fill-rule="evenodd" clip-rule="evenodd" d="M273.833 338.043L273.036 353.3C273.036 353.3 273.036 355.253 272.228 356.415C271.426 357.585 270.358 357.711 270.358 357.711L266.197 357.585L267.401 334.931L270.472 334.842C270.472 334.842 272.143 334.731 273.094 335.42C274.045 336.114 273.833 338.043 273.833 338.043ZM285.497 330.64C283.234 328.257 277.561 328.568 277.561 328.568L254.938 329.091L252.6 389.032L263.978 389.331L265.444 364.69C265.444 364.69 269.087 363.466 270.832 365.997C271.986 367.673 271.83 369.649 271.83 369.649L270.323 389.433L281.527 389.953L283.493 370.045C283.493 370.045 284.101 366.552 282.946 363.952C281.932 361.659 279.463 361.09 279.463 361.09C279.463 361.09 281.073 361.09 283.493 358.362C285.901 355.633 285.901 351.748 285.901 351.748L287.287 337.962C287.287 337.962 288.053 333.328 285.497 330.64Z" fill="#262420"/>
<path fill-rule="evenodd" clip-rule="evenodd" d="M275.723 416.221L289.87 412.787L275.377 411.415C274.746 411.357 261.295 410.102 254.63 410.138C253.778 407.511 248.131 390.165 248.131 390.165L245.706 396.847C245.56 397.257 242.559 405.57 240.997 410.222C233.225 410.161 222.858 411.25 222.382 411.297L207.261 412.918L222.134 416.117C226.604 417.081 235.83 420.307 236.784 424.258C235.618 428.861 232.457 436.982 232.422 437.06L229.477 444.597C229.477 444.597 245.72 433.216 247.965 431.644C250.213 433.216 266.051 444.312 266.051 444.312C266.051 444.312 259.491 425.592 258.942 424.026C260.364 421.443 268.442 417.991 275.723 416.221Z" fill="#262420"/>
<path fill-rule="evenodd" clip-rule="evenodd" d="M255.054 423.578C256.048 419.586 262.786 416.538 268.166 414.699C262.882 414.257 255.961 413.746 252.704 413.752L251.794 413.772C251.794 413.772 249.16 406.067 247.796 402.083C246.56 405.547 244.745 410.681 243.987 413.075L243.71 413.964L242.78 413.979C238.959 414.028 233.876 414.301 229.781 414.545C234.498 416.367 239.977 419.435 240.594 424.034L240.628 424.273L240.573 424.499C239.933 427.294 238.485 431.455 237.371 434.514C241.131 431.871 247.964 427.086 247.964 427.086C247.964 427.086 254.981 431.998 258.694 434.605C257.273 430.554 254.961 423.95 254.961 423.95L255.054 423.578Z" fill="white"/>
<path fill-rule="evenodd" clip-rule="evenodd" d="M109.146 147.87C109.146 74.5929 172.176 14.9777 249.663 14.9777C327.137 14.9777 390.17 74.5929 390.17 147.87C390.17 221.143 327.137 280.755 249.663 280.755C172.176 280.755 109.146 221.143 109.146 147.87Z" fill="white"/>
<path fill-rule="evenodd" clip-rule="evenodd" d="M164.841 69.0406L170.831 64.2172C174.643 61.1517 175.937 57.1741 173.675 54.3648C170.875 50.8872 166.405 52.1915 162.037 55.7015L157.219 59.5771L164.841 69.0406ZM164.332 58.7371L164.628 58.4991C166.356 57.1078 167.859 56.8283 168.935 58.1559C169.935 59.3971 169.15 60.8988 167.577 62.1658L167.286 62.3988L164.332 58.7371Z" fill="#262420"/>
<path fill-rule="evenodd" clip-rule="evenodd" d="M199.711 45.1079L203.957 43.3765L205.047 44.5705L210.994 42.1501L200.886 33.146L194.67 35.685L193.881 49.1203L199.828 46.6999L199.711 45.1079ZM199.627 42.0307L199.255 38.1841L199.461 38.0996C199.755 38.5324 200.057 38.9802 200.415 39.3931L201.884 41.1128L199.627 42.0307Z" fill="#262420"/>
<path fill-rule="evenodd" clip-rule="evenodd" d="M229.009 25.6874L235.042 25.0166L235.97 33.2065L241.033 32.6343L241.468 36.51L230.369 37.7629L229.009 25.6874Z" fill="#262420"/>
<path fill-rule="evenodd" clip-rule="evenodd" d="M263.601 24.9958L269.611 25.8706L268.427 34.029L273.473 34.7554L272.911 38.6169L261.855 37.0158L263.601 24.9958Z" fill="#262420"/>
<path fill-rule="evenodd" clip-rule="evenodd" d="M298.131 44.777L302.339 46.6045L302.243 48.214L308.131 50.782L307.524 37.2687L301.37 34.5896L291.185 43.4047L297.076 45.9677L298.131 44.777ZM300.286 42.5622L302.772 39.6136L302.979 39.6974C302.88 40.2123 302.764 40.7496 302.725 41.2927L302.513 43.5357L300.286 42.5622Z" fill="#262420"/>
<path fill-rule="evenodd" clip-rule="evenodd" d="M328.373 58.7579L328.503 59.0887C328.949 60.2546 329.638 61.4718 330.711 62.3607C331.176 62.7388 332.022 63.2115 332.368 62.7877C332.721 62.3665 332.142 61.8176 331.764 61.4047L330.926 60.5067C329.288 58.7637 328.399 56.7156 329.612 55.2397C331.447 53.0199 335.264 54.0796 338.062 56.3955C339.533 57.607 340.668 58.9785 341.467 60.5796L338.222 61.9362C337.748 60.8732 337.102 59.8126 336.093 58.9876C335.68 58.6443 334.997 58.2612 334.671 58.6443C334.384 58.9992 334.924 59.5282 335.233 59.8881L336.148 60.9312C337.868 62.8897 338.664 64.8483 337.352 66.4403C335.5 68.6683 331.784 67.4602 328.996 65.1642C327.381 63.8217 325.765 61.9511 324.752 60.2198L328.373 58.7579Z" fill="#262420"/>
<path fill-rule="evenodd" clip-rule="evenodd" d="M367.423 113.901C366.606 113.061 364.684 111.937 364.684 111.937C363.986 111.667 363.846 111.016 363.846 111.016C363.468 108.643 362.95 107.779 362.95 107.779C350.86 92.1833 335.375 79.2156 317.579 69.9005C314.415 68.4685 311.549 68.3226 311.549 68.3226C310.909 68.3491 310.592 67.8317 310.592 67.8317C309.542 66.3499 306.398 64.7405 305.198 64.1766C288.756 57.5141 270.722 53.8242 251.794 53.8242C246.058 53.8242 240.402 54.1675 234.85 54.8267L242.161 45.029C212.96 44.1551 192.012 66.9428 192.012 66.9428L192.024 66.966C185.01 70.2313 178.307 74.0265 172.008 78.3408L172.026 78.3093C156.794 83.7687 152.401 96.0265 152.401 96.0265C148.545 99.2463 140.912 109.392 140.912 109.392C138.734 110.647 136.454 112.731 135.759 113.381C132.246 117.019 125.837 125.235 122.412 139.389C122.322 139.621 122.217 139.85 122.121 140.083C121.978 140.876 121.836 141.762 121.703 142.657C121.371 144.331 121.08 146.068 120.851 147.887L120.978 147.689C120.932 148.067 120.9 148.294 120.9 148.294C120.534 148.538 118.35 157.269 118.35 157.269C117.986 158.362 114.017 170.312 114.017 170.312L113.991 170.289C113.988 170.312 113.976 170.341 113.976 170.364C103.522 206.895 117.425 229.037 119.793 232.434C138.269 286.18 190.386 324.901 251.794 324.901C298.64 324.901 340.082 302.367 365.318 267.811L365.305 267.814C366.018 266.684 366.376 264.391 366.376 264.391C366.411 263.639 366.981 263.288 366.981 263.288C368.926 262.245 369.592 261.538 369.685 261.42C383.177 240.549 390.984 215.843 390.984 189.363C390.984 161.426 382.299 135.468 367.423 113.901Z" fill="#262420"/>
<path fill-rule="evenodd" clip-rule="evenodd" d="M193.373 87.4237C193.736 87.0398 194.064 86.6973 194.364 86.3889C194.827 85.9038 195.013 85.7786 195.065 85.8051C195.12 85.7587 195.164 85.7239 195.164 85.7239C195.295 78.7595 196.853 73.1899 196.853 73.1899C209.52 55.5124 230.398 50.84 230.398 50.84C232.99 50.0937 231.308 51.2413 231.308 51.2413C218.165 65.9486 219.538 78.1144 219.538 78.1144L232.079 123.858C232.079 123.858 221.91 120.276 214.065 104.208C210.459 136.268 240.71 162.263 240.71 162.263C242.029 163.391 239.956 162.17 239.956 162.17C232.387 158.391 223.658 150.418 221.28 148.18C221.91 150.665 236.639 224.636 236.685 224.868C236.755 225.223 236.97 225.925 237.11 226.405L242.219 213.729L246.429 251.09C227.246 268.93 206.813 261.864 205.542 261.399C206.051 262.201 206.426 262.779 206.435 262.779C206.435 262.779 223.018 295.341 290.612 291.886C290.612 291.886 292.248 291.886 291.995 292.087C292.013 292.145 291.931 292.221 291.62 292.34C290.352 292.79 288.355 293.109 288.355 293.109C206.769 314.895 164.486 245.413 162.651 242.316C162.134 241.598 158.176 236.034 155.972 230.415C155.896 230.249 155.8 229.703 156.184 230.119C156.184 230.119 164.844 239.143 189.36 241.374C189.532 241.348 189.63 241.34 189.63 241.34C170.695 220.237 162.634 204.948 161.45 202.606H161.432C161.432 202.606 159.147 199.181 156.454 189.488C156.454 189.488 156.524 188.997 156.757 189.488C157.681 191.411 163.959 200.657 171.569 202.72C171.578 202.72 171.596 202.714 171.596 202.714C165.12 192.283 161.098 175.779 160.584 173.362C169.397 185.693 185.033 186.585 185.033 186.585C185.006 186.547 184.966 186.51 184.934 186.469C184.966 186.524 184.992 186.556 184.992 186.556C159.29 160.93 164.832 133.036 175.254 112.91C181.404 101.027 189.249 91.84 193.373 87.4237Z" fill="white"/>
<path fill-rule="evenodd" clip-rule="evenodd" d="M270.279 256.988L253.422 274.697C253.429 274.689 253.434 274.689 253.44 274.686L274.26 258.723L263.493 221.603L268.195 176.963L259.968 219.585L270.279 256.988Z" fill="#848683"/>
<path fill-rule="evenodd" clip-rule="evenodd" d="M266.025 166.648C266.327 166.497 266.688 166.302 267.095 166.061C268.346 165.32 270.015 164.146 271.684 162.417C275.019 158.963 278.357 153.306 278.364 144.415C278.364 140.423 277.688 135.774 276.037 130.416C275.694 136.666 274.06 159.82 266.025 166.648Z" fill="#848683"/>
<path fill-rule="evenodd" clip-rule="evenodd" d="M273.85 90.7852C279.712 81.9088 289.39 81.1476 293.481 81.107C289.945 80.0755 286.659 79.6924 283.728 79.6924C279.588 79.6924 276.151 80.4536 273.754 81.2114C272.024 81.7604 270.84 82.3043 270.323 82.563C271.841 84.6716 273.332 89.1584 273.85 90.7852Z" fill="#848683"/>
<path fill-rule="evenodd" clip-rule="evenodd" d="M259.081 114.226L259.34 114.087L259.081 114.226ZM266.412 109.418C266.555 109.439 266.662 109.558 266.665 109.703C266.685 110.537 266.697 111.371 266.697 112.211C266.691 131.357 261.588 152.318 259.671 159.512C267.005 142.767 268.982 127.119 268.982 115.11C268.982 108.079 268.303 102.294 267.627 98.2696C267.275 96.1775 266.924 94.5623 266.668 93.4935C264.81 107.861 259.337 114.381 259.305 114.416C259.244 114.488 259.145 114.529 259.049 114.518C258.957 114.508 258.866 114.45 258.82 114.367C252.821 103.302 244.929 95.1145 238.531 89.69C233.664 85.5639 229.68 83.0507 228.052 82.083C245.161 119.265 250.189 147.936 251.469 157.396C251.509 156.307 251.527 155.197 251.527 154.073C251.527 142.755 249.598 129.882 247.662 119.84C245.729 109.799 243.803 102.614 243.798 102.596C243.763 102.474 243.815 102.347 243.92 102.276C244.022 102.204 244.164 102.21 244.263 102.288C251.968 108.276 257.36 125.233 258.317 128.382C259.75 126.605 261.643 122.162 263.164 118.082C264.815 113.66 266.086 109.63 266.092 109.622C266.127 109.497 266.244 109.416 266.368 109.416C266.383 109.416 266.397 109.418 266.412 109.418Z" fill="#848683"/>
<path fill-rule="evenodd" clip-rule="evenodd" d="M122.345 186.571C122.345 204.245 125.407 222.726 140.644 246.348C155.03 276.615 181.54 292.91 193.893 299.162C198.007 301.248 200.538 302.201 200.563 302.216C220.206 311.464 238.674 314.869 255.228 314.869C289.893 314.869 316.177 299.935 327.143 292.474C330.795 289.987 332.737 288.339 332.74 288.336L332.932 288.562L332.746 288.333C333.47 287.737 334.02 287.264 334.418 286.906C334.202 287.026 333.982 287.157 333.761 287.287C332.978 287.755 332.257 288.222 332.246 288.228C305.308 304.02 280.48 308.846 260.212 308.846C228.479 308.846 207.935 297.021 207.918 297.012C140.603 261.731 139.62 200.595 139.623 200.555C139.62 200.419 139.71 200.299 139.847 200.267C139.978 200.232 140.118 200.294 140.178 200.415C148.87 217.236 159.391 222.965 164.087 224.784C164.765 225.048 165.314 225.226 165.724 225.345C146.14 200.706 140.542 179.964 140.545 164.326C140.545 143.613 150.353 131.883 150.382 131.854C150.467 131.753 150.612 131.721 150.734 131.776C150.854 131.834 150.92 131.968 150.894 132.099C149.489 139.412 148.952 145.859 148.952 151.446C148.952 160.535 150.374 167.337 151.792 171.86C152.572 174.333 153.34 176.119 153.878 177.23C153.284 172.261 153.017 167.464 153.017 162.847C153.02 116.729 180.072 88.3276 185.768 82.8533C181.491 84.6369 176.3 89.2281 172.075 93.5514C167.387 98.3309 163.863 102.77 163.854 102.782C163.779 102.878 163.645 102.919 163.528 102.875C163.41 102.832 163.331 102.721 163.331 102.596C163.375 98.9378 165.471 94.3359 166.603 92.1103C163.122 95.2687 160.237 100.219 158.181 104.548C155.904 109.342 154.645 113.352 154.645 113.361L154.584 113.469C147.454 121.542 142.775 129.978 139.876 136.396C136.98 142.811 135.866 147.184 135.866 147.192C135.631 148.175 135.488 148.651 135.358 148.904C135.3 148.973 135.3 149.105 135.017 149.148C134.593 149.029 134.715 148.834 134.662 148.747C134.647 148.634 134.642 148.5 134.642 148.346C134.642 147.776 134.715 146.98 134.715 146.995C134.904 138.293 138.525 128.507 139.99 124.884C129.73 135.907 127.221 150.851 127.221 162.801C127.221 174.103 129.46 182.674 129.463 182.695L129.472 182.765C129.492 189.793 130.871 198.483 132.249 205.407C133.622 212.333 134.991 217.479 134.988 217.474C135.442 218.816 135.616 219.435 135.623 219.772C135.619 219.83 135.619 219.885 135.588 219.969C135.561 220.051 135.418 220.179 135.285 220.173C134.895 220.08 134.933 219.926 134.753 219.737C134.622 219.54 134.473 219.289 134.337 219.042C134.063 218.561 133.822 218.087 133.822 218.084C126.614 207.057 123.132 188.857 122.356 184.391C122.348 185.115 122.345 185.842 122.345 186.571Z" fill="#848683"/>
<path fill-rule="evenodd" clip-rule="evenodd" d="M349.475 108.726C349.464 108.715 316.68 64.694 254.999 64.6849C254.914 64.6766 254.583 64.6559 254.213 64.6559C253.911 64.6559 253.583 64.6708 253.306 64.7231C253.056 64.7836 252.705 64.8275 252.649 65.2745C252.69 65.6468 252.94 65.7952 253.347 66.0597C253.335 66.0539 261.844 72.5879 267.165 79.2355L267.311 79.4163L267.517 79.3201C267.523 79.3201 268.986 78.6285 271.553 77.9312C274.115 77.2338 277.767 76.5365 282.106 76.5365C287.826 76.5365 294.735 77.7512 301.923 81.7836C298.913 83.2512 283.455 91.0614 280.175 99.8499L280.105 100.033L280.253 100.167C280.288 100.199 295.798 114.308 327.853 114.308C332.955 114.308 338.475 113.951 344.424 113.123C344.424 113.123 345.791 112.968 347.183 112.551C348.544 112.12 350.054 111.484 350.109 110.156C350.109 109.697 349.897 109.221 349.475 108.726Z" fill="#005291"/>
<path fill-rule="evenodd" clip-rule="evenodd" d="M283.094 170.425C282.978 170.312 282.792 170.318 282.681 170.431C282.571 170.546 282.571 170.73 282.681 170.846C282.681 170.846 283.066 171.226 283.656 172.035C285.435 174.461 289.027 180.641 289.027 191.124C289.027 198.515 287.235 208.063 281.736 219.94C281.672 217.95 281.442 213.853 280.637 209.576C279.5 203.605 277.299 197.211 272.603 195.764C272.518 195.737 272.425 195.752 272.353 195.802C272.283 195.851 272.234 195.926 272.222 196.011L269.326 222.059L269.334 222.163L279.818 261.015L259.113 277.647C259.032 277.716 258.991 277.827 259.011 277.931C259.032 278.039 259.108 278.126 259.215 278.158C259.235 278.167 267.313 280.721 280.945 280.721C288.213 280.721 297.052 279.994 307.087 277.769C307.128 277.754 309.614 277.153 310.425 274.75C310.434 274.706 312.691 264.115 312.691 248.92C312.691 226.405 307.738 193.753 283.094 170.425Z" fill="#005291"/>
<path fill-rule="evenodd" clip-rule="evenodd" d="M317.157 275.337C316.773 275.032 316.535 274.512 316.541 273.797C316.541 273.469 316.587 273.096 316.686 272.661C316.686 272.649 317.483 269.572 318.285 264.258C319.085 258.947 319.888 251.419 319.888 242.577C319.888 219.121 314.255 186.402 288.14 161.005C288.134 160.999 287.93 160.866 287.718 160.688C287.511 160.485 287.267 160.372 287.212 159.977C287.2 159.843 287.314 159.674 287.433 159.625C287.546 159.57 287.648 159.561 287.773 159.561C288.029 159.561 288.387 159.619 288.95 159.77C288.971 159.782 295.929 161.883 300.807 167.36C300.658 166.081 300.291 163.571 299.396 160.459C298.09 155.897 295.674 150.061 291.242 144.967C291.233 144.964 290.963 144.677 290.681 144.351C290.405 143.985 290.131 143.781 290.067 143.386C290.067 143.331 290.085 143.236 290.16 143.151C290.242 143.07 290.34 143.049 290.405 143.049C290.748 143.096 290.989 143.302 291.745 143.842C293.359 144.624 358.984 176.378 361.272 240.473C361.272 240.483 361.31 240.848 361.31 241.427C361.301 242.99 361.057 246.116 358.981 247.891C358.341 248.687 342.784 268.03 319.897 275.45C319.879 275.456 319.195 275.72 318.428 275.726C318.006 275.726 317.532 275.642 317.157 275.337Z" fill="#005291"/>
<path fill-rule="evenodd" clip-rule="evenodd" d="M366.265 228.256C364.986 175.37 315.072 139.278 290.172 124.556C281.876 119.645 276.383 117.12 276.371 117.114L275.174 116.565L276.493 116.554H276.651C285.528 116.56 290.969 121.915 292.585 123.763C292.585 120.52 291.289 116.955 291.286 116.949L291.068 116.347L291.67 116.575C298.744 119.27 307.884 120.168 316.835 120.168C325.491 120.168 333.988 119.332 340.312 118.492C346.64 117.658 350.784 116.824 350.824 116.818C351.147 116.786 351.452 116.778 351.74 116.778C355.358 116.769 356.512 118.797 356.666 119.143C365.131 128.583 375.599 150.429 377.35 176.681C377.571 179.973 377.672 183.172 377.672 186.257C377.667 205.991 373.59 221.161 370.415 227.579C369.318 229.703 368.466 230.923 367.493 230.993C366.59 230.911 366.323 229.912 366.265 228.256Z" fill="#005291"/>
<path fill-rule="evenodd" clip-rule="evenodd" d="M222.46 57.2786C222.506 57.2263 222.536 57.1774 222.584 57.1194C222.584 57.1194 222.567 57.131 222.547 57.131C221.794 57.3399 208.316 61.3176 204.32 81.8681C204.32 81.8681 204.297 82.2429 204.509 81.8889C205.719 79.8955 209.947 73.5174 213.82 75.4154C213.82 75.4154 213.829 75.2579 213.861 75.0025C214.076 73.2504 215.344 66.1119 222.46 57.2786Z" fill="#262420"/>
<path fill-rule="evenodd" clip-rule="evenodd" d="M212.131 243.022C209.212 237.162 190.491 196.313 190.491 196.313C184.667 198.158 177.429 193.428 177.429 193.428C177.435 193.43 177.437 193.439 177.437 193.442C186.643 217.881 208.336 239.262 211.791 243.143C211.808 243.161 211.823 243.178 211.841 243.193C212.427 243.841 212.422 243.609 212.422 243.609C212.358 243.484 212.256 243.277 212.131 243.022Z" fill="#262420"/>
<path fill-rule="evenodd" clip-rule="evenodd" d="M193.559 109.953C176.661 148.55 214.695 164.46 215.19 164.667H215.207L213.19 155.779L212.041 150.694C211.093 150.388 210.2 150.026 209.339 149.651C209.04 149.52 208.764 149.383 208.479 149.25C208.121 149.078 207.767 148.91 207.432 148.73C190.814 139.905 192.43 118.774 193.448 111.9C193.46 111.85 193.46 111.809 193.468 111.766C193.497 111.556 193.536 111.365 193.559 111.187C193.666 110.54 193.753 110.101 193.797 109.877C193.824 109.764 193.838 109.697 193.838 109.697V109.668C193.867 109.157 193.652 109.746 193.559 109.953Z" fill="#262420"/>
<path fill-rule="evenodd" clip-rule="evenodd" d="M218.59 218.601L215.851 170.099L232.155 224.177C232.155 224.177 226.813 211.392 218.59 218.601Z" fill="#848683"/>
<path fill-rule="evenodd" clip-rule="evenodd" d="M232.079 123.858L219.537 78.1145C219.546 78.3583 219.497 78.4545 219.572 79.1692L223.19 108.166C223.19 108.166 223.288 108.654 223.288 109.224C223.274 110.853 222.262 112.98 214.667 104.853C214.269 104.459 214.155 104.31 214.064 104.208C221.91 120.276 232.079 123.858 232.079 123.858Z" fill="#848683"/>
<path fill-rule="evenodd" clip-rule="evenodd" d="M202.221 132.064C201.209 129.678 200.796 127.496 200.796 125.547C200.805 118.498 205.989 114.535 206.012 114.512L206.164 114.396C206.167 114.468 205.911 109.918 206.333 102.654C202.163 108.79 193.311 123.344 203.902 134.714C203.727 134.475 203.576 134.263 203.433 134.054C202.887 133.264 202.514 132.627 202.221 132.064Z" fill="#848683"/>
<path fill-rule="evenodd" clip-rule="evenodd" d="M213.283 137.964C211.491 134.818 206.9 124.774 206.182 114.608C206.176 114.541 206.167 114.468 206.164 114.396L206.012 114.512C205.989 114.535 200.805 118.497 200.796 125.546C200.796 127.496 201.209 129.678 202.221 132.064C202.515 132.627 202.887 133.264 203.433 134.054C203.576 134.263 203.727 134.475 203.902 134.714C204.097 134.966 204.326 135.199 204.568 135.463C206.347 137.404 209.363 139.412 214.304 139.624C214.304 139.624 213.893 139.046 213.283 137.964Z" fill="#262420"/>
<path fill-rule="evenodd" clip-rule="evenodd" d="M228.482 224.76C228.482 224.76 220.459 222.712 220.974 239.416C220.965 239.434 220.98 239.393 220.974 239.416C221.011 239.036 221.169 238.521 221.357 238.018C223.878 232.507 226.01 230.29 228.06 230.244C229.744 230.264 231.026 231.801 232.085 233.942C233.146 236.098 233.984 238.939 234.641 241.778C235.176 244.094 235.586 246.4 235.888 248.328C236.01 249.518 236.121 250.997 236.205 252.816C236.217 252.912 236.223 252.97 236.223 252.97C236.223 252.961 236.217 252.953 236.217 252.941V253.011C236.514 251.058 240.119 227.988 228.482 224.76Z" fill="#848683"/>
<path fill-rule="evenodd" clip-rule="evenodd" d="M236.223 252.97C236.223 252.97 236.217 252.912 236.205 252.816C236.121 250.998 236.01 249.518 235.888 248.328C235.586 246.4 235.176 244.094 234.641 241.778C233.984 238.939 233.147 236.098 232.085 233.942C231.026 231.801 229.744 230.264 228.06 230.244C226.011 230.29 223.879 232.507 221.358 238.018C221.169 238.521 221.011 239.036 220.974 239.416C220.962 239.445 220.965 239.434 220.974 239.416L224.961 248.15C224.961 248.15 227.232 224.743 236.205 252.912C236.211 252.947 236.217 252.984 236.217 253.011V252.941C236.217 252.953 236.223 252.961 236.223 252.97Z" fill="#262420"/>
</svg>
