<svg width="500" height="500" viewBox="0 0 500 500" fill="none" xmlns="http://www.w3.org/2000/svg">
<g clip-path="url(#clip0_10_2620)">
<path d="M249.663 499.062C148.759 499.083 57.7806 438.314 19.1566 345.095C-19.4673 251.877 1.87141 144.57 73.2209 73.2209C144.57 1.87138 251.877 -19.4673 345.095 19.1566C438.314 57.7805 499.083 148.759 499.062 249.663C498.887 387.33 387.33 498.887 249.663 499.062Z" fill="#FFC52F"/>
<path d="M249.663 12.9154C380.415 12.9154 486.41 118.911 486.41 249.663C486.41 380.414 380.415 486.41 249.663 486.41C118.911 486.41 12.9155 380.414 12.9155 249.663C13.1766 119.019 119.019 13.1764 249.663 12.9154Z" fill="#8A2433"/>
<path d="M474.232 250.348C474.232 374.782 373.359 475.656 248.925 475.656C124.49 475.656 23.6167 374.782 23.6167 250.348C23.6167 125.914 124.49 25.04 248.925 25.04C308.684 25.0261 366 48.7593 408.257 91.0157C450.513 133.272 474.246 190.588 474.232 250.348Z" fill="#0A233F"/>
<path d="M248.872 416.192C339.323 416.192 412.651 342.872 412.66 252.421C412.67 161.97 339.358 88.6349 248.907 88.6155C158.456 88.596 85.1126 161.9 85.0835 252.351C85.1126 342.805 158.418 416.134 248.872 416.192Z" fill="#8A2433"/>
<path d="M95.9956 252.351C95.9956 167.92 164.441 99.4749 248.872 99.4749C333.303 99.4749 401.748 167.92 401.748 252.351C401.748 336.782 333.303 405.227 248.872 405.227C164.441 405.227 95.9956 336.782 95.9956 252.351Z" fill="#0A233F"/>
<path d="M383.297 286.933C383.297 260.575 369.38 224.728 356.939 200.742L338.383 211.285L336.538 208.386L331.847 211.338L147.341 327.313L138.959 337.593V337.276C131.612 333.978 126.842 326.721 126.729 318.668V318.351L139.433 314.925L234.322 253.247L170.483 213.236L162.523 208.281L160.625 211.18L142.122 200.637C129.47 224.623 115.395 260.628 115.764 286.827C106.012 256.516 116.028 215.081 129.681 188.301L126.254 186.351L137.272 169.271L140.488 171.59C158.991 148.079 192.202 121.826 223.726 117.873C199.899 128.732 173.277 156.408 156.83 177.758L174.173 190.252L172.117 193.415L176.545 196.314L249.504 243.758L321.461 196.999L326.733 193.415L324.677 190.252L341.81 177.758C325.468 156.408 298.741 128.732 274.966 117.873C306.596 121.826 339.701 148.132 358.363 171.696L361.473 169.482L372.438 186.509L369.222 188.407C382.928 215.186 393.102 256.621 383.35 286.933H383.297ZM359.417 314.925L271.961 258.519L256.674 267.586L351.51 327.05L359.839 337.593V337.276C363.591 335.933 366.698 333.221 368.537 329.685C370.868 326.524 372.007 322.64 371.752 318.72V318.404L359.417 314.925Z" fill="#FFC52F"/>
<path d="M264.37 133.108L257.834 141.7L248.714 119.981V220.142L279.236 181.079L309.97 188.987L264.37 133.108Z" fill="#FFC52F"/>
<path d="M264.37 156.566V133.108L257.833 141.7L264.37 156.566Z" fill="white"/>
<path d="M248.766 119.981L193.362 187.511L217.822 181.29L248.766 220.142V119.981Z" fill="white"/>
<path d="M214.87 374.494C222.81 366.824 233.133 362.1 244.127 361.104V345.816H201.955C202.874 356.566 207.429 366.681 214.87 374.494Z" fill="#FFC52F"/>
<path d="M244.128 388.78V370.646C235.888 371.628 228.163 375.168 222.04 380.767C228.648 385.181 236.226 387.931 244.128 388.78Z" fill="#FFC52F"/>
<path d="M253.511 294.787V312.869C261.699 311.944 269.38 308.436 275.441 302.853C268.917 298.378 261.379 295.606 253.511 294.787Z" fill="white"/>
<path d="M282.663 309.021C274.729 316.637 264.458 321.355 253.511 322.411V336.38H295.683C294.45 326.082 289.877 316.472 282.663 309.021Z" fill="white"/>
<path d="M244.128 312.869V294.787C236.245 295.615 228.692 298.386 222.145 302.853C228.226 308.437 235.924 311.944 244.128 312.869Z" fill="white"/>
<path d="M253.511 345.816V361.157C264.467 362.141 274.755 366.848 282.663 374.494C290.264 366.748 294.909 356.581 295.789 345.764L253.511 345.816Z" fill="#FFC52F"/>
<path d="M201.955 336.328H244.127V322.411C233.152 321.346 222.85 316.631 214.87 309.021C207.705 316.473 203.17 326.061 201.955 336.328Z" fill="white"/>
<path d="M253.511 388.78C261.367 387.947 268.898 385.196 275.441 380.767C269.39 375.152 261.709 371.607 253.511 370.646V388.78Z" fill="#FFC52F"/>
<path d="M430.584 230L436.541 240.226L421.78 254.038L440.969 246.869L447.031 257.254L447.98 245.603L460.79 244.813L450.3 238.381L463.215 218.191L441.918 235.271L430.584 230Z" fill="#FFC52F"/>
<path d="M67.3709 229.789L61.414 240.068L76.1745 253.827L57.0386 246.711L50.9763 257.096L49.9747 245.445L37.1647 244.602L47.7079 238.223L34.7925 217.98L56.037 235.113L67.3709 229.789Z" fill="#FFC52F"/>
<path d="M99.9496 157.199L70.2178 136.112L76.8073 126.729C77.9618 125.211 79.2497 123.8 80.6555 122.512C81.4934 121.769 82.3928 121.099 83.344 120.509L83.8712 119.929C83.9708 119.796 84.0589 119.655 84.1348 119.507L84.4511 118.874L110.914 137.272C110.722 139.088 110.26 140.865 109.544 142.544C108.87 144.21 108.021 145.8 107.013 147.288L99.9496 157.199ZM81.2881 130.208C80.7129 131.051 80.7129 132.16 81.2881 133.002C81.3861 133.194 81.5312 133.357 81.7098 133.477L99.9496 146.445C100.901 146.637 101.876 146.243 102.427 145.443C103.234 144.441 103.118 142.984 102.164 142.122L84.5565 129.418C83.4697 128.774 82.0706 129.072 81.3408 130.103L81.2881 130.208Z" fill="white"/>
<path d="M144.125 109.227L127.203 83.502L125.464 84.6618L122.354 79.97L141.331 67.4764L144.441 72.1681L135.111 78.2831L140.277 86.0851L147.394 81.3934L149.186 86.3487L143.071 90.4078L148.975 99.3168L158.253 93.2017L161.363 97.8935L144.125 109.227Z" fill="white"/>
<path d="M214.976 78.494L207.596 66.2112L206.91 66.4748L209.651 79.601L201.006 81.3406L194.786 51.1344L192.888 51.5034L191.781 46.021L200.901 44.1759L209.493 56.3533L210.179 56.037L207.437 42.8053L216.03 41.013L223.41 76.7016L214.976 78.494Z" fill="white"/>
<path d="M273.068 76.4381L273.912 39.5369L282.03 40.9075L280.87 63.47H281.661L288.303 41.8037L296.422 43.1216C293.206 52.8741 285.298 75.2256 284.297 78.0723L273.068 76.4381Z" fill="white"/>
<path d="M402.222 139.117L400.219 136.534L389.676 144.6L384.404 137.852L413.293 115.553L420.251 124.62C421.376 126.128 422.364 127.734 423.203 129.418C423.684 130.423 424.09 131.462 424.416 132.528L424.837 133.16L425.154 133.477L425.681 134.057L410.288 145.865C409.383 145.454 408.518 144.959 407.705 144.389H407.388L399.27 156.883L393.999 150.451L402.222 139.117ZM415.823 127.836C415.313 127.007 414.364 126.553 413.398 126.676H412.871L406.123 132.001C405.724 132.388 405.498 132.92 405.498 133.477C405.498 134.033 405.724 134.566 406.123 134.953C407.019 136.113 408.337 136.482 409.128 135.902L416.087 130.63C416.853 129.755 416.853 128.447 416.087 127.573L415.823 127.836Z" fill="white"/>
<path d="M333.481 96.2593L349.454 69.8486L347.662 68.7943L350.561 63.9971L370.013 75.7528L367.114 80.5499L357.572 74.8039L352.88 82.5531L360.208 86.9813L356.149 91.2513L349.876 87.4557L344.499 96.312L354.04 102.111L351.088 106.961L333.481 96.2593Z" fill="white"/>
<path d="M187.511 456.045C185.561 455.432 183.686 454.601 181.923 453.568C180.253 452.677 178.739 451.52 177.442 450.141L186.825 419.039C188.672 418.605 190.575 418.463 192.466 418.617C194.504 418.762 196.52 419.134 198.476 419.724C200.306 420.341 202.071 421.136 203.747 422.096L206.067 423.625C206.454 423.898 206.881 424.111 207.332 424.258H207.806H208.544V425.101L205.803 434.326L197.527 431.796L198.686 427.842C198.949 426.745 198.365 425.622 197.316 425.207H196.841C196.255 424.964 195.595 424.967 195.011 425.215C194.426 425.463 193.965 425.934 193.731 426.525L186.931 448.823C186.748 449.298 186.748 449.824 186.931 450.299C187.333 450.945 187.949 451.43 188.67 451.67C189.893 452.144 191.271 451.56 191.781 450.352L194.68 440.916L191.991 439.545L194.733 435.065L204.591 438.069L199.108 456.731C197.259 457.15 195.355 457.275 193.468 457.1C191.448 456.978 189.449 456.624 187.511 456.045Z" fill="white"/>
<path d="M260.364 464.375C258.34 464.494 256.308 464.405 254.302 464.111C252.463 463.817 250.683 463.23 249.03 462.371L247.238 429.951C248.86 428.901 250.64 428.118 252.509 427.632C256.415 426.508 260.526 426.291 264.529 426.999C265.437 427.154 266.335 427.365 267.217 427.632C267.668 427.737 268.137 427.737 268.588 427.632H269.062H269.8V428.475L270.327 437.753L261.629 438.227V434.116C261.476 432.998 260.542 432.153 259.415 432.112H258.519C257.219 432.081 256.126 433.081 256.041 434.379L257.254 457.68C257.305 458.191 257.55 458.662 257.939 458.998C258.504 459.493 259.245 459.74 259.995 459.683C261.295 459.714 262.388 458.714 262.473 457.416L261.998 447.558L258.993 447.136L260.048 441.865L270.327 441.285L271.434 461.001C269.798 462.024 268.023 462.805 266.163 463.32C264.197 463.85 262.184 464.185 260.153 464.322" fill="white"/>
<path d="M121.879 422.676C120.274 421.45 118.822 420.034 117.557 418.459C116.332 417.002 115.336 415.366 114.604 413.609L132.317 390.836L130.788 389.623L134.215 385.195L142.544 391.732L123.83 415.876C123.133 416.983 123.463 418.445 124.568 419.144C125.501 420.021 126.956 420.021 127.889 419.144L146.603 395.053L153.509 400.325L132.422 427.579C130.593 427.274 128.818 426.705 127.151 425.892C125.285 425.03 123.518 423.97 121.879 422.729" fill="white"/>
<path d="M383.93 415.771L363.845 392.312L358.521 396.898L354.884 392.628L372.438 377.71L376.076 381.927L370.699 386.513L390.731 409.919L383.93 415.771Z" fill="white"/>
<path d="M429.055 365.269C427.974 366.942 426.72 368.497 425.312 369.908C423.99 371.229 422.48 372.348 420.831 373.229L413.346 368.484L417.932 361.157L421.886 363.634C422.415 363.907 423.043 363.907 423.573 363.634C424.177 363.414 424.682 362.983 424.996 362.422C425.662 361.361 425.411 359.968 424.416 359.206L416.034 353.935L411.395 361.842C410.504 363.861 408.162 364.798 406.124 363.951L405.386 363.476L393.577 356.096C393.691 354.295 394.064 352.519 394.684 350.824C395.852 346.892 397.97 343.307 400.852 340.387C401.593 339.646 402.386 338.959 403.224 338.331C403.465 338.112 403.677 337.864 403.857 337.593V337.171L404.226 336.486L412.818 341.757L408.232 349.138L404.7 346.923H404.173C403.138 346.797 402.125 347.293 401.59 348.189C400.89 349.26 401.144 350.691 402.17 351.457L408.127 355.2L413.556 348.136C414.577 346.045 417.055 345.119 419.197 346.027L420.673 346.976H420.989L432.482 354.356C432.386 356.155 432.031 357.931 431.427 359.628C430.76 361.474 429.894 363.241 428.844 364.9" fill="white"/>
<path d="M310.76 422.729L308.81 423.52L306.701 418.354L327.629 409.603L329.791 414.769L319.511 419.039L322.99 427.421L330.898 424.152L331.952 429.898L325.204 432.692L329.211 442.287L339.438 438.017L341.599 443.288L322.621 451.196L310.76 422.729Z" fill="white"/>
<path d="M73.5387 371.331L82.0787 359.839L81.6042 359.312L70.4812 366.797L65.5786 359.523L91.1985 342.284L90.0915 340.65L94.7305 337.593L99.9494 345.289L91.8839 357.836L92.4637 358.363L103.692 350.824L108.595 358.099L78.3359 378.448L73.5387 371.331Z" fill="white"/>
</g>
<defs>
<clipPath id="clip0_10_2620">
<rect width="500" height="500" fill="white"/>
</clipPath>
</defs>
</svg>
