<svg width="500" height="500" viewBox="0 0 500 500" fill="none" xmlns="http://www.w3.org/2000/svg">
<path fill-rule="evenodd" clip-rule="evenodd" d="M255.398 20.0929L240.25 0H229.98V1.94444L232.367 3.64757V33.0946H240.25V13.191L255.444 33.0946H263.28V0H255.398V20.0929Z" fill="#1D428A"/>
<path fill-rule="evenodd" clip-rule="evenodd" d="M200.095 38.0842L222.774 34.0842L221.584 27.3342L207.088 29.8898L205.964 23.5104L217.795 21.4245L217.283 18.5269L216.605 14.6736L204.774 16.7604L203.722 10.8004L216.957 8.46615L217.543 1.40192L196.122 5.17883L194.348 5.49219L191.998 5.90539L192.336 7.82119L194.981 9.08421L200.095 38.0842Z" fill="#1D428A"/>
<path fill-rule="evenodd" clip-rule="evenodd" d="M161.307 22.8984L165.457 21.3889C169.696 19.8455 175.433 20.474 177.875 27.1814C180.316 33.8906 176.325 38.0599 172.085 39.6033L167.936 41.1129L161.307 22.8984ZM162.427 50.4141L174.031 46.191C184.782 42.2769 188.953 33.4653 185.639 24.3577C182.322 15.2483 173.463 11.1771 162.665 15.1094L152.398 18.8455L148.464 20.2778L149.13 22.1042L152.46 23.0313L162.427 50.4141Z" fill="#1D428A"/>
<path fill-rule="evenodd" clip-rule="evenodd" d="M132.594 66.8134L153.075 54.9896L151.037 47.7587L136.15 56.3533L123.245 33.9983L117.86 37.1051L116.048 38.1537L114.234 39.2005L115.207 40.8837L117.766 41.1311L132.594 66.8134Z" fill="#1D428A"/>
<path fill-rule="evenodd" clip-rule="evenodd" d="M91.9114 77.2413C88.0955 72.8533 88.0894 67.3446 92.4271 63.5747C96.691 59.8681 102.217 60.5781 106.031 64.9679C109.814 69.3195 109.81 74.9618 105.547 78.6684C101.21 82.4393 95.6953 81.5955 91.9114 77.2413ZM112.447 59.3906C106.244 52.2535 95.8472 51.0808 87.7118 58.1519C79.5408 65.2544 79.2925 75.6814 85.4965 82.8169C91.6996 89.9531 102.09 91.1953 110.261 84.092C118.396 77.0209 118.65 66.5261 112.447 59.3906Z" fill="#1D428A"/>
<path fill-rule="evenodd" clip-rule="evenodd" d="M78.8719 87.3967L67.8424 101.516L73.0533 105.588L78.2339 98.9601C79.7339 102.023 79.4743 105.55 77.1106 108.576C77.108 108.579 77.1037 108.583 77.1019 108.586C73.5629 113.103 67.9943 113.326 63.4526 109.778C58.8702 106.196 57.812 100.792 61.3511 96.2639C61.911 95.5478 62.5247 94.9384 63.1792 94.434C64.1367 93.6953 65.1835 93.1832 66.2773 92.8924L72.3936 85.066L72.5472 84.8672C72.3728 84.8351 72.1974 84.8012 72.0221 84.7752C66.5585 83.9696 60.8103 85.9306 56.4604 90.9089C56.1983 91.2101 55.9396 91.5174 55.687 91.8394C49.0221 100.371 50.7677 110.654 58.2191 116.474C65.6722 122.297 76.1071 121.531 82.7721 113C83.0038 112.704 83.2235 112.405 83.4353 112.104C87.759 105.949 87.8528 98.9627 84.6931 93.4688C84.391 92.9462 84.0585 92.4384 83.7 91.9436C82.7347 90.6163 81.5672 89.4002 80.2044 88.336C79.7773 88 79.3354 87.6971 78.8901 87.4071C78.8849 87.4028 78.8788 87.4011 78.8719 87.3967Z" fill="#1D428A"/>
<path fill-rule="evenodd" clip-rule="evenodd" d="M303.213 25.0364L306.05 27.7187C308.509 29.9983 309.669 31.118 309.174 32.8446C308.782 34.2083 307.088 34.9522 304.623 34.2448C301.61 33.3811 298.616 30.8993 296.446 27.6206L294.048 35.9826C296.082 37.8455 298.521 39.6753 303.451 41.0903C309.75 42.8958 315.977 40.6476 317.748 34.4679C319.144 29.605 316.535 26.2995 312.993 22.9722L309.655 19.8012C308.102 18.3229 307.743 17.3359 308.057 16.2448C308.446 14.8811 310.089 14.3194 312.098 14.895C314.333 15.5356 317.127 17.1727 319.976 20.4983L322.152 12.9088C320.992 11.7891 318.037 9.51648 313.609 8.24652C306.762 6.28211 301.215 9.26561 299.689 14.5833C298.62 18.3108 299.75 21.7821 303.213 25.0364Z" fill="#1D428A"/>
<path fill-rule="evenodd" clip-rule="evenodd" d="M330.648 50.8984L338.266 54.4505L349.355 30.6693L358.78 35.0651L361.677 28.8507L335.167 16.4887L332.269 22.7014L341.736 27.1172L330.648 50.8984Z" fill="#1D428A"/>
<path fill-rule="evenodd" clip-rule="evenodd" d="M376.713 48.0764L373.664 59.4774L370.475 57.3264L367.285 55.1762L376.713 48.0764ZM351.986 57.0104L349.979 59.9844L355.709 63.8481L358.1 61.1562L361.746 59.3107L366.826 62.7352L371.904 66.1606L371.56 70.2344L369.96 73.46L375.686 77.3246L377.692 74.3489L385.276 43.8732L377.403 38.5625L374.784 36.7943L373.697 38.4071L374.532 40.6467L351.986 57.0104Z" fill="#1D428A"/>
<path fill-rule="evenodd" clip-rule="evenodd" d="M395.533 59.8507L403.173 66.9765L385.277 86.1658L391.424 91.8975L409.319 72.7074L416.925 79.8003L421.6 74.7864L400.208 54.8376L395.533 59.8507Z" fill="#1D428A"/>
<path fill-rule="evenodd" clip-rule="evenodd" d="M419.594 103.16L426.99 112.627L432.391 108.405L424.996 98.9384L429.765 95.2136L438.037 105.803L444.551 103.003L431.004 85.6658L431.071 85.6137L428.495 82.3151L426.962 83.5122L427.102 86.7492L403.972 104.819L418.15 122.967L423.551 118.747L414.49 107.148L419.594 103.16Z" fill="#1D428A"/>
<path fill-rule="evenodd" clip-rule="evenodd" d="M445.217 241.022C445.217 350.698 356.307 439.609 246.63 439.609C136.954 439.609 48.0435 350.698 48.0435 241.022C48.0435 131.345 136.954 42.434 246.63 42.434C356.307 42.434 445.217 131.345 445.217 241.022Z" fill="#1D428A"/>
<path fill-rule="evenodd" clip-rule="evenodd" d="M246.63 414.786C224.969 414.786 203.915 410.845 184.282 403.312C183.478 391.424 182.698 377.22 181.951 361.688L166.097 356.289L166.104 395.083C163.576 393.757 161.079 392.369 158.615 390.916L158.623 354.084L166.097 354.349V354.595L174.201 354.636L188.834 355.154L371.704 361.633C370.975 362.39 370.245 363.147 369.501 363.891C336.68 396.712 293.044 414.786 246.63 414.786ZM113.32 352.481L140.622 353.447C140.077 361.88 139.48 369.89 138.826 377.318C133.591 373.16 128.557 368.688 123.76 363.891C120.09 360.221 116.616 356.41 113.32 352.481ZM144.273 267.297C143.697 289.344 142.884 312.107 141.786 333.298L126.83 333.799L144.273 267.297ZM145.384 191.385C145.355 206.732 145.166 225.208 144.78 244.984L121.439 333.982L105.32 334.523L145.384 191.385ZM84.9184 304.833C80.9167 294.684 77.8819 284.148 75.8602 273.335C82.2813 268.224 91.3186 259.91 102.087 246.957L84.9184 304.833ZM88.0833 312.338L110.725 236.019C119.885 223.832 129.98 208.516 140.581 189.372L99.9991 334.359C95.4835 327.296 91.5078 319.938 88.0833 312.338ZM166.067 198.217L166.07 208.906H157.975V218.836H166.071L166.073 229.526H157.975V239.454H166.076L166.08 259.504H157.975V269.434H166.081L166.085 290.056H157.975V299.984H166.087L166.094 332.48L158.627 332.731L158.661 181.573H166.064L166.066 188.287H157.975V198.217H166.067ZM381.032 325.252L376.389 314.872C384.049 317.964 391.759 320.922 399.513 323.759C399.352 324.056 399.188 324.352 399.024 324.647L381.032 325.252ZM386.958 343.549C385.784 345.149 384.581 346.734 383.348 348.299L181.352 344.341L181.266 342.394L386.958 343.549ZM194.278 331.532L180.621 331.991C179.784 311.997 179.008 290.989 178.311 270.648L194.278 331.532ZM215.345 330.823L199.575 331.353L177.533 247.313C176.835 225.644 176.242 205.604 175.789 189.486L215.345 330.823ZM238.867 330.031L220.665 330.644L180.606 187.516C184.118 191.388 187.716 195.172 191.413 198.854C195.294 202.727 199.27 206.498 203.318 210.19L238.867 330.031ZM260.693 329.299L244.207 329.854L210.644 216.719C213.019 218.783 215.413 220.825 217.83 222.838C222.07 226.365 226.376 229.814 230.738 233.19L260.693 329.299ZM283.174 328.542L266.052 329.119L237.832 238.582C244.358 243.45 251 248.157 257.749 252.708L283.174 328.542ZM304.919 327.812L288.563 328.361L264.76 257.359C268.398 259.729 272.062 262.059 275.755 264.343L283.355 269.004L284.379 269.603L304.919 327.812ZM328.609 327.015L310.337 327.63L291.289 273.645C292.493 274.346 293.686 275.064 294.903 275.739L298.797 277.906C301.397 279.345 303.98 280.812 306.594 282.225L312.626 285.412L328.609 327.015ZM347.659 302.558C354.871 305.839 362.141 308.997 369.457 312.038L375.454 325.439L357.502 326.044L347.659 302.558ZM351.977 326.229L334.076 326.832L319.555 289.034L322.401 290.46L330.372 294.451C333.043 295.748 335.736 297.003 338.418 298.281C339.179 298.64 339.945 298.988 340.707 299.345L351.977 326.229ZM123.76 118.152C156.581 85.3324 200.216 67.2587 246.63 67.2587C293.044 67.2587 336.68 85.3324 369.501 118.152C402.319 150.972 420.394 194.608 420.394 241.023C420.394 265.988 415.155 290.145 405.215 312.252C384.154 305.146 363.397 297.127 343.082 288.104C340.416 286.91 337.738 285.737 335.08 284.523L327.154 280.784L323.189 278.912L319.264 276.963L311.418 273.05C308.818 271.72 306.245 270.338 303.655 268.983L299.774 266.942C298.48 266.263 297.216 265.534 295.934 264.833L288.265 260.585L280.688 256.18C260.533 244.348 241.112 231.238 222.806 216.721C213.663 209.455 204.789 201.845 196.339 193.803C192.113 189.784 188.006 185.647 184.025 181.402C183.034 180.339 182.042 179.275 181.077 178.19C180.099 177.115 179.141 176.026 178.194 174.929C177.239 173.839 176.318 172.726 175.399 171.615C175.364 171.57 175.326 171.526 175.292 171.482C174.947 158.719 174.76 151.094 174.76 151.094L166.058 149.043L166.06 160.703H158.666L158.668 148.463L149.339 150.681L149.411 155.127L145.05 157.5C145.17 161.15 145.26 165.918 145.317 171.596C141.789 177.754 103.273 244.275 74.4748 264.739C73.4167 256.942 72.8663 249.024 72.8663 241.023C72.8663 194.608 90.941 150.972 123.76 118.152ZM376.522 111.131C341.826 76.4366 295.696 57.329 246.63 57.329C197.564 57.329 151.435 76.4366 116.74 111.131C82.0443 145.826 62.9375 191.956 62.9375 241.023C62.9375 290.089 82.0443 336.217 116.74 370.913C151.435 405.609 197.564 424.714 246.63 424.714C295.696 424.714 341.826 405.609 376.522 370.913C411.215 336.217 430.323 290.089 430.323 241.023C430.323 191.956 411.215 145.826 376.522 111.131Z" fill="#FDB927"/>
<path fill-rule="evenodd" clip-rule="evenodd" d="M305.721 452.601L303.736 442.392L280.174 446.971L269.197 449.105L271.182 459.313L282.158 457.18L287.768 486.044L276.792 488.177L278.776 498.385L289.824 496.238L302.34 493.805L313.315 491.672L311.331 481.464L300.355 483.597L294.745 454.733L305.721 452.601Z" fill="#1D428A"/>
<path fill-rule="evenodd" clip-rule="evenodd" d="M357.844 445.884C354.117 437.889 346.357 434.543 338.588 438.167C330.689 441.85 328.393 449.884 332.123 457.878C335.819 465.807 343.508 469.345 351.409 465.661C359.177 462.038 361.543 453.813 357.844 445.884ZM369.531 440.434C375.591 453.434 370.835 468.63 356.016 475.541C341.131 482.481 326.499 476.327 320.437 463.326C314.374 450.326 319.096 435.227 333.98 428.286C348.8 421.377 363.468 427.434 369.531 440.434Z" fill="#1D428A"/>
<mask id="mask0_10_2804" style="mask-type:alpha" maskUnits="userSpaceOnUse" x="215" y="355" width="243" height="145">
<path d="M215.441 355.545H457.189V499.948H215.441V355.545Z" fill="white"/>
</mask>
<g mask="url(#mask0_10_2804)">
<path fill-rule="evenodd" clip-rule="evenodd" d="M394.54 416.974L390.049 420.81L382.689 412.194L387.399 408.169C390.085 405.878 393.439 405.37 395.907 408.26C398.375 411.151 397.442 414.494 394.54 416.974ZM405.817 399.232C399.575 391.924 389.74 392.496 382.344 398.812L368.432 410.693L366.295 412.519L363.669 414.762L365.557 416.974L369.786 416.607L398.899 450.693L408.539 442.46L396.662 428.553L399.456 426.168L420.919 431.887L432.531 421.97L407.708 416.197C410.35 410.64 409.914 404.03 405.817 399.232Z" fill="#1D428A"/>
<path fill-rule="evenodd" clip-rule="evenodd" d="M452.814 397.349C448.131 403.561 444.214 406.02 440.47 407.891L429.931 399.948C435.756 398.655 440.897 395.764 443.76 391.968C446.1 388.861 445.967 386.056 444.248 384.762C442.072 383.121 439.857 384.156 435.292 386.4L429.951 388.96C423.457 392.093 417.928 391.805 413.233 388.266C406.53 383.216 405.321 373.736 411.825 365.108C416.029 359.528 420.854 356.579 423.072 355.545L432.637 362.752C426.377 364.98 422.543 368.043 420.42 370.862C418.511 373.394 418.414 376.027 420.132 377.322C421.506 378.358 423.101 378.385 426.038 376.99L432.343 373.986C438.981 370.78 445.08 368.882 451.209 373.5C458.997 379.37 458.797 389.41 452.814 397.349Z" fill="#1D428A"/>
<path fill-rule="evenodd" clip-rule="evenodd" d="M236.808 470.65L230.906 470.445L231.302 459.12L237.492 459.335C241.02 459.459 243.838 461.352 243.704 465.151C243.571 468.949 240.624 470.785 236.808 470.65ZM257.109 465.188C257.445 455.582 249.806 449.36 240.086 449.021L221.802 448.383L218.993 448.285L215.542 448.163L215.441 451.072L218.806 453.656L217.242 498.457L229.911 498.898L230.549 480.622L234.222 480.749L246.181 499.468L261.443 500L247.041 478.973C252.745 476.661 256.889 471.495 257.109 465.188Z" fill="#1D428A"/>
</g>
<path fill-rule="evenodd" clip-rule="evenodd" d="M179.676 460.924L174.014 459.247L177.231 448.381L183.171 450.141C186.555 451.144 188.809 453.681 187.728 457.326C186.649 460.97 183.336 462.008 179.676 460.924ZM200.698 460.719C203.426 451.503 197.589 443.567 188.267 440.805L168.029 434.81L164.718 433.829L163.892 436.617L166.502 439.964L153.77 482.945L165.925 486.546L171.121 469.011L174.642 470.055L181.536 491.17L196.177 495.507L187.498 471.544C193.6 470.734 198.905 466.77 200.698 460.719Z" fill="#1D428A"/>
<mask id="mask1_10_2804" style="mask-type:alpha" maskUnits="userSpaceOnUse" x="43" y="351" width="105" height="125">
<path d="M43.0522 351.964H147.182V475.552H43.0522V351.964Z" fill="white"/>
</mask>
<g mask="url(#mask1_10_2804)">
<path fill-rule="evenodd" clip-rule="evenodd" d="M126.015 445.757L120.987 442.797L134.605 431.174L131.044 448.718L126.015 445.757ZM140.976 420.36L134.769 416.704L131.141 414.568L129.664 417.074L130.913 419.88L97.9933 446.991L95.2329 451.679L104.262 456.998L107.635 452.7L112.986 449.568L120.992 454.286L128.999 459.002L128.854 465.2L126.731 470.233L135.758 475.552L138.52 470.865L147.183 424.016L140.976 420.36Z" fill="#1D428A"/>
<path fill-rule="evenodd" clip-rule="evenodd" d="M110.956 400.986H110.954L107.821 397.565L105.675 399.531L106.109 403.085L79.0217 414.82L96.5208 385.233L91.0773 379.292L60.27 394.357L76.7873 363.697L67.2431 353.28L67.2413 353.281L66.0339 351.964L63.8889 353.929L64.4783 358.74L43 401.135L51.625 410.548L72.3238 401.991L61.9462 421.812L70.5694 431.224L120.355 411.245L110.956 400.986Z" fill="#1D428A"/>
</g>
</svg>
