<svg width="500" height="500" viewBox="0 0 500 500" fill="none" xmlns="http://www.w3.org/2000/svg">
<mask id="mask0_10_2979" style="mask-type:alpha" maskUnits="userSpaceOnUse" x="61" y="0" width="378" height="500">
<path d="M61.0464 0.000732422H438.176V499.954H61.0464V0.000732422Z" fill="white"/>
</mask>
<g mask="url(#mask0_10_2979)">
<path fill-rule="evenodd" clip-rule="evenodd" d="M395.463 264.693C384.07 273.684 353.742 280.629 313.706 284.192L314.279 236.066C360.095 242.042 397.283 248.741 397.283 259.735C397.283 261.439 396.657 263.093 395.463 264.693ZM273.77 286.488C266.103 286.715 258.254 286.836 250.238 286.836C240.799 286.836 231.588 286.674 222.67 286.365L223.03 275.208C222.188 246.952 223.946 211.523 224.521 173.679C247.433 176.329 275.074 182.863 274.597 198.985L273.77 286.488ZM282.933 115.378C284.799 129.224 280.829 139.674 273.686 147.569C260.913 159.147 240.894 164.422 224.614 166.816C224.899 140.688 224.515 113.561 222.249 86.9498C253.668 90.3047 280.628 98.2338 282.933 115.378ZM183.236 283.844C134.308 279.126 101.245 269.193 101.245 256.642C101.245 255.728 101.512 254.849 102.022 254.001C113.486 245.934 148.642 240.848 183.848 235.567C183.799 249.362 183.593 264.404 183.145 280.954L183.236 283.844ZM314.324 232.147L314.855 187.397C314.8 166.394 292.975 162.874 276.855 163.139C287.665 159.562 300.675 153.453 310.101 143.27C319.98 134.147 327.023 121.296 325.807 103.264C323.752 72.9159 285.802 57.7993 222.895 63.8997C221.862 64.0007 220.834 64.1041 219.811 64.2114C216.857 41.7847 212.268 20.0601 205.269 0.000732422L202.157 3.09641C193.794 29.0331 188.797 49.7206 185.892 68.912C148.344 75.3827 122.04 83.9915 122.04 83.9915L118.941 87.0895C118.941 87.0895 149.301 84.3356 183.906 84.8233C180.058 124.161 183.977 161.529 183.856 232.117C127.957 230.542 78.9046 239.83 66.9108 254.76C62.9687 258.008 60.873 261.575 61.0065 265.401C61.6114 282.511 112.442 298.226 183.876 304.227L186.919 401.251L190.023 398.145L195.043 332.353C195.063 331.277 195.191 330.363 195.393 329.589C196.892 329.792 198.313 331.708 198.313 335.052L200.52 421.702L203.632 418.605L208.958 348.085C208.943 346.513 209.118 345.216 209.411 344.18C210.922 344.443 212.316 346.659 212.201 350.63L214.663 440.964L217.761 437.869L222.02 306.4C230.233 306.659 238.61 306.802 247.136 306.802C256.166 306.802 265.059 306.647 273.771 306.357L278.085 443.421L281.187 440.326L284.871 368.588C284.879 367.151 285.04 365.951 285.303 364.98C286.713 365.302 288.008 367.402 288 371.105L291.704 471.71L294.798 468.614L298.555 381.695C298.598 380.454 298.78 379.407 299.059 378.54C300.848 378.52 302.652 380.655 302.736 384.805L305.825 500L308.923 496.892L313.441 303.995C374.492 298.667 420.838 286.351 432.323 272.201C436.137 268.998 438.176 265.678 438.176 262.306C437.317 243.521 380.843 229.011 314.324 232.147Z" fill="#9EA2A2"/>
</g>
<path fill-rule="evenodd" clip-rule="evenodd" d="M313.705 284.191L314.32 232.563C361.531 238.652 400.378 245.417 400.378 256.641C400.378 269.51 365.009 279.627 313.705 284.191ZM222.669 286.364L223.031 275.21C222.163 246.102 224.059 209.386 224.573 170.252C247.997 172.664 278.192 179.038 277.69 195.888L276.836 286.4C268.211 286.688 259.322 286.838 250.237 286.838C240.798 286.838 231.588 286.676 222.669 286.364ZM101.244 256.641C101.244 245.048 144.072 238.919 186.951 232.472C186.905 246.264 186.698 261.301 186.253 277.842L186.451 284.145C135.76 279.558 101.244 269.465 101.244 256.641ZM286.026 112.284C291.141 150.244 252.422 162.728 224.614 166.817C224.911 139.562 224.486 111.218 221.951 83.5093C254.798 86.652 283.638 94.5247 286.026 112.284ZM438.178 262.307C437.316 243.52 380.844 229.012 314.324 232.147L314.854 187.398C314.78 159.707 276.864 162.404 264.079 164.1C278.997 161.403 328.884 148.944 325.807 103.264C323.752 72.9151 285.801 57.7986 222.894 63.8997C221.862 64.0008 220.834 64.1057 219.81 64.2106C216.856 41.784 212.267 20.0594 205.268 0C196.517 27.1273 191.442 48.5139 188.6 68.4522C149.61 74.963 122.04 83.9931 122.04 83.9931C122.04 83.9931 152.4 81.2392 187.006 81.7292C183.097 121.656 187.195 159.551 186.953 232.215C120.826 229.887 63.4192 242.761 64.1137 262.307C64.7063 279.416 115.541 295.14 186.983 301.143L190.023 398.144L195.043 332.355C195.194 324.195 201.411 324.948 201.411 331.956L203.631 418.606L208.957 348.084C208.874 338.569 215.53 339.018 215.304 347.536L217.763 437.869L222.123 303.223C231.286 303.546 240.675 303.717 250.237 303.717C259.267 303.717 268.156 303.562 276.868 303.275L281.189 440.325L284.871 368.587C284.923 359.441 291.113 359.919 291.093 368.015L294.797 468.613L298.557 381.694C298.842 373.154 305.671 373.534 305.824 381.694L308.925 496.891L313.503 301.286V301.167C385.742 295.184 438.178 279.444 438.178 262.307Z" fill="#CE1141"/>
</svg>
