<svg width="500" height="500" viewBox="0 0 500 500" fill="none" xmlns="http://www.w3.org/2000/svg">
<path fill-rule="evenodd" clip-rule="evenodd" d="M7.2102 224.6C2.40031 228.987 -0.00768061 234.693 0.000999948 241.612V366.925C0.00447217 373.984 2.40291 379.747 7.2102 384.137C12.0045 388.539 17.9316 390.367 24.9463 389.778C36.1633 388.837 47.3916 387.964 58.6321 387.166V363.479C47.3916 364.051 36.1633 364.673 24.9463 365.346V243.193C36.1633 243.866 47.3916 244.489 58.6321 245.061V221.374C47.3916 220.576 36.1633 219.703 24.9463 218.762C17.935 218.169 12.014 220.073 7.2102 224.6Z" fill="#262420"/>
<path fill-rule="evenodd" clip-rule="evenodd" d="M88.6786 223.343C80.3288 222.843 71.9824 222.303 63.6387 221.726V386.815C81.8487 385.552 100.083 384.474 118.336 383.583V360.921C108.445 361.27 98.5579 361.651 88.6786 362.074V223.343Z" fill="#262420"/>
<path fill-rule="evenodd" clip-rule="evenodd" d="M123.357 383.344C131.867 382.945 140.385 382.584 148.904 382.266V226.273C140.385 225.954 131.867 225.594 123.357 225.195V383.344Z" fill="#262420"/>
<path fill-rule="evenodd" clip-rule="evenodd" d="M196.108 293.321C190.422 293.303 184.736 293.285 179.053 293.264V249.242C184.739 249.348 190.418 249.441 196.108 249.525V293.321ZM196.108 227.625C182.042 227.345 167.977 226.954 153.926 226.455V382.084C162.3 381.786 170.676 381.527 179.053 381.306V315.274C184.739 315.253 190.418 315.235 196.108 315.217C203.051 315.199 208.942 313.076 213.787 308.87C218.755 304.665 221.264 299.504 221.255 293.375V249.795C221.255 243.786 218.755 238.662 213.787 234.395C208.945 230.022 203.044 227.761 196.108 227.625Z" fill="#262420"/>
<path fill-rule="evenodd" clip-rule="evenodd" d="M383.075 247.567C388.75 247.369 394.424 247.154 400.091 246.931C400.088 262.218 400.088 277.512 400.091 292.803C394.424 292.847 388.75 292.889 383.075 292.928V247.567ZM417.709 309.168C422.665 304.71 425.141 299.17 425.144 292.585V245.849C425.147 239.396 422.67 234.031 417.709 229.852C412.881 225.526 407.016 223.61 400.091 223.992C386.062 224.774 372.026 225.445 357.976 226.005V382.534C366.346 382.867 374.714 383.242 383.075 383.653V316.287C390.025 338.797 396.969 361.596 403.911 384.761C412.267 385.238 420.617 385.756 428.964 386.311C421.673 362.049 414.38 338.273 407.082 314.839C411.037 313.848 414.61 312.031 417.709 309.168Z" fill="#262420"/>
<path fill-rule="evenodd" clip-rule="evenodd" d="M268.504 293.389C262.816 293.391 257.13 293.397 251.438 293.397V249.905C257.127 249.902 262.816 249.89 268.504 249.86V293.389ZM268.504 228.097C254.43 228.192 240.358 228.178 226.285 228.055V380.484C234.67 380.409 243.052 380.374 251.438 380.379V315.142C257.127 315.142 262.816 315.145 268.504 315.151C275.444 315.154 281.339 313.07 286.187 308.87C291.17 304.673 293.653 299.494 293.653 293.347V249.655C293.653 243.623 291.161 238.537 286.187 234.397C281.336 230.132 275.448 228.047 268.504 228.097Z" fill="#262420"/>
<path fill-rule="evenodd" clip-rule="evenodd" d="M298.681 380.816C316.978 381.147 335.266 381.659 353.536 382.361V360.048C343.636 359.774 333.731 359.545 323.823 359.351V315.287C329.505 315.311 339.646 315.335 345.323 315.358C345.326 307.966 345.326 300.571 345.323 293.179C339.646 293.205 329.505 293.23 323.823 293.253V249.189C333.734 248.995 343.636 248.763 353.536 248.492V226.178C335.266 226.878 316.975 227.393 298.681 227.724V380.816Z" fill="#262420"/>
<path fill-rule="evenodd" clip-rule="evenodd" d="M499.999 266.675V241.612C499.996 234.688 497.531 228.987 492.597 224.615C487.794 220.085 481.944 218.188 475.057 218.763C468.033 219.349 461.009 219.912 453.979 220.446C446.941 220.979 441.017 223.766 436.198 228.74C431.373 233.586 428.965 239.209 428.963 245.669V292.551C428.963 299.148 431.376 304.676 436.198 309.244C441.017 313.81 446.95 316.169 453.979 316.243C461.009 316.318 468.036 316.401 475.057 316.484V365.347C468.033 364.924 461.009 364.525 453.979 364.144V340.195C445.648 339.925 437.307 339.668 428.963 339.429V362.87C428.963 369.466 431.376 375.137 436.198 379.986C441.017 384.84 446.95 387.56 453.979 388.093C461.009 388.626 468.036 389.186 475.057 389.778C481.952 390.356 487.799 388.519 492.597 384.119C497.529 379.741 499.999 373.984 499.999 366.925V316.8C499.996 309.876 497.531 303.978 492.597 299.22C487.794 294.317 481.944 291.97 475.057 292.053C468.033 292.14 461.009 292.217 453.979 292.295V244.397C461.009 244.013 468.036 243.614 475.057 243.194V267.622C483.38 267.321 491.691 267.005 499.999 266.675Z" fill="#262420"/>
<path fill-rule="evenodd" clip-rule="evenodd" d="M26.3236 221.54C36.1986 222.371 46.5067 223.175 56.9599 223.932V222.928C46.2776 222.163 35.4599 221.32 24.8062 220.426C24.0232 220.357 23.2481 220.325 22.5059 220.325C16.9034 220.325 12.2732 222.121 8.35743 225.814C3.91125 229.868 1.66386 235.181 1.66993 241.611V366.925C1.67341 372.223 3.13 376.744 6.01802 380.413C3.87219 377.008 2.78712 372.985 2.78452 368.411V243.098C2.77584 236.559 5.06403 231.154 9.58747 227.026C13.5779 223.267 18.2889 221.438 23.9929 221.438C24.7498 221.438 25.5336 221.474 26.3236 221.54Z" fill="#717170"/>
<path fill-rule="evenodd" clip-rule="evenodd" d="M87.0086 225.935V224.914C79.7699 224.476 72.4696 224.006 65.3081 223.514V385.026L66.4227 384.951V224.601L66.6223 224.615C73.2022 225.066 80.059 225.509 87.0086 225.935Z" fill="#717170"/>
<path fill-rule="evenodd" clip-rule="evenodd" d="M147.234 228.934V227.88C139.957 227.603 132.49 227.29 125.027 226.945V381.595L126.141 381.547V228.041L126.335 228.049C133.109 228.363 140.139 228.66 147.234 228.934Z" fill="#717170"/>
<path fill-rule="evenodd" clip-rule="evenodd" d="M197.567 230.407C202.621 230.508 207.135 231.809 211.039 234.288C206.823 231.086 201.801 229.406 196.074 229.294C182.634 229.025 169.016 228.653 155.594 228.182V380.357L156.712 380.318V229.284L156.902 229.29C170.38 229.764 184.062 230.139 197.567 230.407Z" fill="#717170"/>
<path fill-rule="evenodd" clip-rule="evenodd" d="M403.279 226.727C407.815 226.727 411.764 227.797 415.25 229.982C411.418 227.043 406.999 225.613 401.796 225.613C401.266 225.613 400.726 225.628 400.184 225.658C386.89 226.4 373.253 227.055 359.647 227.609V380.931L360.762 380.978V228.737L360.941 228.732C374.667 228.175 388.362 227.514 401.647 226.771C402.201 226.742 402.749 226.727 403.279 226.727Z" fill="#717170"/>
<path fill-rule="evenodd" clip-rule="evenodd" d="M251.516 230.943C257.685 230.943 263.904 230.922 269.998 230.88H270.225C275.383 230.88 279.838 232.084 283.736 234.547C279.508 231.333 274.584 229.766 268.74 229.766H268.515C262.316 229.808 256.097 229.829 250.029 229.829C242.782 229.829 235.356 229.799 227.957 229.739V378.799L229.071 378.793V230.851L229.256 230.853C236.661 230.913 244.15 230.943 251.516 230.943Z" fill="#717170"/>
<path fill-rule="evenodd" clip-rule="evenodd" d="M351.867 227.912C334.833 228.556 317.502 229.042 300.35 229.363V379.179L301.467 379.2V230.483L301.648 230.48C318.241 230.171 335.137 229.7 351.867 229.077V227.912Z" fill="#717170"/>
<path fill-rule="evenodd" clip-rule="evenodd" d="M476.65 221.541C477.401 221.478 478.155 221.445 478.888 221.445C482.989 221.445 486.591 222.426 489.8 224.42C486.237 221.672 482.16 220.331 477.401 220.331C476.686 220.331 475.944 220.361 475.195 220.423C468.205 221.011 461.11 221.579 454.107 222.11C447.55 222.604 441.931 225.225 437.398 229.901C432.845 234.473 430.634 239.628 430.634 245.671V292.55C430.634 297.47 432.046 301.705 434.937 305.396C432.794 302.051 431.748 298.302 431.748 294.036V247.154C431.748 241.013 433.998 235.768 438.616 231.125C443.215 226.386 448.916 223.727 455.564 223.226C462.54 222.696 469.636 222.13 476.65 221.541Z" fill="#717170"/>
<mask id="mask0_10_2803" style="mask-type:alpha" maskUnits="userSpaceOnUse" x="0" y="393" width="500" height="47">
<path d="M0.000976562 439.948H500V416.916V393.884H0.000976562V439.948Z" fill="white"/>
</mask>
<g mask="url(#mask0_10_2803)">
<path fill-rule="evenodd" clip-rule="evenodd" d="M0.000976562 416.915C165.636 396.248 334.365 396.248 500 416.915V408.236C334.365 389.1 165.636 389.1 0.000976562 408.236V416.915Z" fill="#1E427B"/>
<path fill-rule="evenodd" clip-rule="evenodd" d="M60.3335 440C185.549 407.578 314.458 407.578 439.668 440V431.812C314.452 400.272 185.549 400.266 60.3335 431.812C60.3361 434.544 60.3361 437.269 60.3335 440Z" fill="#CB2437"/>
</g>
<path fill-rule="evenodd" clip-rule="evenodd" d="M200.349 203.537C133.335 201.896 66.4175 196.941 0 188.655V197.331C70.625 205.491 141.813 210.158 213.082 211.359C208.595 209.125 204.33 206.513 200.349 203.537Z" fill="#1E427B"/>
<path fill-rule="evenodd" clip-rule="evenodd" d="M299.651 203.537C295.67 206.513 291.405 209.125 286.917 211.359C358.187 210.158 429.375 205.491 500 197.331V188.655C433.582 196.941 366.664 201.896 299.651 203.537Z" fill="#1E427B"/>
<path fill-rule="evenodd" clip-rule="evenodd" d="M183.675 186.911C142.34 183.233 101.142 176.133 60.3335 165.569C60.337 168.303 60.337 171.028 60.3335 173.759C103.469 184.624 147.042 191.745 190.755 195.123C188.222 192.543 185.853 189.803 183.675 186.911Z" fill="#CB2437"/>
<path fill-rule="evenodd" clip-rule="evenodd" d="M316.324 186.914C314.145 189.806 311.776 192.543 309.246 195.122C352.956 191.745 396.532 184.624 439.667 173.759V165.568C398.859 176.135 357.658 183.235 316.324 186.914Z" fill="#CB2437"/>
<path fill-rule="evenodd" clip-rule="evenodd" d="M172.931 137.106C172.931 94.5635 207.436 60.0772 250.001 60.0772C292.564 60.0772 327.07 94.5635 327.07 137.106C327.07 179.649 292.564 214.134 250.001 214.134C207.436 214.134 172.931 179.649 172.931 137.106Z" fill="white"/>
<path fill-rule="evenodd" clip-rule="evenodd" d="M305.709 179.903C296.88 168.457 291.862 154.846 291.18 140.482H320.219C319.534 154.861 314.527 168.469 305.709 179.903ZM253.379 207.286V187.158H246.623V207.286C228.329 206.416 211.364 198.574 198.765 185.166C209.06 172.317 214.868 156.883 215.581 140.482V133.73C214.868 117.329 209.06 101.895 198.765 89.0457C211.364 75.6372 228.329 67.796 246.623 66.9259V86.8715H253.379V66.9259C271.672 67.796 288.637 75.6346 301.237 89.0457C290.941 101.895 285.133 117.329 284.421 133.73V140.482C285.133 156.883 290.941 172.317 301.237 185.166C288.637 198.577 271.672 206.416 253.379 207.286ZM194.292 179.903C185.474 168.469 180.465 154.861 179.782 140.482H208.822C208.137 154.849 203.118 168.457 194.292 179.903ZM194.292 94.3084C203.122 105.754 208.137 119.366 208.822 133.73H179.782C180.465 119.35 185.474 105.742 194.292 94.3084ZM305.709 94.3084C314.527 105.742 319.534 119.35 320.219 133.73H291.18C291.862 119.366 296.88 105.754 305.709 94.3084ZM249.999 60.0789C207.505 60.0789 172.932 94.6338 172.932 137.108C172.932 179.579 207.505 214.132 249.999 214.132C292.497 214.132 327.071 179.579 327.071 137.108C327.071 94.6338 292.497 60.0789 249.999 60.0789Z" fill="#262420"/>
<path fill-rule="evenodd" clip-rule="evenodd" d="M232.831 104.844V169.108H267.184V160.271H242.024V104.844H232.831Z" fill="#CB2437"/>
<path fill-rule="evenodd" clip-rule="evenodd" d="M278.863 126.373V99.8931C278.863 95.9265 277.265 94.3093 273.347 94.3093H226.585C222.717 94.3093 221.138 95.9265 221.138 99.8931V174.319C221.138 178.286 222.717 179.903 226.585 179.903H273.347C277.265 179.903 278.863 178.286 278.863 174.319V147.809H269.598V171.776H230.334V102.437H269.598V126.373H278.863Z" fill="#1E427B"/>
<path fill-rule="evenodd" clip-rule="evenodd" d="M253.731 132.477H258.21V113.677H253.731V132.477ZM267.168 157.783L267.182 104.843H244.863L244.645 157.783H253.585L253.728 141.284H258.273L258.207 157.783H267.168Z" fill="#CB2437"/>
</svg>
