<svg width="500" height="500" viewBox="0 0 500 500" fill="none" xmlns="http://www.w3.org/2000/svg">
<mask id="mask0_10_2981" style="mask-type:alpha" maskUnits="userSpaceOnUse" x="49" y="0" width="403" height="405">
<path d="M451.411 202.405V0H49.0522V404.811H451.411V202.405Z" fill="white"/>
</mask>
<g mask="url(#mask0_10_2981)">
<path fill-rule="evenodd" clip-rule="evenodd" d="M327.814 404.811H335.242V372.304H344.833V404.811H353.111V364.312H327.814V404.811ZM356.703 404.811H364.246V322.34H356.703V404.811ZM284.851 354.554V340.688H289.951C292.509 340.688 294.584 343.189 294.584 346.26V348.996C294.584 352.114 292.55 354.554 289.951 354.554H284.851ZM302.14 352.439V343.661C302.14 337.108 296.899 333.831 292.032 333.831H276.617V361.976H292.032C296.899 361.976 302.14 358.988 302.14 352.439ZM315.842 334.984V404.811H324.232V322.378L311.363 322.402L315.842 334.984ZM431.382 342.174L427.367 341.972C423.688 341.972 421.567 340.398 421.567 336.576V325.739C421.567 323.714 422.922 322.076 424.591 322.076H425.828C427.487 322.076 428.847 323.714 428.847 325.739V334.01H438.216V326.086C438.222 326.029 438.579 320.584 435.154 316.851C432.891 314.384 429.444 313.135 424.888 313.135C420.671 313.135 417.497 314.255 415.458 316.466C412.565 319.61 412.84 324.039 412.84 324.085L412.846 324.165V324.237C412.773 331.7 412.773 340.181 412.919 341.179C413.276 343.199 414.037 347.389 420.682 349.228C422.397 349.706 424.434 349.856 426.593 350.01C433.061 350.488 441.928 351.146 441.928 363.706L441.922 382.336C441.922 382.477 441.388 395.93 424.986 395.93C409.04 395.93 409.04 383.907 409.04 378.779V369.925H399.435V383.001C399.435 398.572 411.287 404.502 422.2 404.502H427.763C441.457 404.502 451.411 396.063 451.411 382.499V362.199C451.411 347.425 441.47 342.174 431.382 342.174ZM293.24 322.977L261.375 322.984L265.787 335.176V404.32H273.025V330.235H292.032C298.84 330.235 305.732 335.047 305.732 343.661V352.439C305.732 361.054 298.84 365.567 292.032 365.567H276.617V404.32H284.851V372.16C284.851 372.16 295.058 371.957 295.084 371.957C306.415 371.957 312.528 361.924 312.528 352.446L312.74 340.404C312.74 329.095 302.687 322.977 293.24 322.977ZM422.603 361.562C430.244 361.562 429.056 366.415 429.056 371.444V379.944C429.056 381.975 427.704 383.605 426.039 383.605H424.802C423.136 383.605 421.783 381.975 421.783 379.944V369.925H412.55V378.779C412.55 384.192 412.55 392.372 424.986 392.372C437.903 392.372 438.4 382.652 438.415 382.291V363.706C438.415 354.901 433.827 354.114 426.334 353.563C424.103 353.398 421.801 353.221 419.762 352.658C410.97 350.239 409.876 344.122 409.464 341.816C409.188 340.299 409.291 328.205 409.33 324.329C409.31 323.931 408.984 318.317 412.859 314.08C415.588 311.094 419.633 309.575 424.888 309.575C430.473 309.575 434.803 311.223 437.75 314.462C441.365 318.424 441.747 323.574 441.747 325.558C441.747 325.931 441.732 326.153 441.729 326.272V334.01H451.189V320.902C451.189 308.441 441.162 300.164 428.056 300.164H423.794C410.888 300.164 399.22 306.932 399.22 321.201V340.293C399.22 354.362 412.278 361.562 422.603 361.562ZM372.828 335.87L372.852 404.309H381.65V322.537H367.935L372.828 335.87ZM385.24 322.537V404.309H394.044L394.032 322.537H385.24ZM108.677 300.428H49L54.0201 313.982V403.653H62.6707V308.814C62.6707 308.814 107.316 308.938 107.324 308.938C114.662 308.938 121.298 314.431 121.298 324.919V403.653H129.153L129.107 319.41C129.107 307.462 118.957 300.428 108.677 300.428ZM66.2665 403.653H74.7633V321.497H81.6569V403.569H90.4091V312.481C79.8964 312.451 68.0496 312.413 66.2665 312.413V403.653ZM157.397 373.745H173.239V365.058H149.786V391.661C152.667 391.651 176.868 391.595 182.119 391.583V383.892L157.397 383.856V373.745ZM344.833 354.522H335.242V322.351L327.814 322.366V360.723H353.111V322.34H344.833V354.522ZM239.817 322.942H185.684L190.238 335.227V404.128H197.918V330.369L238.578 330.487C245.323 330.487 251.184 335.53 251.184 345.153V404.128H258.405L258.356 340.16C258.356 329.323 249.139 322.942 239.817 322.942ZM149.786 361.47H173.239V353.244H157.397V343.515H182.119V335.176H149.786V361.47ZM107.316 312.533C107.316 312.533 101.373 312.512 94.0022 312.493V403.569H102.411V321.497L105.368 321.435C107.073 321.435 108.453 323.272 108.453 325.547L108.417 403.653H117.708V324.919C117.708 316.788 112.875 312.533 107.316 312.533ZM201.516 404.128H209.059V342.049H215.31V404.056H223.08V334.043C213.718 334.01 203.266 333.978 201.516 333.974V404.128ZM238.578 334.089C238.578 334.089 233.279 334.069 226.671 334.057V404.056H234.132V342.049L236.814 341.992C238.358 341.992 239.611 343.655 239.611 345.727L239.576 404.128H247.563V345.153C247.563 337.548 243.388 334.089 238.578 334.089ZM137.458 334.089V403.812C141.4 403.812 182.119 403.781 182.119 403.781V395.174L146.196 395.25V331.587H182.119V322.557L133.242 322.63L137.458 334.089Z" fill="#111B2B"/>
<path fill-rule="evenodd" clip-rule="evenodd" d="M324.232 404.811V322.378L327.814 322.366V360.723H353.111V322.34H356.703V404.811H353.111V364.312H327.814V404.811H324.232ZM302.141 352.439V343.661C302.141 337.108 296.899 333.831 292.032 333.831H276.617V361.976H292.032C296.899 361.976 302.141 358.988 302.141 352.439ZM412.55 369.925V378.779C412.55 384.192 412.55 392.371 424.986 392.371C437.903 392.371 438.401 382.652 438.415 382.291V363.706C438.415 354.901 433.827 354.114 426.334 353.563C424.103 353.398 421.801 353.221 419.762 352.658C410.97 350.239 409.876 344.122 409.464 341.816C409.188 340.299 409.291 328.205 409.33 324.329C409.31 323.931 408.984 318.317 412.859 314.08C415.588 311.094 419.633 309.575 424.888 309.575C430.473 309.575 434.803 311.223 437.75 314.462C441.365 318.424 441.747 323.574 441.747 325.558C441.747 325.931 441.732 326.153 441.729 326.272V334.01H438.217V326.086C438.223 326.029 438.58 320.584 435.154 316.851C432.892 314.384 429.444 313.135 424.888 313.135C420.671 313.135 417.498 314.255 415.458 316.466C412.565 319.61 412.841 324.039 412.841 324.085L412.846 324.165V324.237C412.773 331.7 412.773 340.181 412.92 341.179C413.276 343.199 414.037 347.389 420.683 349.228C422.397 349.706 424.435 349.856 426.593 350.01C433.061 350.488 441.928 351.146 441.928 363.706L441.923 382.336C441.923 382.477 441.388 395.93 424.986 395.93C409.04 395.93 409.04 383.907 409.04 378.779V369.925H412.55ZM273.025 404.32V330.235H292.032C298.84 330.235 305.732 335.047 305.732 343.661V352.439C305.732 361.054 298.84 365.567 292.032 365.567H276.617V404.32H273.025ZM381.65 404.309H385.24V322.537H381.65V404.309ZM62.6709 403.653V308.814C62.6709 308.814 107.316 308.938 107.324 308.938C114.662 308.938 121.298 314.431 121.298 324.919V403.653H117.708V324.919C117.708 316.788 112.876 312.533 107.316 312.533C107.316 312.533 101.373 312.512 94.0024 312.493V403.569H90.4093V312.481C79.8965 312.45 68.0497 312.413 66.2666 312.413V403.653H62.6709ZM182.119 335.176H149.787V361.47H173.239V365.058H149.787V391.661C152.667 391.651 176.868 391.595 182.119 391.583V395.174L146.196 395.25V331.587H182.119V335.176ZM197.918 404.128V330.369L238.578 330.487C245.323 330.487 251.185 335.529 251.185 345.153V404.128H247.563V345.153C247.563 337.548 243.388 334.089 238.578 334.089C238.578 334.089 233.279 334.069 226.671 334.057V404.056H223.081V334.043C213.718 334.01 203.267 333.978 201.516 333.974V404.128H197.918Z" fill="#7892AE"/>
<path fill-rule="evenodd" clip-rule="evenodd" d="M393.527 74.1111C392.238 72.1553 390.94 70.2925 389.63 68.4644C422.209 15.0972 345.348 -25.8108 317.523 19.4783C283.266 13.1701 254.625 25.6961 250.77 27.4887C246.917 25.7057 218.63 13.3411 184.694 19.3489C151.09 -27.9002 81.756 20.9444 112.328 67.848C110.868 69.8602 109.412 71.9357 107.995 74.1111C64.5339 140.193 97.1526 184.988 97.1526 184.988L103.839 178.312C103.839 178.312 113.335 224.391 163.508 254.662L165.317 244.725C196.21 277.7 224.839 276.948 251.484 307.068C276.135 278.535 311.927 278.535 339.816 242.917V255.557C391.346 230.491 396.096 176.28 396.096 176.28L400.846 185.085C400.846 185.085 436.982 140.193 393.527 74.1111Z" fill="#111B2B"/>
</g>
<path fill-rule="evenodd" clip-rule="evenodd" d="M284.27 120.921C286.687 120.04 290.941 122.588 293.214 127.017C303.676 124.002 303.105 109.918 303.053 108.929C294.757 112.15 287.916 117.699 284.27 120.921Z" fill="#F7C03B"/>
<path fill-rule="evenodd" clip-rule="evenodd" d="M290.422 129.249C315.73 197.359 283.484 241.115 283.484 241.115C303.35 189.137 290.581 145.908 281.89 129.855C277.426 130.294 272.066 130.039 272.066 130.039C272.066 130.039 278.772 125.896 283.12 121.951C283.461 121.639 283.856 121.287 284.294 120.898C284.286 120.91 284.277 120.914 284.27 120.921C286.687 120.04 290.941 122.588 293.214 127.017C303.657 124.006 303.109 109.97 303.053 108.934C306.097 107.748 309.33 106.877 312.677 106.557C312.677 106.557 310.274 128.943 290.422 129.249ZM303.053 108.929V108.934C302.94 108.98 302.83 109.027 302.718 109.071C302.832 109.027 302.94 108.97 303.053 108.929ZM134.24 63.0851C133.33 54.5 144.179 45.9896 144.179 45.9896C139.708 41.3698 131.892 45.3742 131.892 45.3742C138.985 31.5122 154.864 38.2874 154.864 38.2874C148.848 30.9228 136.095 31.3881 136.095 31.3881C151.869 15.7605 170.911 39.6441 170.911 39.6441C153.953 43.4827 134.24 63.0851 134.24 63.0851ZM330.37 41.3594C330.37 41.3594 340.667 15.632 372.214 21.8421C372.214 21.8421 343.252 2.79083 323.099 37.2335C323.099 37.2335 294.499 23.6745 251.385 42.3047C251.385 42.3047 210.541 28.0695 179.742 36.1337C179.742 36.1337 161.78 4.98702 136.488 17.8177C111.198 30.6372 124.395 60.3091 128.798 68.0018C128.798 68.0018 86.889 110.674 102.644 163.435L111.079 152.925C111.079 152.925 123.116 210.382 154.174 228.492L156.044 214.366C156.044 214.366 188.469 253.474 226.604 270.082C230.233 271.785 250.462 281.82 251.085 286.767V259.405C251.085 259.405 224.606 261.605 217.62 249.398C212.883 241.106 182.469 186.879 197.493 130.084C197.493 130.084 182.868 127.901 180.107 103.226C180.107 103.226 169.197 97.9167 155.634 99.0191C155.634 99.0191 179.893 91.4098 202.62 100.206C225.349 109.001 231.429 131.388 246.836 121.494L251.385 58.4263L255.717 121.494C271.121 131.388 277.21 109.001 299.932 100.206C322.662 91.4098 346.921 99.0191 346.921 99.0191C346.921 99.0191 337.226 92.1841 321.629 89.0695C308.616 86.4688 289.49 94.8247 289.49 94.8247C289.49 94.8247 292.128 76.9341 300.813 67.3924C308.269 59.1884 325.158 57.3802 330.37 41.3594ZM251.184 188.944C254.069 188.5 299.829 186.84 271.79 215.271C291.338 189.404 255.87 189.206 251.184 188.944Z" fill="#7892AE"/>
<path fill-rule="evenodd" clip-rule="evenodd" d="M200.638 108.898C200.585 109.939 200.041 124.006 210.477 127.016C212.72 122.666 216.735 120.137 219.173 120.888C213.588 116.553 206.588 111.731 200.638 108.898Z" fill="#F7C03B"/>
<path fill-rule="evenodd" clip-rule="evenodd" d="M251.084 223.323V236.266L242.273 236.734C233.037 237.012 220.953 240.76 220.953 240.76C198.559 185.317 210.976 143.355 216.956 128.384C194.751 133.193 191.158 106.557 191.158 106.557C193.455 106.085 196.831 107.083 200.638 108.898C200.584 109.939 200.041 124.006 210.477 127.016C212.717 122.67 216.724 120.147 219.163 120.883C220.816 122.168 222.359 123.411 223.701 124.546C238.802 137.244 250.526 134.668 250.526 134.668C250.526 134.668 250.69 182.998 250.69 188.935C250.69 188.935 206.997 185.521 230.475 215.262C230.475 215.262 234.241 204.388 238.248 207.819C243.811 212.588 251.084 222.287 251.084 223.323ZM200.67 108.913C200.66 108.908 200.651 108.903 200.642 108.898C200.651 108.903 200.658 108.908 200.67 108.913ZM251.096 252.862C219.165 252.862 223.468 245.834 223.468 245.834C226.907 243.684 249.264 243.244 251.052 243.244C252.822 243.244 275.269 243.684 278.706 245.834C278.706 245.834 283.011 252.862 251.096 252.862Z" fill="#CDD7DE"/>
<path fill-rule="evenodd" clip-rule="evenodd" d="M156.942 441.127L139.925 434.938L139.961 442.08L126.974 477.778L137.071 481.457L143.115 464.849L146.186 465.954C147.057 466.281 147.423 467.451 147.016 468.58L141.715 483.15L151.692 486.786L157.166 471.769C158.025 469.398 157.755 467.222 156.419 465.626C156.419 465.626 159.8 465.042 161.617 460.053L163.987 453.874C166.114 448.037 161.946 442.944 156.942 441.127ZM153.278 453.404L152.763 454.818C152.171 456.429 150.644 457.299 149.255 456.795L146.424 455.76L149.032 448.602L151.869 449.638C153.222 450.124 153.857 451.825 153.278 453.404Z" fill="#7892AE"/>
<path fill-rule="evenodd" clip-rule="evenodd" d="M365.285 445.701L361.769 435.582L336.581 444.365L340.816 449.56L353.415 485.75C355.443 485.051 376.523 477.696 376.523 477.696L372.936 467.688L360.183 472.097C359.834 471.07 358.116 466.149 358.116 466.149L366.281 463.313L362.727 453.097L354.557 455.93L352.542 450.128L365.285 445.701Z" fill="#7892AE"/>
<path fill-rule="evenodd" clip-rule="evenodd" d="M294.728 487.526L291.443 453.285L277.998 454.568L281.342 461.405L284.913 498.581L311.259 496.131L310.299 486.036L294.728 487.526Z" fill="#7892AE"/>
<path fill-rule="evenodd" clip-rule="evenodd" d="M177.435 454.653L176.512 447.01L189.403 449.767L180.347 493.469L169.82 491.22L177.435 454.653Z" fill="#7892AE"/>
<path fill-rule="evenodd" clip-rule="evenodd" d="M316.882 456.496L312.95 449.881L325.854 447.187L335.242 490.817L324.704 493.013L316.882 456.496Z" fill="#7892AE"/>
<mask id="mask1_10_2981" style="mask-type:alpha" maskUnits="userSpaceOnUse" x="197" y="452" width="69" height="48">
<path d="M197.187 499.948H265.74V452.161H197.187V499.948Z" fill="white"/>
</mask>
<g mask="url(#mask1_10_2981)">
<path fill-rule="evenodd" clip-rule="evenodd" d="M228.593 454.967L201.841 452.161L200.65 464.566L208.131 462.675L212.453 463.126L197.187 496.494L223.947 499.166L224.87 489.05L213.35 487.842L228.593 454.967Z" fill="#7892AE"/>
<path fill-rule="evenodd" clip-rule="evenodd" d="M265.74 455.559L238.826 455.424L238.873 467.886L246.123 465.26L250.493 465.276L238.602 500L265.525 499.995L265.432 489.836L253.849 489.792L265.74 455.559Z" fill="#7892AE"/>
</g>
<path fill-rule="evenodd" clip-rule="evenodd" d="M398.526 450.217L400.64 453.391C401.138 454.149 401.043 455.096 400.421 455.511L399.067 456.407C398.446 456.823 397.529 456.547 397.035 455.785L394.545 452.04L386.199 457.572L389.44 462.463C393.3 468.28 399.203 467.554 403.284 464.849L406.242 462.886C411.364 459.49 412.98 453.874 409.617 448.809L404.582 441.221C400.917 435.71 395.903 436.207 392.139 438.704L389.7 440.216C388.326 441.127 387.141 441.066 386.194 439.635L383.509 435.589C383.009 434.835 383.1 433.89 383.729 433.477L385.082 432.576C385.697 432.167 386.612 432.442 387.109 433.203L389.164 436.283L397.508 430.747L394.253 425.852C391.167 421.201 385.371 420.595 380.479 423.837L377.994 425.484C373.172 428.686 370.494 434.103 374.035 439.434L378.773 446.566C382.26 451.819 388.925 451.269 392.779 448.71C396.295 446.38 397.278 448.339 398.526 450.217Z" fill="#7892AE"/>
<path fill-rule="evenodd" clip-rule="evenodd" d="M112.844 462.451C109.215 467.833 102.789 468.109 98.4327 465.172L93.9242 462.136C89.5667 459.204 87.4136 453.149 91.0372 447.773L105.686 425.888C109.288 420.496 115.709 420.191 120.075 423.112L124.6 426.132C128.97 429.049 131.154 435.093 127.543 440.491L124.633 444.84L115.735 438.873L117.537 436.175C118.221 435.155 118.189 433.932 117.472 433.447L116.04 432.494C115.314 432.011 114.173 432.45 113.497 433.483C113.497 433.483 112.776 434.555 111.678 436.195C109.694 439.159 101.001 452.144 101.001 452.144C100.304 453.161 100.328 454.382 101.05 454.87L102.481 455.832C103.198 456.308 104.343 455.878 105.03 454.859L108.326 450L106.775 448.953L110.927 442.773L121.409 449.767L112.844 462.451Z" fill="#7892AE"/>
</svg>
