<svg width="500" height="500" viewBox="0 0 500 500" fill="none" xmlns="http://www.w3.org/2000/svg">
<g clip-path="url(#clip0_10_2622)">
<mask id="mask0_10_2622" style="mask-type:alpha" maskUnits="userSpaceOnUse" x="0" y="0" width="500" height="500">
<path d="M0.00146484 0.200745H499.708V499.833H0.00146484V0.200745Z" fill="white"/>
</mask>
<g mask="url(#mask0_10_2622)">
<path fill-rule="evenodd" clip-rule="evenodd" d="M488.319 175.529L488.411 175.412L485.878 168.09C450.986 67.6721 356.136 0.199066 249.869 0.199066H249.861C222.011 0.199066 194.444 4.8722 167.919 14.0852C37.7859 59.2421 -31.3307 201.835 13.8276 331.933C48.7443 432.36 143.594 499.833 249.853 499.833C277.703 499.833 305.286 495.168 331.819 485.955C459.478 441.639 528.411 303.578 488.319 175.529Z" fill="#999EA0"/>
</g>
<path fill-rule="evenodd" clip-rule="evenodd" d="M249.859 491.019C147.342 491.019 55.8424 425.928 22.1591 329.042C-21.4076 203.534 45.284 65.9719 170.809 22.406C196.401 13.5179 223.001 9.01971 249.851 9.01971C352.384 9.01971 443.884 74.102 477.551 170.98L478.692 174.262L478.659 174.295C519.959 298.904 453.367 434.433 328.934 477.624C303.326 486.512 276.717 491.019 249.859 491.019Z" fill="#002A5B"/>
<path fill-rule="evenodd" clip-rule="evenodd" d="M274.835 141.798C273.51 141.665 271.985 141.565 270.269 141.448C261.477 140.849 247.494 139.766 230.644 133.96C227.202 137.758 224.377 141.765 222.252 145.139C226.569 149.628 234.81 158.25 238.894 162.84C245.952 167.088 253.027 171.686 260.035 176.601C271.21 164.031 281.135 153.827 290.927 143.581C286.169 142.906 281.244 142.34 276.11 141.907L274.835 141.798Z" fill="#004F83"/>
<path fill-rule="evenodd" clip-rule="evenodd" d="M170.216 183.338C151.624 209.478 138.391 243.614 137.116 284.365C156.966 262.515 173.307 242.265 184.457 231.536C192.174 224.122 199.982 219.041 207.049 215.567C199.657 198.524 189.899 184.604 176.699 177.957C174.266 179.715 172.066 181.522 170.216 183.338Z" fill="#004F83"/>
<path fill-rule="evenodd" clip-rule="evenodd" d="M223.055 119.753C234.097 115.263 246.08 110.665 257.647 106.8C272.247 101.469 285.222 98.5364 295.297 96.987C295.03 96.9121 294.772 96.8121 294.505 96.7371C287.33 94.6463 280.139 93.0886 272.947 92.0307C253.18 89.1235 233.514 90.0315 214.789 94.2548C213.714 97.7367 212.255 104.517 214.697 110.682C216.172 114.405 219.03 117.412 223.055 119.753Z" fill="#004F83"/>
<path fill-rule="evenodd" clip-rule="evenodd" d="M200.094 164.605C195.728 166.696 190.936 169.12 186.319 171.794C199.319 180.315 208.994 194.735 216.353 211.661C226.686 208.071 233.819 207.996 233.819 207.996C240.761 199.174 247.169 191.436 253.178 184.439C246.236 179.582 239.244 175.042 232.269 170.869C224.619 168.112 206.361 165.463 200.094 164.605Z" fill="#004F83"/>
<path fill-rule="evenodd" clip-rule="evenodd" d="M239.475 126.155C252.492 129.962 263.242 130.745 270.967 131.27C272.783 131.395 274.4 131.512 275.808 131.637L276.958 131.736C281.975 132.17 288.992 132.961 297.258 134.444C303.4 126.913 310.825 122.224 315.817 121.116C321.717 123.323 324.725 126.763 326.867 131.67C335.033 135.093 340.5 141.116 344.1 148.313C362.983 156.535 381.975 168.713 396.492 186.748C381.283 151.587 353.583 122.09 317.208 105.239L317.2 105.43C316.758 105.414 283.183 104.647 241.633 124.789C240.9 125.214 240.183 125.672 239.475 126.155Z" fill="#004F83"/>
<path fill-rule="evenodd" clip-rule="evenodd" d="M409.021 236.783C404.913 217.849 391.538 182.971 348.438 160.896C353.288 182.596 347.788 207.253 347.788 207.253C347.788 207.253 359.588 214.084 362.454 227.103C362.471 227.112 364.029 227.778 365.271 229.694C368.571 233.734 372.779 243.072 366.013 261.415C366.013 261.415 361.996 252.851 353.504 262.073C352.771 263.089 352.063 264.105 351.363 265.096C367.546 287.363 379.871 310.595 386.146 333.269C393.346 321.474 399.154 308.554 403.204 294.651C408.838 275.292 410.604 255.742 409.021 236.783Z" fill="#004F83"/>
<path fill-rule="evenodd" clip-rule="evenodd" d="M126.678 295.619C126.137 272.728 129.212 250.654 135.912 229.554C141.537 211.869 149.103 196.925 157.162 184.464C158.387 182.056 160.428 178.275 162.853 173.893C132.112 170.611 104.237 203.381 93.4199 218.042C86.3282 252.536 91.0366 287.106 105.037 317.236C112.562 310.18 119.795 302.891 126.678 295.619Z" fill="#004F83"/>
<path fill-rule="evenodd" clip-rule="evenodd" d="M329.08 335.189C328.763 350.483 336.297 362.262 341.897 380.446C355.763 370.683 368.13 358.688 378.388 344.794C373.78 321.961 361.78 297.821 345.197 274.447C334.78 291.365 329.663 307.275 329.08 335.189Z" fill="#004F83"/>
<path fill-rule="evenodd" clip-rule="evenodd" d="M193.528 132.406C198.72 130.074 205.037 127.3 212.045 124.326C208.995 121.494 206.678 118.179 205.17 114.347C202.787 108.274 202.887 102.102 203.662 97.2036C180.837 104.126 159.77 116.063 142.128 132.14C142.903 132.14 143.77 132.165 144.578 132.19C159.703 131.29 181.228 131.915 193.528 132.406Z" fill="#004F83"/>
<path fill-rule="evenodd" clip-rule="evenodd" d="M168.155 164.43C170.297 160.623 172.472 156.816 174.447 153.359C165.972 147.803 160.68 143.78 146.088 142.472C140.088 142.297 135.072 142.489 131.547 142.73C118.305 157.3 107.63 174.526 100.38 193.877C116.613 177.042 141.03 159.132 168.155 164.43Z" fill="#004F83"/>
<path fill-rule="evenodd" clip-rule="evenodd" d="M218.694 130.246L207.644 146.256C207.644 146.256 215.994 152.054 222.861 159.893C210.853 157.444 197.661 155.228 197.661 155.228L176.753 166.59L186.553 150.338C186.553 150.338 179.961 144.707 172.361 139.801C180.694 140.051 196.544 141.358 196.544 141.358L218.694 130.246Z" fill="#7AC142"/>
<path fill-rule="evenodd" clip-rule="evenodd" d="M227.606 225.875C227.606 225.875 224.698 233.896 224.323 241.352C224.323 241.352 206.131 244.034 197.381 249.99C197.381 249.99 215.539 231.906 227.606 225.875Z" fill="#7AC142"/>
<path fill-rule="evenodd" clip-rule="evenodd" d="M350.143 225.069C352.159 224.578 353.676 224.503 354.793 224.578C354.459 223.645 353.834 222.262 352.709 220.887C351.101 218.938 348.759 217.48 348.759 217.48C350.268 219.805 350.318 223.012 350.143 225.069Z" fill="#FEFEFE"/>
<path fill-rule="evenodd" clip-rule="evenodd" d="M333.732 233.344C336.082 231.728 338.223 230.395 340.173 229.304C339.815 228.454 339.265 227.247 338.44 225.781C336.882 222.99 332.815 220.549 332.815 220.549C334.498 225.522 334.14 230.554 333.732 233.344Z" fill="#FEFEFE"/>
<path fill-rule="evenodd" clip-rule="evenodd" d="M138.629 356.064C123.162 362.378 86.5786 353.765 86.5786 353.765C123.545 351.649 159.695 325.168 159.695 325.168C159.67 325.227 159.629 325.302 159.612 325.36C148.77 341.978 133.829 351.591 133.829 351.591C135.479 353.69 137.145 355.09 138.629 356.064Z" fill="#999EA0"/>
<path fill-rule="evenodd" clip-rule="evenodd" d="M322.94 135.598C322.94 135.598 313.857 128.476 303.532 139.53C314.59 119.396 320.982 130.933 322.94 135.598Z" fill="#7AC142"/>
<path fill-rule="evenodd" clip-rule="evenodd" d="M358.903 233.159C358.903 233.159 357.953 232.518 357.753 232.41C351.995 229.336 341.678 238.282 334.945 241.981C328.22 245.688 318.412 253.584 313.62 242.714C308.837 231.835 319.854 214.825 323.662 204.129C332.079 180.464 332.387 166.536 330.612 158.997C338.387 167.777 340.837 184.612 340.837 184.612C340.837 184.612 343.728 153 328.262 144.678C328.62 145.802 328.22 149.743 327.903 152.85C327.903 152.85 327.87 152.8 327.853 152.783C320.645 154.091 304.762 152.292 299.612 149.593C280.078 170.534 258.787 199.664 242.762 226.42C235.82 240.565 229.003 257.166 227.303 270.653C227.303 270.653 225.087 264.555 224.57 256.425C215.695 259.849 185.562 274.651 179.112 320.049C179.112 320.049 198.27 300.299 219.445 292.594C219.445 292.594 206.028 327.713 231.637 389.947C231.637 389.947 242.003 351.787 263.67 342.157C276.803 407.323 315.287 408.389 326.512 452.73C326.512 452.73 338.262 429.756 324.112 390.721C324.112 390.721 328.995 392.079 333.128 396.96C333.128 396.96 332.487 385.54 321.812 360.9C314.854 347.713 312.67 329.921 312.67 329.921C306.42 335.577 304.82 354.694 304.82 354.694C285.72 302.89 339.945 251.544 349.837 243.972C354.67 240.265 357.653 240.206 359.445 241.089C361.312 237.241 361.145 234.767 358.903 233.159Z" fill="#999EA0"/>
<path fill-rule="evenodd" clip-rule="evenodd" d="M393.221 141.436C364.162 103.101 321.979 78.3861 274.437 71.8304C266.221 70.6975 257.887 70.1228 249.662 70.1228C160.362 70.1228 83.8207 136.904 71.604 225.452C66.5374 262.221 72.7707 298.815 89.254 331.21C91.3207 329.494 93.3707 327.736 95.404 325.962C80.279 295.399 74.6124 261.046 79.379 226.527C91.054 141.827 164.262 77.9696 249.662 77.9696C257.529 77.9696 265.504 78.5111 273.362 79.6023C318.829 85.8665 359.179 109.507 386.971 146.176C414.762 182.836 426.621 228.06 420.346 273.508C413.437 323.663 384.946 366.504 345.129 393.11C345.671 395.784 346.146 398.591 346.546 401.54C389.704 373.893 420.721 328.236 428.121 274.583C434.679 227.06 422.279 179.771 393.221 141.436Z" fill="#999EA0"/>
<path fill-rule="evenodd" clip-rule="evenodd" d="M136.081 82.0422C131.348 82.0422 127.514 78.2104 127.514 73.4789C127.514 68.7475 131.348 64.924 136.081 64.924C140.814 64.924 144.648 68.7475 144.648 73.4789C144.648 78.2104 140.814 82.0422 136.081 82.0422ZM136.081 57.7852C127.406 57.7852 120.381 64.8157 120.381 73.4789C120.381 82.1505 127.406 89.1643 136.081 89.1643C144.756 89.1643 151.781 82.1505 151.781 73.4789C151.781 64.8157 144.756 57.7852 136.081 57.7852Z" fill="#FEFEFE"/>
<path fill-rule="evenodd" clip-rule="evenodd" d="M100.886 96.9704L97.2028 99.0279C95.8528 99.7942 95.0694 99.8192 94.3194 99.1278C93.4278 98.3198 93.5944 97.0703 94.7444 95.7958C94.7528 95.7875 94.7528 95.7792 94.7611 95.7709C96.0861 94.3298 97.5361 93.5967 99.3528 93.4468L99.9611 93.4051L99.4944 86.4163L98.8944 86.4329C95.4778 86.5329 92.2528 88.1989 89.3194 91.3976C87.4694 93.4218 86.3444 95.8125 86.1278 98.1366C85.8694 100.852 86.8694 103.334 89.0278 105.309C92.3528 108.349 96.2694 108.557 100.986 105.925L104.269 104.109C105.978 103.151 107.078 102.785 107.986 103.626C109.078 104.617 108.819 106.017 107.219 107.791C107.203 107.816 107.194 107.833 107.178 107.841C105.053 110.148 102.661 110.323 101.044 110.257L100.461 110.232L99.7111 117.845L100.361 117.879C102.903 118.012 107.869 117.471 112.586 112.314C112.628 112.264 112.669 112.214 112.719 112.164C115.111 109.507 116.394 106.866 116.519 104.326C116.661 101.693 115.561 99.2944 113.269 97.1953C109.861 94.0799 106.161 94.0215 100.886 96.9704Z" fill="#FEFEFE"/>
<path fill-rule="evenodd" clip-rule="evenodd" d="M54.6185 258.469L54.4518 251.614L23.9102 252.338L24.0768 259.194L54.6185 258.469Z" fill="#FEFEFE"/>
<path fill-rule="evenodd" clip-rule="evenodd" d="M82.6359 149.235L94.1609 131.967L88.4859 128.177L80.7693 139.747L76.5109 136.915L83.1526 126.953L77.4859 123.162L70.8359 133.125L66.6443 130.335L74.3609 118.764L68.7359 115.016L57.2109 132.292L82.6359 149.235Z" fill="#FEFEFE"/>
<path fill-rule="evenodd" clip-rule="evenodd" d="M182.898 66.8074L173.948 44.683L181.832 41.4926L179.323 35.3034L157.19 44.2581L159.698 50.4473L167.582 47.2569L176.54 69.3731L182.898 66.8074Z" fill="#FEFEFE"/>
<path fill-rule="evenodd" clip-rule="evenodd" d="M57.2844 166.882L35.7594 176.694L35.3428 177.727L63.8678 189.381L66.4511 183.058L51.6261 177.003L73.2428 167.148L73.6594 166.115L45.1344 154.462L42.5178 160.851L57.2844 166.882Z" fill="#FEFEFE"/>
<path fill-rule="evenodd" clip-rule="evenodd" d="M43.2475 212.593L24.5641 227.104L24.3975 228.204L54.8391 232.968L55.8975 226.221L40.0725 223.739L58.8308 209.178L59.0058 208.078L28.5558 203.314L27.4891 210.128L43.2475 212.593Z" fill="#FEFEFE"/>
<path fill-rule="evenodd" clip-rule="evenodd" d="M303.107 62.9773L309.682 64.9265L318.374 35.6466L311.799 33.689L303.107 62.9773Z" fill="#FEFEFE"/>
<path fill-rule="evenodd" clip-rule="evenodd" d="M470.776 296.571L472.335 289.89L442.576 282.951L437.951 302.785L444.718 304.367L447.793 291.214L470.776 296.571Z" fill="#FEFEFE"/>
<path fill-rule="evenodd" clip-rule="evenodd" d="M460.059 259.737C455.326 259.737 451.493 255.905 451.493 251.174C451.493 246.442 455.326 242.619 460.059 242.619C464.793 242.619 468.626 246.442 468.626 251.174C468.626 255.905 464.793 259.737 460.059 259.737ZM460.059 235.48C451.384 235.48 444.359 242.51 444.359 251.174C444.359 259.845 451.384 266.859 460.059 266.859C468.734 266.859 475.759 259.845 475.759 251.174C475.759 242.51 468.734 235.48 460.059 235.48Z" fill="#FEFEFE"/>
<path fill-rule="evenodd" clip-rule="evenodd" d="M398.124 123.705L411.015 139.99L416.365 135.758L407.732 124.854L411.74 121.68L419.174 131.068L424.524 126.837L417.09 117.449L421.04 114.325L429.674 125.229L434.974 121.031L422.09 104.746L398.124 123.705Z" fill="#FEFEFE"/>
<path fill-rule="evenodd" clip-rule="evenodd" d="M419.277 346.955L408.177 364.506L413.935 368.146L421.368 356.392L425.693 359.125L419.293 369.246L425.06 372.894L431.468 362.773L435.718 365.464L428.285 377.217L434.002 380.833L445.102 363.281L419.277 346.955Z" fill="#FEFEFE"/>
<path fill-rule="evenodd" clip-rule="evenodd" d="M279.977 57.7919L283.11 34.1347L291.552 35.2592L292.427 28.6285L268.752 25.4881L267.869 32.1188L276.31 33.235L273.177 56.8922L279.977 57.7919Z" fill="#FEFEFE"/>
<path fill-rule="evenodd" clip-rule="evenodd" d="M445.277 328.966L461.861 328.191L464.686 321.136L430.886 322.668L430.511 323.593L453.936 348.008L456.736 341.003L445.277 328.966Z" fill="#FEFEFE"/>
<path fill-rule="evenodd" clip-rule="evenodd" d="M347.814 64.7882L342.389 44.2381L342.356 44.0882L341.473 43.6217L327.181 70.9774L333.223 74.1345L339.806 61.5312L342.923 73.2015L343.714 73.618L355.064 69.4864L348.481 82.0896L354.581 85.2717L368.864 57.9243L367.939 57.4412L347.814 64.7882Z" fill="#FEFEFE"/>
<path fill-rule="evenodd" clip-rule="evenodd" d="M44.3093 295.014L31.8927 312.266L31.801 312.391L32.0093 313.374L62.2093 307.001L60.801 300.321L46.8843 303.261L53.9177 293.432L53.7343 292.565L43.326 286.426L57.2427 283.494L55.8177 276.763L25.6177 283.144L25.8427 284.169L44.3093 295.014Z" fill="#FEFEFE"/>
<path fill-rule="evenodd" clip-rule="evenodd" d="M456.76 209.873L469.66 199.052L469.41 198.019L452.968 194.154L466.11 185.466L464.41 178.402L437.077 196.553L437.335 197.611L455.735 201.884L441.293 214.004L441.552 215.071L474.143 218.752L472.443 211.722L456.76 209.873Z" fill="#FEFEFE"/>
<path fill-rule="evenodd" clip-rule="evenodd" d="M438.526 157.778L436.593 153.846L444.234 150.081L446.176 154.013C447.559 156.828 446.909 158.777 444.418 160.002C441.901 161.243 439.909 160.593 438.526 157.778ZM437.209 164.833C439.826 167.607 444.134 167.982 447.951 166.108C453.668 163.284 455.468 157.628 452.284 151.189L447.243 140.959L419.834 154.454L422.868 160.61L435.551 154.362L426.884 168.757L430.493 176.087C430.493 176.087 436.768 165.533 437.209 164.833Z" fill="#FEFEFE"/>
<path fill-rule="evenodd" clip-rule="evenodd" d="M383.303 99.4186L378.836 95.5368L382.461 91.3551L386.669 95.012C388.403 96.5114 388.811 98.294 387.711 99.5602C386.611 100.81 384.844 100.76 383.303 99.4186ZM389.986 82.7003L393.794 86.0073C395.394 87.3984 395.636 88.6979 394.528 89.9723C393.161 91.5384 391.461 90.6387 390.269 89.6058L386.686 86.4987L389.986 82.7003ZM395.111 97.3277C396.836 96.8696 398.428 95.8866 399.678 94.4456C401.603 92.2298 402.386 89.5142 401.886 86.7986C401.478 84.5912 400.261 82.592 398.269 80.8593L394.461 77.5523L389.319 73.0791L384.836 78.227L381.786 81.7423L381.544 82.0172L377.311 86.8819L377.061 87.1735L373.686 91.0636L369.211 96.2115L374.353 100.685L378.828 104.567C380.786 106.266 383.078 107.199 385.469 107.274C388.294 107.365 390.986 106.183 392.861 104.025C394.494 102.142 395.278 99.7684 395.111 97.3277Z" fill="#FEFEFE"/>
<path fill-rule="evenodd" clip-rule="evenodd" d="M390.484 384.331C391.734 383.082 393.259 381.991 395.017 381.141C398.359 379.517 403.259 379.483 403.801 379.483L403.784 386.414C402.334 386.414 399.484 386.672 398.042 387.38C395.892 388.421 394.351 390.004 393.926 391.603C393.642 392.67 394.042 393.528 394.517 393.977C395.017 394.444 395.659 394.552 396.434 394.302C397.026 394.111 398.142 393.553 399.234 393.028C401.726 391.803 404.551 390.412 406.942 390.162C409.551 389.887 411.984 390.695 413.784 392.428C415.926 394.486 416.751 397.409 416.626 399.392C416.492 401.491 415.509 405.473 410.442 408.597C407.484 410.421 403.326 410.979 402.851 411.037L401.992 404.157C403.184 404.007 405.476 403.349 406.809 402.699C410.409 400.941 410.476 396.893 407.659 397.051C406.501 397.126 403.967 398.417 402.292 399.242C400.876 399.942 399.642 400.541 398.592 400.891C395.409 401.933 392.109 401.225 389.759 399.017C387.309 396.701 386.342 393.186 387.226 389.829C387.759 387.822 388.884 385.939 390.484 384.331Z" fill="#FEFEFE"/>
<path fill-rule="evenodd" clip-rule="evenodd" d="M212.31 43.7483L221.652 57.4678L229.144 56.1767L210.135 28.1962L209.16 28.3545L200.627 61.0997L208.06 59.8086L212.31 43.7483Z" fill="#FEFEFE"/>
</g>
<defs>
<clipPath id="clip0_10_2622">
<rect width="500" height="500" fill="white"/>
</clipPath>
</defs>
</svg>
