<svg width="500" height="500" viewBox="0 0 500 500" fill="none" xmlns="http://www.w3.org/2000/svg">
<mask id="mask0_10_2621" style="mask-type:alpha" maskUnits="userSpaceOnUse" x="0" y="20" width="497" height="205">
<path d="M248.134 20.6078H0.0498047V224.463H496.218V20.6078H248.134Z" fill="white"/>
</mask>
<g mask="url(#mask0_10_2621)">
<path fill-rule="evenodd" clip-rule="evenodd" d="M80.9511 213.811L95.1302 206.882L35.2819 84.1967L49.4701 77.2892L42.5522 63.0927L0 83.8526L6.91459 98.0342L21.1119 91.1167L80.9511 213.811ZM112.427 198.395L127.436 193.513L106.343 128.605L121.353 123.729L142.446 188.641L157.465 183.764L110.396 38.9308L95.3922 43.8103L116.479 108.723L101.469 113.603L80.3764 48.6873L65.3657 53.5668L112.427 198.395ZM191.74 23.5247L176.14 25.9889L197.501 160.808L181.906 163.276L160.558 28.4597L144.964 30.9338L165.284 159.22C167.324 172.069 179.525 180.93 192.375 178.894C205.225 176.864 214.087 164.657 212.062 151.808L191.74 23.5247ZM224.992 172.873L240.777 173.143L241.543 129.008C241.78 115.569 240.973 88.4676 240.34 75.6558L240.768 75.6649C244.867 109.655 252.411 141.353 257.408 173.438L272.327 173.704L274.997 21.4386L259.218 21.1674L258.443 65.3024C258.215 78.7418 259.015 105.852 259.636 118.655L259.218 118.646C255.113 84.6652 247.561 52.9582 242.58 20.8814L227.65 20.6078L224.992 172.873ZM283.92 174.011L315.109 178.946C323.75 180.315 331.787 174.461 333.166 165.824L352.046 46.5979C353.413 37.9516 347.566 29.9024 338.925 28.5335L307.749 23.6043L283.92 174.011ZM320.87 41.6537L336.464 44.127L317.584 163.359L301.989 160.882L320.87 41.6537ZM431.909 53.8993L401.889 44.1461C393.574 41.4506 384.7 45.9636 381.993 54.2807L344.686 169.088C341.978 177.405 346.508 186.276 354.816 188.98L384.842 198.73L389.716 183.728L359.69 173.965L375.912 124.064L398.436 131.384L403.304 116.381L380.798 109.062L396.996 59.1601L427.035 68.9116L431.909 53.8993ZM391.931 201.958L458.882 64.7178L487.308 78.5943C495.204 82.434 498.44 91.8737 494.607 99.7505L469.947 150.325C466.746 156.861 461.221 159.639 454.993 156.599L438.068 224.463L423.835 217.521L440.783 149.642L436.161 147.387L406.153 208.9L391.931 201.958ZM466.15 85.8774L443.09 133.166L457.318 140.104L480.385 92.8156L466.15 85.8774Z" fill="#00264A"/>
</g>
<path fill-rule="evenodd" clip-rule="evenodd" d="M27.9619 481C57.1991 455.16 90.146 430.576 126.252 407.955C133.04 404.509 139.837 401.105 146.656 397.727C149.474 396.336 154.983 393.665 161.906 390.343C166.549 395.567 171.377 400.644 176.368 405.585C124.52 429.764 74.8989 455.019 27.9619 481ZM397.415 296.387C432.352 288.621 466.6 283.452 499.647 280.818C463.017 292.043 425.699 304.504 387.888 318.172C391.266 311.131 394.424 303.871 397.415 296.387Z" fill="#006FAB"/>
<path fill-rule="evenodd" clip-rule="evenodd" d="M2.42773 378.675C36.349 357.113 73.9261 337.47 114.494 320.412C115.839 323.132 117.245 325.833 118.655 328.498C116.47 332.959 114.304 337.414 112.15 341.894C74.4402 353.531 37.8199 365.814 2.42773 378.675ZM411.901 253.302C442.099 252.025 471.454 252.523 499.647 254.72C469.283 259.022 438.345 264.018 406.966 269.729C408.689 264.363 410.326 258.887 411.901 253.302Z" fill="#DE433E"/>
<path fill-rule="evenodd" clip-rule="evenodd" d="M251.057 205.017C308.241 205.017 353.08 218.398 403.704 243.626C378.934 336.971 333.609 399.672 251.07 450.612C220.062 431.438 193.698 410.047 171.669 385.685C181.464 381.026 192.51 375.777 202.218 371.192C206.151 371.555 209.908 371.752 213.416 371.832C213.201 377.217 211.508 381.167 208.795 383.986C210.369 385.795 211.976 387.598 213.588 389.37C217.863 385.543 220.616 379.893 220.838 371.863C230.878 371.697 240.571 370.675 249.568 368.756C249.064 383.469 247.011 394.293 242.827 398.589C242.676 398.724 242.596 398.835 242.531 398.97C241.479 400.085 240.547 400.995 239.74 401.709C243.784 400.964 247.759 400.028 251.685 398.927C256.732 388.478 256.8 370.171 256.88 366.996C266.246 364.645 274.585 362.269 282.086 359.709C282.382 368.3 285.815 376.509 292.376 379.537C295.33 377.457 298.205 375.242 300.974 372.946C299.313 373.192 288.917 373.912 289.077 357.212C311.047 348.928 325.343 338.947 337.929 324.043C341.252 316.535 343.929 308.664 345.837 300.51C330.778 324.258 316.906 338.128 289.829 348.996C290.605 344.214 292 338.473 294.222 331.624C302.124 328.313 310.365 324.368 315.331 322.32L327.171 309.883C330.15 298.393 333.11 286.892 336.064 275.397L326.802 278.283L337.695 266.843C339.972 257.84 342.225 248.834 344.465 239.832C339.013 240.628 333.547 241.441 328.095 242.29C329.005 237.794 329.658 233.336 330.002 228.884C327.381 228.219 324.735 227.585 322.088 226.995C321.534 231.994 320.556 237.536 319.073 243.718L318.322 243.837C313.202 244.696 307.97 246.376 303.411 250.216L304.869 245.788C296.1 247.372 287.348 248.988 278.597 250.677L269.889 259.834L270.178 259.096L273.004 251.767C264.351 253.539 255.711 255.367 247.073 257.249C245.27 245.582 243.466 235.035 241.892 226.502C239.448 226.792 237.002 227.121 234.565 227.481C236.14 236.114 237.989 246.914 239.817 258.856L233.703 260.228L225.915 268.425C220.465 262.659 209.403 266.295 202.431 268.05C194.877 269.969 187.319 271.932 179.786 273.975C177.531 274.591 175.291 275.28 173.094 276.031C167.436 267.877 162.127 259.477 157.742 250.422L156.952 248.751C154.665 249.683 152.395 250.643 150.139 251.638L151.105 253.641C155.377 262.492 160.521 270.763 166.066 278.788C157.934 282.406 150.416 287.428 143.911 294.603C143.911 294.603 133.326 305.679 132.089 307.04C129.339 310.197 126.972 313.55 124.882 316.978C113.775 294.615 104.968 270.296 98.3584 243.644C148.992 218.407 193.846 205.007 251.057 205.017ZM256.658 346.319C261.913 343.998 267.169 341.709 272.412 339.408L274.874 336.842C275.914 337.014 277.101 337.051 278.444 336.916C280.481 336.578 282.984 335.87 285.712 334.928C283.939 341.378 282.874 346.947 282.382 351.796C274.898 354.448 266.504 356.935 256.954 359.347C256.941 355.181 256.843 350.824 256.658 346.319ZM220.234 362.724L225.173 360.435L237.842 350.244L240.666 342.455C242.494 346.165 243.491 347.612 245.309 351.352L249.47 349.513C249.618 353.531 249.685 357.432 249.685 361.162C240.531 363.254 230.657 364.374 220.456 364.534L220.234 362.724Z" fill="white"/>
<path fill-rule="evenodd" clip-rule="evenodd" d="M281.866 224.124C293.952 224.124 305.866 224.758 317.632 226.026C326.575 227.899 335.43 230.167 344.218 232.816C347.566 244.548 349.376 256.942 349.376 269.753C349.376 280.338 348.157 290.628 345.837 300.51C330.778 324.258 316.906 338.128 289.828 348.996C290.604 344.214 292 338.473 294.222 331.624C302.124 328.313 310.365 324.368 315.331 322.32L327.171 309.883C330.15 298.393 333.109 286.892 336.064 275.397L326.802 278.283L337.695 266.843C339.972 257.84 342.225 248.834 344.464 239.831C339.012 240.628 333.547 241.441 328.094 242.29C329.005 237.794 329.658 233.336 330.002 228.884C327.381 228.219 324.735 227.585 322.088 226.995C321.534 231.994 320.556 237.536 319.073 243.718L318.322 243.837C313.201 244.696 307.97 246.376 303.41 250.216L304.869 245.788C296.099 247.372 287.348 248.988 278.597 250.677L269.889 259.834L270.178 259.096L273.003 251.767C264.351 253.539 255.711 255.367 247.073 257.249C245.269 245.582 243.466 235.035 241.891 226.502C255.002 224.918 268.32 224.124 281.866 224.124ZM337.929 324.043C329.497 343.088 316.77 359.783 300.974 372.946C299.313 373.192 288.917 373.912 289.077 357.212C311.047 348.928 325.343 338.946 337.929 324.043ZM292.376 379.537C280.148 388.146 266.43 394.767 251.685 398.927C256.731 388.478 256.799 370.171 256.88 366.996C266.246 364.645 274.585 362.269 282.086 359.709C282.382 368.3 285.815 376.509 292.376 379.537ZM239.74 401.709C235.617 402.472 231.423 403.044 227.182 403.426C222.499 398.872 217.964 394.177 213.588 389.37C217.862 385.543 220.616 379.893 220.837 371.863C230.878 371.697 240.57 370.675 249.568 368.756C249.064 383.469 247.011 394.293 242.827 398.589C242.676 398.724 242.595 398.835 242.531 398.97C241.478 400.085 240.546 400.995 239.74 401.709ZM208.794 383.986C205.551 380.257 202.375 376.454 199.292 372.57L202.218 371.192C206.151 371.555 209.908 371.752 213.415 371.832C213.201 377.217 211.508 381.167 208.794 383.986ZM150.663 288.178C146.564 277.803 142.945 267.163 139.843 256.29C143.256 254.675 146.69 253.127 150.139 251.638L151.105 253.641C155.376 262.492 160.521 270.763 166.065 278.788C160.614 281.213 155.441 284.271 150.663 288.178ZM156.952 248.751C182.159 238.429 207.948 231.315 234.565 227.481C236.14 236.114 237.989 246.914 239.817 258.856L233.703 260.228L225.915 268.425C220.465 262.659 209.403 266.295 202.43 268.049C194.876 269.969 187.319 271.932 179.786 273.975C177.531 274.591 175.291 275.28 173.094 276.031C167.435 267.877 162.127 259.477 157.742 250.422L156.952 248.751ZM256.658 346.319C261.913 343.998 267.169 341.709 272.412 339.408L274.874 336.842C275.914 337.014 277.101 337.051 278.444 336.916C280.481 336.578 282.984 335.87 285.711 334.928C283.939 341.378 282.874 346.947 282.382 351.796C274.898 354.448 266.504 356.935 256.954 359.347C256.941 355.181 256.842 350.824 256.658 346.319ZM220.234 362.724L225.173 360.435L237.842 350.244L240.666 342.455C242.494 346.165 243.491 347.612 245.309 351.352L249.469 349.513C249.618 353.531 249.685 357.432 249.685 361.162C240.531 363.254 230.657 364.374 220.456 364.534L220.234 362.724Z" fill="#DE433E"/>
<path fill-rule="evenodd" clip-rule="evenodd" d="M253.532 435.092C229.238 418.638 207.576 399.26 188.855 377.512L199.292 372.57C202.375 376.454 205.552 380.257 208.795 383.986C210.369 385.795 211.976 387.598 213.588 389.37C227.46 404.595 242.808 418.551 259.544 431.069C257.557 432.428 255.557 433.764 253.532 435.092ZM139.047 299.71C131.932 284.179 125.96 268.013 121.197 251.29C163.567 231.296 207.434 220.506 254.012 219.247C275.786 219.435 296.943 221.712 317.632 226.026C305.867 224.758 293.952 224.124 281.866 224.124C268.32 224.124 255.003 224.918 241.892 226.502C239.448 226.792 236.993 227.121 234.565 227.481C207.939 231.315 182.159 238.429 156.952 248.751C154.665 249.683 152.395 250.643 150.14 251.638C146.69 253.127 143.256 254.675 139.844 256.29C142.946 267.163 146.564 277.803 150.663 288.178C148.311 290.098 146.056 292.24 143.912 294.603L139.047 299.71Z" fill="#F4B53C"/>
<path fill-rule="evenodd" clip-rule="evenodd" d="M86.1732 238.078C140.944 209.887 188.997 194.546 251.057 194.546C313.115 194.546 361.179 209.887 415.914 238.078C390.485 340.559 341.917 408.417 251.057 462.883C216.776 442.342 186.812 418.281 161.905 390.343C154.983 393.665 149.474 396.336 146.656 397.727C138.08 401.986 129.505 406.281 120.966 410.638C111.337 415.536 100.648 422.982 89.5455 420.097C77.422 414.835 85.4162 400.085 89.1268 391.69C98.5497 370.454 108.393 349.371 118.655 328.498C106.327 305.36 96.6417 280.215 89.8532 252.92L86.1732 238.078ZM251.057 205.017C193.846 205.007 148.992 218.407 98.3581 243.644C104.968 270.283 113.774 294.64 124.882 316.978C126.972 313.55 129.338 310.197 132.089 307.04C133.326 305.679 143.911 294.603 143.911 294.603C150.416 287.428 157.934 282.406 166.065 278.788C160.521 270.763 155.376 262.492 151.105 253.641L150.139 251.638C152.395 250.643 154.665 249.683 156.952 248.751L157.742 250.422C162.127 259.477 167.435 267.877 173.094 276.031C175.291 275.28 177.531 274.591 179.786 273.975C187.319 271.932 194.876 269.969 202.43 268.049C209.403 266.295 220.465 262.659 225.915 268.425L233.703 260.228L239.817 258.856C237.989 246.914 236.14 236.114 234.565 227.481C237.002 227.121 239.448 226.792 241.891 226.502C243.466 235.035 245.269 245.582 247.073 257.249C255.711 255.367 264.351 253.539 273.003 251.767L270.178 259.096L269.889 259.834L278.597 250.677C287.348 248.988 296.099 247.372 304.869 245.788L303.41 250.216C307.97 246.376 313.201 244.696 318.322 243.837L319.073 243.718C320.555 237.536 321.534 231.994 322.088 226.995C324.735 227.585 327.381 228.219 330.002 228.884C329.657 233.336 329.005 237.794 328.094 242.29C333.547 241.441 339.012 240.628 344.464 239.831C342.225 248.834 339.972 257.84 337.695 266.843L326.802 278.283L336.064 275.397C333.109 286.892 330.15 298.393 327.171 309.883L315.331 322.32C310.365 324.368 302.123 328.313 294.222 331.624C292 338.473 290.604 344.214 289.828 348.996C316.906 338.128 330.778 324.258 345.837 300.51C343.929 308.664 341.252 316.535 337.929 324.043C325.343 338.946 311.047 348.928 289.077 357.212C288.917 373.912 299.313 373.192 300.974 372.946C298.205 375.242 295.33 377.457 292.376 379.537C285.815 376.509 282.382 368.3 282.086 359.709C274.585 362.269 266.246 364.645 256.88 366.996C256.799 370.171 256.731 388.478 251.685 398.927C247.759 400.028 243.784 400.964 239.74 401.709C240.546 400.995 241.478 400.085 242.531 398.97C242.595 398.835 242.676 398.724 242.827 398.589C247.011 394.293 249.064 383.469 249.568 368.756C240.57 370.675 230.878 371.697 220.837 371.863C220.616 379.893 217.862 385.543 213.588 389.37C211.976 387.598 210.369 385.795 208.794 383.986C211.508 381.167 213.201 377.217 213.415 371.832C209.908 371.752 206.151 371.555 202.218 371.192C192.51 375.777 181.463 381.026 171.669 385.685C193.698 410.047 220.062 431.438 251.07 450.612C333.609 399.672 378.934 336.971 403.704 243.626C353.08 218.398 308.241 205.017 251.057 205.017ZM256.657 346.319C256.842 350.824 256.941 355.181 256.953 359.347C266.504 356.935 274.898 354.448 282.382 351.796C282.874 346.947 283.939 341.378 285.711 334.928C282.984 335.87 280.481 336.578 278.444 336.916C277.101 337.051 275.914 337.014 274.874 336.842L272.412 339.408C267.169 341.709 261.913 343.998 256.657 346.319ZM220.234 362.724L220.456 364.534C230.657 364.374 240.531 363.254 249.685 361.162C249.685 357.432 249.618 353.531 249.469 349.513L245.309 351.352C243.491 347.612 242.494 346.165 240.666 342.455L237.842 350.244L225.173 360.435L220.234 362.724Z" fill="#00264A"/>
<path fill-rule="evenodd" clip-rule="evenodd" d="M180.737 278.271C167.863 281.767 156.367 287.28 147.163 297.452C141.886 303.501 138.12 310.437 134.606 317.537C124.304 338.46 114.439 359.574 104.989 380.873C102.521 386.429 94.9493 399.936 103.011 403.438C111.928 405.752 123.085 398.257 130.96 394.244C139.511 389.899 148.089 385.592 156.681 381.328C171.322 374.073 184.448 365.26 193.347 351.101C196.892 345.119 199.529 338.713 202.132 332.313C207.717 318.553 213.415 304.806 219.222 291.107C221.398 285.969 225.195 279.502 223.985 273.895C221.539 266.369 208.825 270.966 203.295 272.344C195.778 274.259 188.251 276.228 180.737 278.271ZM164.469 356.854C157.657 359.894 150.875 362.947 144.086 366.073C153.93 343.26 164.137 320.602 174.793 298.122C180.753 296.24 186.735 294.381 192.738 292.547C182.983 313.852 173.574 335.291 164.469 356.854ZM280.967 254.702C271.532 267.021 262.22 279.44 253.015 291.938C257.322 280.498 261.667 269.077 266.055 257.687C256.288 259.687 246.537 261.815 236.804 264.031C234.278 269.914 231.764 275.809 229.287 281.71C231.376 281.126 233.497 280.541 235.586 279.969C227.927 298.505 220.456 317.113 213.138 335.753C210.129 343.334 207.147 350.922 204.172 358.503C213.945 353.888 223.718 349.316 233.527 344.805C237.967 332.547 242.445 320.301 246.98 308.086C251.143 316.424 255.267 324.768 259.366 333.15C265.68 330.325 272.019 327.55 278.357 324.786C274.498 315.987 270.578 307.205 266.633 298.43C273.655 287.784 280.72 277.175 287.877 266.604C289.89 266.129 291.896 265.649 293.902 265.187C295.415 260.603 296.918 256.019 298.425 251.429C292.598 252.48 286.776 253.567 280.967 254.702ZM318.814 248.222C313.559 249.099 308.814 250.779 304.893 254.72C301.681 258.184 299.976 262.308 298.555 266.702C294.37 279.833 290.161 292.978 285.963 306.128C284.314 311.316 281.63 320.781 289.963 320.079C292.794 319.612 295.477 318.443 298.137 317.304C306.555 313.717 314.999 310.171 323.461 306.682C325.62 298.43 327.755 290.172 329.879 281.902C325.43 283.292 320.999 284.702 316.55 286.135C315.503 289.852 314.469 293.594 313.436 297.305C310.346 298.443 307.269 299.562 304.18 300.701C308.082 287.366 311.983 274.043 315.861 260.708C318.593 260.117 321.331 259.533 324.069 258.966C323.417 261.305 322.789 263.649 322.131 265.987C326.119 265.034 330.113 264.08 334.101 263.169C335.628 257.164 337.141 251.148 338.636 245.142C332.033 246.111 325.411 247.142 318.814 248.222Z" fill="white"/>
<path fill-rule="evenodd" clip-rule="evenodd" d="M354.348 236.032C358.355 237.348 362.102 238.681 365.844 240.09C375.235 243.579 383.543 247.142 390.411 250.422C369.211 323.175 325.786 384.189 264.528 427.61L259.538 431.069C241.599 417.642 231.011 407.093 231.011 407.093L239.454 405.703C265.077 401.432 289.767 389.838 310.174 370.786C344.963 338.331 359.087 291.993 351.924 248.324C351.751 247.336 351.555 246.349 351.382 245.36L351.308 244.93L351.221 244.475L351.11 243.989L351.025 243.524L350.933 243.02L350.828 242.554L350.711 242.029L350.6 241.524L350.495 241.059L350.421 240.656L350.28 240.099L350.163 239.576L350.065 239.186L349.991 238.792L349.893 238.41C349.498 236.844 349.154 235.512 348.785 234.222C350.667 234.822 352.526 235.429 354.348 236.032ZM355.025 236.881C358.773 238.17 362.632 239.521 366.311 240.902C362.564 239.483 358.798 238.152 355.025 236.881Z" fill="#006FAB"/>
</svg>
