<svg width="500" height="500" viewBox="0 0 500 500" fill="none" xmlns="http://www.w3.org/2000/svg">
<mask id="mask0_10_2802" style="mask-type:alpha" maskUnits="userSpaceOnUse" x="4" y="0" width="493" height="500">
<path d="M4 499.938H496.67V0.148865H4V499.938Z" fill="white"/>
</mask>
<g mask="url(#mask0_10_2802)">
<path fill-rule="evenodd" clip-rule="evenodd" d="M495.791 1.70123C495.017 0.71868 493.838 0.148865 492.588 0.148865H183.669C146.824 0.226893 124.178 16.1304 116.37 47.4209L4.12343 494.923C3.81634 496.15 4.08954 497.437 4.86191 498.432C5.63838 499.423 6.82364 500 8.08387 500H344.549C363.876 499.995 383.149 484.642 387.514 465.795L496.56 5.17043C496.849 3.95893 496.566 2.67967 495.791 1.70123Z" fill="#58666A"/>
</g>
<path fill-rule="evenodd" clip-rule="evenodd" d="M8.0835 495.918H344.549C362.053 495.918 379.598 481.885 383.542 464.85L492.587 4.23206H183.678C155.03 4.2916 129 13.6746 120.33 48.4158L8.0835 495.918Z" fill="#0F1216"/>
<path fill-rule="evenodd" clip-rule="evenodd" d="M77.4592 314.004H369.247C383.883 314.004 398.475 302.37 401.775 288.084L463.087 22.9425H195.476C162.968 22.9425 148.346 33.0975 141.528 60.4209L77.4592 314.004ZM369.247 317.608H72.8281L138.029 59.5431C146.358 26.1755 167.021 19.3367 195.476 19.3367H467.625L405.29 288.89C401.632 304.722 385.466 317.602 369.247 317.608Z" fill="#58666A"/>
<path fill-rule="evenodd" clip-rule="evenodd" d="M121.369 462.298L129.472 473.513H190.916L215.859 374.745H190.678L169.257 459.571H146.872L168.292 374.745H136.575L134.561 376.537L140.87 385.039L121.369 462.298Z" fill="white"/>
<path fill-rule="evenodd" clip-rule="evenodd" d="M123.233 409.36L129.251 385.55L121.147 374.322H70.7358L56.9616 385.55L48.5724 418.787L91.1409 436.67L85.3635 459.571H63.0881L65.8007 448.824L43.5581 438.623L37.5815 462.298L45.6842 473.513H96.0976L109.867 462.298L118.266 429.05L75.6884 411.153L81.4719 388.258H103.746L100.978 399.23L123.233 409.36Z" fill="white"/>
<path fill-rule="evenodd" clip-rule="evenodd" d="M297.063 385.55L288.962 374.322H227.518L202.577 473.091H227.754L249.181 388.258H271.568L250.145 473.091H281.848L283.871 471.287L277.568 462.799L297.063 385.55Z" fill="white"/>
<path fill-rule="evenodd" clip-rule="evenodd" d="M374.959 409.36L380.97 385.55L372.871 374.322H322.457L308.687 385.55L300.289 418.787L342.873 436.67L337.083 459.571H314.812L317.522 448.824L295.285 438.623L289.307 462.298L297.416 473.513H347.823L361.588 462.298L369.988 429.05L327.414 411.153L333.205 388.258H355.474L352.698 399.23L374.959 409.36Z" fill="white"/>
<path fill-rule="evenodd" clip-rule="evenodd" d="M43.5581 438.623L52.6776 452.41L50.683 460.302L55.2607 466.501H90.8399L98.0275 460.934L109.867 462.298L96.0976 473.513H45.6842L37.5815 462.298L43.5581 438.623Z" fill="#B6B7B6"/>
<path fill-rule="evenodd" clip-rule="evenodd" d="M85.3634 459.571L98.0274 460.934L105.129 432.816L62.1411 414.765L69.1601 386.952L56.9615 385.55L48.5723 418.787L91.1408 436.67L85.3634 459.571Z" fill="#B6B7B6"/>
<path fill-rule="evenodd" clip-rule="evenodd" d="M111.474 381.291H76.5726L69.1602 386.952L81.4718 388.258H103.746L100.978 399.23L114.223 395.142L116.132 387.606L111.474 381.291Z" fill="#B6B7B6"/>
<path fill-rule="evenodd" clip-rule="evenodd" d="M295.285 438.623L304.4 452.41L302.407 460.302L306.984 466.501H342.563L349.743 460.934L361.588 462.298L347.823 473.513H297.416L289.307 462.298L295.285 438.623Z" fill="#B6B7B6"/>
<path fill-rule="evenodd" clip-rule="evenodd" d="M337.083 459.571L349.743 460.934L356.851 432.816L313.863 414.765L320.886 386.952L308.688 385.55L300.289 418.787L342.873 436.67L337.083 459.571Z" fill="#B6B7B6"/>
<path fill-rule="evenodd" clip-rule="evenodd" d="M363.198 381.291H328.295L320.886 386.952L333.205 388.258H355.474L352.698 399.23L365.954 395.142L367.856 387.61L363.198 381.291Z" fill="#B6B7B6"/>
<path fill-rule="evenodd" clip-rule="evenodd" d="M134.561 376.537L154.275 381.326L134.331 460.302L138.981 466.552H179.967L190.916 473.513H129.472L121.369 462.298L140.87 385.039L134.561 376.537Z" fill="#B6B7B6"/>
<path fill-rule="evenodd" clip-rule="evenodd" d="M190.678 374.745L201.612 381.291L179.967 466.552L169.257 459.571L190.678 374.745Z" fill="#B6B7B6"/>
<path fill-rule="evenodd" clip-rule="evenodd" d="M238.471 381.289L227.518 374.322L202.577 473.091H227.754L216.826 466.546L238.471 381.289Z" fill="#B6B7B6"/>
<path fill-rule="evenodd" clip-rule="evenodd" d="M264.16 466.512L284.11 387.535L279.457 381.289H238.471L249.181 388.258H271.568L250.146 473.091H281.849L283.871 471.288L264.16 466.512Z" fill="#B6B7B6"/>
<path fill-rule="evenodd" clip-rule="evenodd" d="M82.3119 344.605L75.7941 346.502L77.9324 337.761L83.9912 337.75L82.3119 344.605ZM70.406 332.743L69.7599 333.279L71.8603 336.023L65.5078 362.002H74.2863L74.9323 361.463L72.7498 358.96L74.463 351.94L88.0472 347.71L90.8398 336.286L88.1293 332.743H70.406Z" fill="white"/>
<path fill-rule="evenodd" clip-rule="evenodd" d="M143.16 332.743H136.665L134.089 343.273L127.71 344.805L130.655 332.743H121.907L121.257 333.279L123.357 336.023L117.01 362.002H123.505L126.334 350.43L132.681 349.016L129.507 362.002H138.266L138.91 361.463L136.747 358.96L143.16 332.743Z" fill="white"/>
<path fill-rule="evenodd" clip-rule="evenodd" d="M182.294 357.294H176.238L181.049 337.605H187.099L182.294 357.294ZM179.321 332.743L174.886 336.25L169.458 358.449L172.172 362.002H184.092L188.505 358.457L193.933 336.25L191.239 332.743H179.321Z" fill="white"/>
<path fill-rule="evenodd" clip-rule="evenodd" d="M295.057 336.25L292.331 332.743H276.612L269.46 362.002H275.961L281.919 337.605H288.232L282.269 362.002H291.025L291.669 361.463L289.505 358.96L295.057 336.25Z" fill="white"/>
<path fill-rule="evenodd" clip-rule="evenodd" d="M335.639 332.743H326.886L326.238 333.279L328.337 336.023L321.988 362.002H330.748L331.394 361.463L329.233 358.96L335.639 332.743Z" fill="white"/>
<path fill-rule="evenodd" clip-rule="evenodd" d="M382.68 359.117L379.202 347.687L390.78 332.743H384.521L377.794 341.779L375.49 332.743H366.744L366.082 333.267L369.645 335.89L372.949 347.795L361.954 362.002H368.277L374.688 353.414L376.898 362.002H385.653L386.309 361.463L382.68 359.117Z" fill="white"/>
<path fill-rule="evenodd" clip-rule="evenodd" d="M235.558 357.294H227.937L229.765 349.804L236.072 349.799L237.255 344.973L230.944 344.979L232.75 337.605H239.873L241.666 340.173L242.354 339.686L244.052 332.743H225.191L224.544 333.279L226.64 336.023L220.292 362.002H237.378L239.049 355.152L238.616 354.678L235.558 357.294Z" fill="white"/>
<path fill-rule="evenodd" clip-rule="evenodd" d="M85.3071 309.252L252.062 217.972L138.98 309.252L276.197 230.437L273.93 246.329L296.814 233.617L348.503 282.469L376.016 199.845L415.803 197.288L395.562 147.168L431.601 118.976L384.997 100.833L396.804 50.7176L357.139 68.8675L336.702 25.7515L304.943 57.4651L247.779 31.8224L239.911 82.8501L188.969 93.8891L219.115 112.046L188.786 127.259L214.545 129.492L108.561 211.9L215.169 155.287L100.8 242.316L222.543 178.886L92.5029 276.616L235.827 200.276L85.3071 309.252Z" fill="#ED992D"/>
<path fill-rule="evenodd" clip-rule="evenodd" d="M390.456 147.9C388.56 193.708 349.888 229.302 304.048 227.406C258.226 225.525 222.619 186.851 224.519 141.05C226.401 95.2382 265.093 59.6407 310.903 61.5339C356.736 63.4271 392.341 102.094 390.456 147.9Z" fill="#D75A29"/>
<path fill-rule="evenodd" clip-rule="evenodd" d="M317.653 216.089C271.839 214.185 236.218 175.517 238.115 129.715C238.976 108.517 247.74 89.5256 261.432 75.4106C240.12 89.6314 225.645 113.476 224.519 141.05C222.619 186.851 258.226 225.525 304.048 227.406C328.673 228.43 351.235 218.602 367.123 202.199C353.015 211.627 335.911 216.842 317.653 216.089Z" fill="#A75221"/>
<path fill-rule="evenodd" clip-rule="evenodd" d="M390.492 145.438C390.534 142.466 390.414 139.527 390.142 136.631C385.364 133.286 379.647 130.747 372.913 129.879C371.631 129.721 370.411 129.645 369.167 129.552C368.363 124.066 367.117 118.7 365.469 113.476C366.328 113.531 367.197 113.569 368.068 113.626C373.911 114.062 379.663 114.724 385.346 115.547C384.546 113.436 383.667 111.366 382.72 109.332C376.331 108.36 369.849 107.609 363.282 107.116H363.211C361.111 101.773 358.536 96.6304 355.533 91.7371C359.776 90.8603 363.56 89.1324 366.629 86.233C365.059 84.6447 363.426 83.1129 361.737 81.6529C359.065 84.1047 355.607 85.4045 351.65 85.9301C351.043 85.0842 350.442 84.2279 349.806 83.4096C344.16 76.0739 337.652 69.808 330.485 64.7104C324.239 62.9137 317.691 61.8069 310.903 61.5338C310.535 61.5174 310.162 61.5256 309.79 61.5082C322.403 66.4712 333.674 74.8028 342.738 85.962C334.097 85.1314 324.136 82.232 314.279 79.3449C311.366 78.4846 308.513 77.6437 305.749 76.8798C288.975 72.2505 276.071 71.5082 266.393 72.3439C259.202 76.4507 252.676 81.5985 247.027 87.5944C257.48 83.2351 278.575 75.7895 304.16 82.8696C306.883 83.6242 309.705 84.4456 312.575 85.2823C323.889 88.6108 336.585 92.3141 347.54 92.4312C350.562 96.9425 353.184 101.693 355.352 106.658C353.199 106.558 351.061 106.488 348.918 106.452C295.594 105.537 249.881 121.492 224.509 146.93C224.65 151.984 225.228 156.928 226.238 161.735C233.394 151.464 243.992 142.192 257.667 134.501C283.473 120.003 317.721 112.372 354.112 112.999C355.362 113.017 356.626 113.073 357.874 113.117C359.711 118.379 361.075 123.825 361.954 129.408C338.519 130.404 323.323 145.021 305.884 160.584C290.218 174.59 271.123 188.541 243.151 196.935C245.789 200.176 248.658 203.201 251.753 206.003C278.092 195.401 295.594 178.888 310.385 165.676C327.173 150.664 341.583 136.276 362.748 135.568C363.302 141.422 363.32 147.375 362.784 153.395C359.936 185.915 341.101 213.48 315.402 227.086C321.978 226.467 328.343 225.075 334.403 222.99C336.465 221.287 338.471 219.5 340.409 217.591C357.248 201.019 367.707 178.419 369.849 154.008C370.385 147.894 370.383 141.835 369.885 135.861C370.945 135.973 371.986 136.064 373.075 136.246C380.291 137.427 386.02 141.063 390.492 145.438Z" fill="#0F1216"/>
</svg>
