<svg width="500" height="500" viewBox="0 0 500 500" fill="none" xmlns="http://www.w3.org/2000/svg">
<mask id="mask0_10_2619" style="mask-type:alpha" maskUnits="userSpaceOnUse" x="159" y="40" width="195" height="216">
<path d="M159.307 40.1651H353.573V255.355H159.307V40.1651Z" fill="white"/>
</mask>
<g mask="url(#mask0_10_2619)">
<path fill-rule="evenodd" clip-rule="evenodd" d="M330.277 97.983C327.09 93.2682 323.432 88.8366 319.402 84.8048C317.652 83.0596 315.832 81.3811 313.94 79.7817L353.573 40.1638H238.107L193.54 84.7132L193.548 84.709C193.515 84.7423 193.482 84.7756 193.448 84.8048C189.419 88.8366 185.761 93.2682 182.573 97.983C179.357 102.744 176.594 107.829 174.365 113.106C169.719 124.081 167.365 135.739 167.365 147.76C167.365 159.776 169.719 171.438 174.365 182.413C176.594 187.69 179.357 192.775 182.573 197.536C185.761 202.251 189.419 206.682 193.448 210.71C195.202 212.464 197.032 214.146 198.932 215.75L159.307 255.355H274.744L319.494 210.623H319.49C323.486 206.62 327.115 202.213 330.277 197.536C333.494 192.775 336.257 187.69 338.49 182.413C343.132 171.438 345.486 159.776 345.486 147.76C345.486 135.739 343.132 124.081 338.49 113.106C336.257 107.829 333.494 102.744 330.277 97.983Z" fill="#051821"/>
</g>
<path fill-rule="evenodd" clip-rule="evenodd" d="M314.184 89.9257C312.439 88.1806 310.635 86.5312 308.776 84.9776L260.314 133.421C262.701 134.092 264.951 135.362 266.83 137.237L266.843 137.249C272.697 143.101 272.697 152.585 266.843 158.432L177.076 248.168H187.593L272.101 163.689C280.835 154.963 280.86 140.831 272.18 132.072L277.439 126.816C289.018 138.478 288.993 157.316 277.36 168.945L198.11 248.168H208.626L282.618 174.201C297.16 159.669 297.185 136.124 282.697 121.559L287.955 116.303C305.347 133.771 305.322 162.023 287.88 179.462L219.143 248.168H229.664L293.139 184.718C313.485 164.376 313.51 131.418 293.214 111.043L298.472 105.786C321.672 129.061 321.651 166.729 298.397 189.974L240.18 248.168H250.701L303.655 195.231C329.81 169.082 329.839 126.711 303.735 100.53L309.026 95.2403C338.055 124.342 338.03 171.452 308.947 200.524L261.285 248.168H271.805L314.205 205.777L314.184 205.756C346.184 173.772 346.184 121.913 314.184 89.9257Z" fill="#FEFEFE"/>
<path fill-rule="evenodd" clip-rule="evenodd" d="M198.717 205.664C200.463 207.409 202.267 209.059 204.125 210.612L252.588 162.168C250.2 161.498 247.95 160.228 246.071 158.353C246.067 158.349 246.063 158.345 246.058 158.341C240.204 152.489 240.204 143.005 246.058 137.157L335.946 47.3048H325.429L240.8 131.901C232.067 140.627 232.042 154.759 240.721 163.518L235.463 168.774C223.883 157.112 223.908 138.274 235.542 126.645L314.913 47.3048H304.396L230.283 121.389C215.742 135.92 215.717 159.465 230.204 174.031L224.946 179.287C207.554 161.819 207.579 133.567 225.021 116.128L293.879 47.3048H283.358L219.763 110.872C199.417 131.214 199.392 164.176 219.688 184.547L214.429 189.804C191.229 166.529 191.25 128.861 214.504 105.615L272.842 47.3048H262.325L209.246 100.359C183.092 126.507 183.063 168.878 209.167 195.06L203.875 200.349C174.846 171.248 174.871 124.137 203.954 95.0696L251.738 47.3048H241.221L198.696 89.8133L198.717 89.8341C166.717 121.822 166.717 173.677 198.717 205.664Z" fill="#E0393D"/>
<path fill-rule="evenodd" clip-rule="evenodd" d="M111.727 435.915H106.044V430.28H123.681V435.915H117.948V463.796H111.727V435.915Z" fill="#051821"/>
<path fill-rule="evenodd" clip-rule="evenodd" d="M131.793 430.28H145.739L149.823 434.357V446.115L146.464 449.418L150.21 463.796H143.893L140.489 450.097H138.06V463.796H131.793V430.28ZM142.193 445.291L143.552 443.883V436.498L142.193 435.09H138.06V445.291H142.193Z" fill="#051821"/>
<path fill-rule="evenodd" clip-rule="evenodd" d="M162.354 430.28H171.491L176.641 463.796H170.47L169.495 456.024H164.054L163.083 463.796H157.204L162.354 430.28ZM164.687 450.876H168.816L166.779 434.266L164.687 450.876Z" fill="#051821"/>
<path fill-rule="evenodd" clip-rule="evenodd" d="M183.683 459.035H187.425V435.04H183.683V430.279H197.433V435.04H193.691V459.035H197.433V463.795H183.683V459.035Z" fill="#051821"/>
<path fill-rule="evenodd" clip-rule="evenodd" d="M206.13 430.28H212.397V458.306H219.588V463.796H206.13V430.28Z" fill="#051821"/>
<path fill-rule="evenodd" clip-rule="evenodd" d="M241.111 430.28H254.765L258.849 434.357V443.25L255.495 446.598L258.849 449.951V459.714L254.765 463.796H241.111V430.28ZM251.024 444.17L252.578 442.571V436.644L251.22 435.286H247.378V444.17H251.024ZM251.22 458.79L252.578 457.432V450.73L251.024 449.127H247.378V458.79H251.22Z" fill="#051821"/>
<path fill-rule="evenodd" clip-rule="evenodd" d="M268.174 430.28H274.441V458.306H281.633V463.796H268.174V430.28Z" fill="#051821"/>
<path fill-rule="evenodd" clip-rule="evenodd" d="M293.683 430.28H302.816L307.97 463.796H301.799L300.824 456.024H295.383L294.412 463.796H288.533L293.683 430.28ZM296.016 450.876H300.145L298.104 434.266L296.016 450.876Z" fill="#051821"/>
<path fill-rule="evenodd" clip-rule="evenodd" d="M315.011 459.23L323.465 435.914H315.107V430.279H330.319V434.798L321.865 458.109H330.369V463.795H315.011V459.23Z" fill="#051821"/>
<path fill-rule="evenodd" clip-rule="evenodd" d="M339.061 430.28H353.786V435.769H345.327V443.979H353.006V449.464H345.327V458.306H353.881V463.796H339.061V430.28Z" fill="#051821"/>
<path fill-rule="evenodd" clip-rule="evenodd" d="M362.966 430.28H376.912L380.995 434.357V446.115L377.641 449.418L381.383 463.796H375.066L371.662 450.097H369.233V463.796H362.966V430.28ZM373.366 445.291L374.724 443.883V436.498L373.366 435.09H369.233V445.291H373.366Z" fill="#051821"/>
<path fill-rule="evenodd" clip-rule="evenodd" d="M389.348 459.716V453.739H395.568V457.288L396.977 458.645H399.214L400.573 457.288V450.778L399.506 449.711H392.943L389.493 446.263V434.359L393.577 430.281H402.714L406.793 434.359V440.336H400.527V436.837L399.164 435.429H397.123L395.714 436.837V443.056L396.785 444.122H403.393L406.843 447.571V459.716L402.76 463.793H393.427L389.348 459.716Z" fill="#051821"/>
<path fill-rule="evenodd" clip-rule="evenodd" d="M67.7958 301.782C67.7958 282.348 57.3292 275.809 36.7625 275.809H20.9833H16.0167H0L16.0167 291.819V408.857H35.8292V350.434H36.8583C56.8833 350.434 67.3042 344.211 67.7875 325.885L67.7958 325.881V301.782ZM35.9708 291.811H40.4C44.8833 291.811 47.8417 293.323 47.875 298.371V327.139C47.8958 331.978 46.4 334.511 39.4458 334.511H35.9708V291.811Z" fill="#051821"/>
<path fill-rule="evenodd" clip-rule="evenodd" d="M96.0473 299.895C96.0473 293.172 98.1056 291.681 102.214 291.681C106.135 291.681 108.189 293.172 108.189 299.895V384.766C108.189 391.484 106.135 392.979 102.214 392.979C98.1056 392.979 96.0473 391.484 96.0473 384.766V299.895ZM102.026 408.848C114.356 408.848 127.989 403.813 127.989 386.444V298.216C127.989 280.848 114.356 275.808 102.026 275.808C89.8848 275.808 76.2515 280.848 76.2515 298.216V386.444C76.2515 403.813 89.8848 408.848 102.026 408.848Z" fill="#051821"/>
<path fill-rule="evenodd" clip-rule="evenodd" d="M338.876 299.252H340.051L343.842 350.386H334.367L338.876 299.252ZM332.63 366.326H345.597L349.83 408.855H369.834L354.692 275.807H324.972L309.826 408.855H327.772L332.63 366.326Z" fill="#051821"/>
<mask id="mask1_10_2619" style="mask-type:alpha" maskUnits="userSpaceOnUse" x="445" y="275" width="53" height="134">
<path d="M497.016 408.859V275.806H445.234V408.859H497.016Z" fill="white"/>
</mask>
<g mask="url(#mask1_10_2619)">
<path fill-rule="evenodd" clip-rule="evenodd" d="M477.201 383.002C477.201 391.595 474.772 392.903 469.726 392.903H465.051V291.809H469.726C474.772 291.809 477.201 293.121 477.201 301.713V383.002ZM497.018 384.747V305.895C497.018 282.533 488.789 275.806 469.164 275.806H445.234V408.859H473.464C488.789 408.859 497.018 397.455 497.018 384.747Z" fill="#051821"/>
</g>
<path fill-rule="evenodd" clip-rule="evenodd" d="M156.287 291.715H161.003C165.487 291.715 168.503 293.227 168.533 298.275L168.478 325.764C168.503 330.604 166.999 334.344 160.049 334.344H156.287V291.715ZM156.428 350.309C165.599 349.913 168.662 353.124 168.637 361.155C168.628 388.052 168.637 408.853 168.637 408.853H188.003C188.003 408.853 188.403 394.554 188.003 356.081C187.878 344.082 180.399 342.287 180.399 342.287C189.07 338.542 188.099 334.269 188.078 324.36L187.995 298.637C187.953 281.444 178.649 275.863 162.666 275.863L136.424 275.809V408.853H156.428V350.309Z" fill="#051821"/>
<path fill-rule="evenodd" clip-rule="evenodd" d="M301.347 392.874H276.11V275.807H256.293V408.855H301.347V392.874Z" fill="#051821"/>
<path fill-rule="evenodd" clip-rule="evenodd" d="M210.86 291.814V408.852H230.677V291.814H247.873V275.808H182.644L198.685 291.814H210.86Z" fill="#051821"/>
<path fill-rule="evenodd" clip-rule="evenodd" d="M396.273 335.043L418.681 408.852H418.794H436.777V275.803H418.794V350.383L396.277 275.803H396.169H378.29V408.852H396.273V335.043Z" fill="#051821"/>
</svg>
