<svg width="500" height="500" viewBox="0 0 500 500" fill="none" xmlns="http://www.w3.org/2000/svg">
<mask id="mask0_10_2805" style="mask-type:alpha" maskUnits="userSpaceOnUse" x="31" y="0" width="438" height="500">
<path d="M31 499.948H468.904V0H31V499.948Z" fill="white"/>
</mask>
<g mask="url(#mask0_10_2805)">
<path fill-rule="evenodd" clip-rule="evenodd" d="M468.904 0L406.232 62.9705L353.855 10.6155L301.239 62.9766L248.95 10.6155L196.679 62.9705L144.375 10.6155L92.1144 62.9965L31 1.25608V280.074C31 401.337 128.2 500 249.288 500C370.403 500 468.904 401.337 468.904 280.074V0Z" fill="white"/>
</g>
<path fill-rule="evenodd" clip-rule="evenodd" d="M50.5469 318.263C55.7239 344.523 65.9523 369.195 81.0325 391.669C90.1403 375.686 108.359 355.83 144.143 347.393C141.394 338.199 138.946 328.42 136.868 318.263H50.5469Z" fill="#575F64"/>
<path fill-rule="evenodd" clip-rule="evenodd" d="M95.3115 410.562C133.982 455.921 189.664 482.069 248.366 482.454C242.831 479.624 237.414 476.508 232.203 473.154C207.32 457.057 173.11 425.728 151.02 367.648C116.253 375.234 101.537 394.957 95.3115 410.562Z" fill="#575F64"/>
<path fill-rule="evenodd" clip-rule="evenodd" d="M172.44 364.602C188.118 404.049 211.807 434.362 242.897 454.709C263.454 468.181 283.154 474.306 296.143 477.083C328.647 469.49 359.007 453.813 384.137 431.651C364.311 429.479 343.981 418.059 322.521 406.016C289.015 387.195 247.291 363.772 190.959 363.772C184.872 363.772 178.66 364.064 172.44 364.602Z" fill="#575F64"/>
<path fill-rule="evenodd" clip-rule="evenodd" d="M257.146 215.659H184.704V301.978H214.799V232.737H237.406V301.978H266.087V227.748C266.087 221.172 262.071 215.659 257.146 215.659Z" fill="#4E2A6C"/>
<path fill-rule="evenodd" clip-rule="evenodd" d="M278.767 215.659V289.707C278.767 296.298 282.749 301.978 287.661 301.978H335.099H360.03V249.57L331.137 249.537V284.878H308.536V232.319H360.03V215.659H278.767Z" fill="#4E2A6C"/>
<path fill-rule="evenodd" clip-rule="evenodd" d="M104.613 215.659L88.2444 250.517H78.7931V215.659H48.8374V301.978H78.7931V267.244H88.2444L104.613 301.978H134.541L113.434 258.881L134.541 215.659H104.613Z" fill="#4E2A6C"/>
<path fill-rule="evenodd" clip-rule="evenodd" d="M142.512 301.978H173.523V215.659H142.512V301.978Z" fill="#4E2A6C"/>
<path fill-rule="evenodd" clip-rule="evenodd" d="M451.148 239.003V215.659H371.637V255.092C371.637 261.669 375.626 267.01 380.525 267.01H421.04V285.823H371.637V301.978H451.188V262.353C451.188 256.221 447.803 250.462 443.249 250.462H401.479V232.386H422.374V239.003H451.148Z" fill="#4E2A6C"/>
<path fill-rule="evenodd" clip-rule="evenodd" d="M366.558 128.113H341.17L393.533 75.6797L353.854 36.0339L301.239 88.388L248.95 36.0339L157.018 128.113H131.63L183.907 75.5998L144.375 36.0339L92.1144 88.388L48.8408 45.3932V199.819H451.14V43.4011L366.558 128.113Z" fill="#4E2A6C"/>
<path fill-rule="evenodd" clip-rule="evenodd" d="M136.725 183.227C136.725 185.466 138.549 187.293 140.773 187.293H163.381V181.214H144.955V161.497H163.381V155.432H136.725V183.227Z" fill="white"/>
<path fill-rule="evenodd" clip-rule="evenodd" d="M108.091 172.898H118.292V161.505H108.091V172.898ZM99.8667 155.432V187.293H108.091V178.957H118.292V187.293H126.523V159.492C126.523 157.108 124.608 155.432 122.003 155.432H99.8667Z" fill="white"/>
<path fill-rule="evenodd" clip-rule="evenodd" d="M417.77 181.169H427.932V161.492H417.77V181.169ZM432.161 155.432H413.509C411.292 155.432 409.474 157.24 409.474 159.465V183.228C409.474 185.454 411.292 187.293 413.509 187.293H432.161C434.384 187.293 436.196 185.44 436.196 183.215V159.465C436.196 157.24 434.384 155.432 432.161 155.432Z" fill="white"/>
<path fill-rule="evenodd" clip-rule="evenodd" d="M62.979 170.339C62.979 172.572 64.8047 174.392 67.0346 174.392H81.4054V181.214H62.979V187.293H89.6354V172.372C89.6354 170.3 88.089 168.566 86.0178 168.347L85.7923 168.327H71.1969V161.498H89.6354V155.432H62.979V170.339Z" fill="white"/>
<path fill-rule="evenodd" clip-rule="evenodd" d="M218.001 172.898H228.203V161.505H218.001V172.898ZM232.365 155.432H209.771V187.293H218.001V178.957H228.203V187.293H236.44V159.492C236.44 157.26 234.609 155.432 232.365 155.432Z" fill="white"/>
<path fill-rule="evenodd" clip-rule="evenodd" d="M373.614 161.49H382.847V187.293H391.058V161.49H400.277V155.432H373.614V161.49Z" fill="white"/>
<path fill-rule="evenodd" clip-rule="evenodd" d="M288.286 155.432H247.358V187.293H255.589V161.5H265.678V187.293H274.021V161.5H284.104V187.293H292.335V159.488C292.335 157.262 290.509 155.432 288.286 155.432Z" fill="white"/>
<path fill-rule="evenodd" clip-rule="evenodd" d="M361.221 155.432H338.626V187.293H346.85V161.5H357.051V187.293H365.282V159.488C365.282 157.262 363.458 155.432 361.221 155.432Z" fill="white"/>
<path fill-rule="evenodd" clip-rule="evenodd" d="M303.541 183.227C303.541 185.466 305.353 187.293 307.59 187.293H330.177V181.214H311.771V174.385H330.177V168.333H311.771V161.497H330.177V155.432H303.541V183.227Z" fill="white"/>
<path fill-rule="evenodd" clip-rule="evenodd" d="M181.076 169.643H191.278V161.498H181.076V169.643ZM195.109 175.701H199.508V159.486C199.508 157.108 197.555 155.432 194.989 155.432H172.852V187.293H181.076V175.701H187.043L191.969 187.293H199.986L195.109 175.701Z" fill="white"/>
<path fill-rule="evenodd" clip-rule="evenodd" d="M186.567 342.706C229.428 341.834 271.815 352.576 325.902 383.421C365.878 406.22 383.444 413.135 395.431 410.183C406.475 407.464 416.722 400.935 434.798 362.696C441.698 348.102 446.654 330.804 449.063 318.273L158.281 318.272C160.305 327.087 162.293 335.856 164.953 343.922C171.991 343.131 179.268 342.706 186.567 342.706Z" fill="#575F64"/>
</svg>
