<svg width="500" height="500" viewBox="0 0 500 500" fill="none" xmlns="http://www.w3.org/2000/svg">
<path fill-rule="evenodd" clip-rule="evenodd" d="M483.697 204.191C485.321 198.628 487.846 189.986 487.846 189.986L469.115 182.403C468.317 182.078 467.49 181.75 466.679 181.427L469.936 171.955L452.16 166.223C453.557 161.512 454.379 158.724 454.407 158.621L456.487 151.531L449.483 149.156C383.248 126.709 321.723 116.698 249.983 116.698C178.267 116.698 116.751 126.709 50.5183 149.156L43.5135 151.531L45.5929 158.621C45.6238 158.724 46.4413 161.512 47.8421 166.223L30.0643 171.955L33.323 181.43C32.5111 181.754 31.6937 182.072 30.8833 182.403L12.1508 189.986C12.1508 189.986 14.6738 198.628 16.3 204.191C11.0198 206.09 0 210.054 0 210.054L40.2127 332.501C40.2127 332.501 50.9119 328.651 56.8421 326.521C59.2635 332.877 62.2095 340.602 62.2095 340.602L83.4635 331.846C84.1437 331.566 84.8135 331.308 85.4905 331.031L87.6968 337.952L95.4778 334.509C101.85 331.778 121.357 323.84 147.948 316.843C138.503 330.9 128.477 345.824 128.477 345.824C128.477 345.824 183.835 327.745 189.304 325.958C191.275 330.701 213.445 384 213.445 384C213.445 384 229.502 328.909 231.001 323.772C235.464 324.923 300.363 341.604 300.363 341.604C300.363 341.604 281.952 320.351 268.413 304.725C331.007 305.241 387.583 327.254 404.52 334.509L412.335 337.855L414.506 331.031C415.185 331.308 415.855 331.566 416.536 331.846L437.79 340.602C437.79 340.602 440.737 332.877 443.156 326.521C449.088 328.651 459.784 332.501 459.784 332.501L500 210.054C500 210.054 488.977 206.09 483.697 204.191Z" fill="#C1C9CA"/>
<path fill-rule="evenodd" clip-rule="evenodd" d="M473.712 209.27C473.873 208.724 477.945 194.775 477.945 194.775L466.043 189.961C462.996 188.725 459.917 187.521 456.829 186.337L460.083 176.878L442.612 171.248C445.34 162.121 447.002 156.457 447.002 156.457C385.963 135.767 325.697 124.406 249.983 124.406C174.273 124.406 114.037 135.767 52.9974 156.457C52.9974 156.457 54.6577 162.127 57.3855 171.248L39.9156 176.878L43.1712 186.337C40.0775 187.521 37.0006 188.725 33.9498 189.961L22.0529 194.775C22.0529 194.775 26.126 208.726 26.2847 209.27C25.3188 209.615 10.2275 215.046 10.2275 215.046L45.3498 321.987C45.3498 321.987 60.9386 316.382 61.6156 316.145L66.8498 329.871L80.3498 324.308C83.641 322.948 86.9133 321.646 90.1783 320.372C91.3752 324.141 92.1712 326.626 92.4379 327.423C100.117 324.134 127.486 312.939 163.77 305.085C155.456 317.462 144.583 333.647 144.583 333.647C144.583 333.647 192.296 318.063 193.043 317.818C193.409 318.699 212.351 364.235 212.351 364.235C212.351 364.235 226.184 316.778 226.462 315.819C227.656 316.125 281.6 329.993 281.6 329.993C281.6 329.993 263.886 309.543 253.28 297.306C326.682 293.747 394.586 321.868 407.561 327.423C407.825 326.626 408.623 324.141 409.822 320.372C413.085 321.646 416.358 322.948 419.65 324.308L433.15 329.871L438.383 316.145C439.062 316.382 454.645 321.987 454.645 321.987L489.773 215.046C489.773 215.046 474.679 209.615 473.712 209.27Z" fill="#0F1216"/>
<path fill-rule="evenodd" clip-rule="evenodd" d="M38.4801 201.122C38.4801 201.122 37.5801 201.489 36.6778 201.852C37.5262 204.756 41.0357 216.766 41.0357 216.766C41.0357 216.766 28.4095 221.307 25.3389 222.413C26.5857 226.201 51.627 302.451 52.9405 306.451C56.1397 305.305 68.669 300.803 68.669 300.803C68.669 300.803 72.5659 311.018 73.7071 314.013C74.7301 313.59 75.7524 313.167 75.7524 313.167C135.46 288.563 190.831 277.098 250 277.098C309.167 277.098 364.535 288.563 424.248 313.167C424.248 313.167 425.272 313.59 426.291 314.013C427.433 311.018 431.329 300.803 431.329 300.803C431.329 300.803 443.859 305.305 447.058 306.451C448.373 302.451 473.415 226.201 474.661 222.413C471.59 221.307 458.963 216.766 458.963 216.766C458.963 216.766 462.472 204.756 463.319 201.852C462.417 201.489 461.516 201.122 461.516 201.122C396.344 174.724 321.323 160.188 250.271 160.188C178.871 160.188 103.656 174.724 38.4801 201.122Z" fill="white"/>
<path fill-rule="evenodd" clip-rule="evenodd" d="M442.958 298.069C438.462 296.455 427.522 292.521 427.522 292.521C427.522 292.521 424.033 301.663 422.556 305.539C363.631 281.775 308.657 270.595 250 270.595C191.342 270.595 136.369 281.775 77.4422 305.539C75.9652 301.663 72.4795 292.521 72.4795 292.521C72.4795 292.521 61.5382 296.455 57.0406 298.069C54.6668 290.848 35.7469 233.24 33.4985 226.391C37.9239 224.796 48.9985 220.817 48.9985 220.817C48.9985 220.817 45.8311 209.967 44.5922 205.721C108.158 180.556 181.016 166.693 250.272 166.693C319.185 166.693 391.85 180.556 455.406 205.721C454.169 209.967 451 220.817 451 220.817C451 220.817 462.076 224.796 466.499 226.391C464.253 233.24 445.332 290.848 442.958 298.069Z" fill="#C1C9CA"/>
<path fill-rule="evenodd" clip-rule="evenodd" d="M339.407 214.598L316.389 210.761L317.051 206.801L340.067 210.639L339.407 214.598ZM358.828 258.776L368.745 202.795C368.749 202.789 368.921 200.868 368.921 200.868C368.947 198.29 368.163 195.805 366.645 193.674C364.751 191.004 361.928 189.234 358.697 188.691L295.709 178.033L291.323 203.891C291.323 203.891 282.925 253.418 282.505 255.888C286.036 256.488 307.691 260.152 311.213 260.747C311.839 257.11 315.655 234.93 315.655 234.93L333.441 237.938L333.069 240.118C333.069 240.118 330.624 254.965 330.502 255.924C330.056 259.409 330.762 260.412 331.781 261.908C332.821 263.432 334.599 264.487 336.769 265.072C336.513 265.018 366.527 272.325 366.527 272.325L358.828 258.776Z" fill="white"/>
<path fill-rule="evenodd" clip-rule="evenodd" d="M91.4889 260.295L90.2342 256.482L111.055 249.642L112.31 253.457L91.4889 260.295ZM83.4882 236.248L82.235 232.433L103.056 225.595L104.312 229.408L83.4882 236.248ZM140.559 257.363L123.716 205.569C121.625 199.146 114.693 195.617 108.264 197.704L108.279 197.696L60.9961 213.045C57.881 214.058 55.3477 216.222 53.858 219.136C52.9651 220.885 52.5151 222.75 52.5151 224.684C52.5151 225.964 52.7207 227.245 53.1223 228.485L69.9675 280.281C72.058 286.71 78.9881 290.236 85.4191 288.149C85.4191 288.149 85.2643 288.211 85.181 288.245C85.581 288.095 89.0882 286.956 132.687 272.804C137.756 271.156 141.16 266.472 141.16 261.147C141.16 259.864 140.959 258.592 140.559 257.363Z" fill="white"/>
<path fill-rule="evenodd" clip-rule="evenodd" d="M158.179 215.163L157.421 211.218L180.344 206.827L181.1 210.768L158.179 215.163ZM209.942 217.589C209.949 217.625 204.6 189.819 204.6 189.819C203.992 186.609 202.166 183.833 199.46 181.991C196.752 180.149 193.491 179.465 190.269 180.077C190.269 180.077 131.549 191.208 127.497 191.974C128.054 194.899 139.407 254.754 139.407 254.754L142.219 269.554C142.219 269.554 167.318 264.802 170.838 264.133C170.149 260.502 165.947 238.394 165.947 238.394L200.176 231.912C203.395 231.297 206.184 229.473 208.028 226.771C209.496 224.615 210.234 222.112 210.156 219.532L209.942 217.589Z" fill="white"/>
<path fill-rule="evenodd" clip-rule="evenodd" d="M191.922 245.809C192.006 247.81 193.648 270.022 193.648 270.022C193.648 270.022 166.897 271.138 163.341 271.285C166.244 273.329 187.814 288.498 187.814 288.498C187.814 288.498 172.767 310.907 170.806 313.82C174.139 312.73 199.136 304.566 199.136 304.566C199.136 304.566 209.25 328.889 210.57 332.063C211.533 328.755 219.08 302.868 219.08 302.868C219.08 302.868 247.304 310.122 251.053 311.086C248.534 308.179 230.237 287.059 230.237 287.059C230.237 287.059 252.433 268.15 255.034 266.005C251.959 265.986 237.891 265.782 237.891 265.782L241.502 261.832H264.948L292.67 212.75V177.578H268.289L257.669 196.383C257.669 196.383 256.506 205.844 256.26 207.865C255.259 209.642 246.996 224.345 244.301 229.142H240.398C244.5 221.9 249.861 212.424 249.861 212.424V177.578H224.758L214.525 196.331C214.525 196.331 213.451 205.832 213.217 207.895C212.169 209.76 191.922 245.809 191.922 245.809Z" fill="white"/>
<path fill-rule="evenodd" clip-rule="evenodd" d="M272.107 184.111L264.003 198.465L262.592 209.94L248.125 235.679H229.186L243.324 210.706V184.111H228.641L220.881 198.337L219.567 209.94L198.946 246.652L202.399 255.3H215.238L209.394 270.087L198.455 258.263L199.741 275.618L180.785 276.408L195.862 287.016L185.121 302.997L202.458 297.334L209.598 314.493L215.046 295.799L234.377 300.767L221.896 286.362L237.255 273.689L221.401 274.669L238.555 255.3H261.132L286.134 211.037V184.111H272.107Z" fill="#0F1216"/>
<path fill-rule="evenodd" clip-rule="evenodd" d="M417.471 235.734L396.645 228.892L397.902 225.078L418.726 231.922L417.471 235.734ZM409.466 259.781L388.65 252.943L389.907 249.129L410.722 255.969L409.466 259.781ZM445.911 218.858C444.422 215.938 441.889 213.776 438.774 212.765L391.51 197.421C388.394 196.412 385.067 196.673 382.148 198.16C379.231 199.645 377.066 202.179 376.056 205.292L359.209 257.085C358.806 258.333 358.604 259.611 358.604 260.884C358.604 262.794 359.058 264.685 359.948 266.432C361.435 269.351 363.968 271.512 367.083 272.523L414.346 287.865C417.46 288.881 420.785 288.617 423.706 287.131C426.622 285.649 428.793 283.115 429.802 279.999L446.648 228.207C447.053 226.959 447.256 225.677 447.256 224.404C447.256 222.497 446.805 220.602 445.911 218.858Z" fill="white"/>
<path fill-rule="evenodd" clip-rule="evenodd" d="M274.085 187.966L269.072 196.915H275.921L280.687 187.966H274.085Z" fill="#C1C9CA"/>
<path fill-rule="evenodd" clip-rule="evenodd" d="M238.085 187.966L230.977 187.971L226.011 196.929L233.387 196.912L238.085 187.966Z" fill="#C1C9CA"/>
<path fill-rule="evenodd" clip-rule="evenodd" d="M207.908 287.684C206.546 287.684 205.441 286.58 205.441 285.221C205.441 283.856 206.546 282.754 207.908 282.754C209.268 282.754 210.379 283.856 210.379 285.221C210.379 286.58 209.268 287.684 207.908 287.684ZM250.754 239.154H214.78L229.772 212.787H222.725L204.626 244.7H224.698L210.016 278.172L203.395 271.017L204.06 280.043L194.202 280.453L202.044 285.972L196.46 294.276L205.474 291.335L209.187 300.26L212.019 290.536L222.073 293.119L215.581 285.631L223.572 279.039L212.365 279.73H211.587L234.795 244.7H254.902L272.691 212.787H265.75L250.754 239.154Z" fill="#C1C9CA"/>
<path fill-rule="evenodd" clip-rule="evenodd" d="M231.526 200.526H225.089L224.259 208.19L230.906 208.206L231.526 200.526Z" fill="#C1C9CA"/>
<path fill-rule="evenodd" clip-rule="evenodd" d="M267.176 208.19L273.826 208.206L274.444 200.526H268.008L267.176 208.19Z" fill="#C1C9CA"/>
<path fill-rule="evenodd" clip-rule="evenodd" d="M80.2293 172.479C81.1181 175.797 83.0451 176.141 87.3181 174.999L93.0054 173.473C99.2428 171.806 100.455 170.754 99.3523 166.635C98.157 162.181 96.3451 162.188 89.0594 164.166C84.0324 165.532 83.4507 165.641 83.092 164.309C82.8705 163.485 83.4959 162.937 84.5507 162.654L89.7531 161.262C91.9086 160.685 92.1602 161.114 92.4594 162.236L97.1539 160.978L97.0237 160.494C96.3039 157.81 95.3031 156.106 89.892 157.554L83.3388 159.308C77.4197 160.895 77.7372 163.097 78.4793 165.862C79.4872 169.621 80.5158 170.251 87.5777 168.362C93.6261 166.743 94.1983 166.682 94.5539 168.01C94.8705 169.197 93.8824 169.572 92.8912 169.838L87.1404 171.378C85.788 171.741 85.0983 171.789 84.6404 170.168L79.9483 171.425L80.2293 172.479Z" fill="white"/>
<path fill-rule="evenodd" clip-rule="evenodd" d="M122.819 153.55L127.14 158.713L121.058 160.002L122.819 153.55ZM113.875 167.879L119.182 166.75L119.994 163.716L129.624 161.674L131.686 164.096L136.974 162.972L125.159 149.3L118.973 150.61L113.875 167.879Z" fill="white"/>
<path fill-rule="evenodd" clip-rule="evenodd" d="M150.756 160.547L155.557 159.789L153.755 148.431L153.798 148.422L164.617 158.357L172.052 157.18L169.572 141.547L164.773 142.304L166.572 153.663L166.531 153.668L155.714 143.737L148.28 144.913L150.756 160.547Z" fill="white"/>
<path fill-rule="evenodd" clip-rule="evenodd" d="M212.413 141.55L215.871 147.323L209.666 147.649L212.413 141.55ZM201.334 154.306L206.754 154.019L208.028 151.149L217.863 150.635L219.519 153.351L224.917 153.069L215.39 137.715L209.071 138.044L201.334 154.306Z" fill="white"/>
<path fill-rule="evenodd" clip-rule="evenodd" d="M238.901 152.623H243.76V141.119H243.803L252.931 152.623H260.459V136.792H255.603V148.293H255.559L246.428 136.792H238.901V152.623Z" fill="white"/>
<path fill-rule="evenodd" clip-rule="evenodd" d="M275.464 141.009L282.283 141.363L281.664 153.244L286.515 153.495L287.138 141.617L293.957 141.975L294.163 138.044L275.671 137.078L275.464 141.009Z" fill="white"/>
<path fill-rule="evenodd" clip-rule="evenodd" d="M313.207 146.809C313.411 144.852 314.018 143.704 316.566 143.973L322.222 144.565C324.772 144.833 325.122 146.08 324.917 148.041L324.74 149.735C324.498 152.021 323.929 152.837 321.643 152.598L315.464 151.948C313.176 151.709 312.787 150.788 313.03 148.503L313.207 146.809ZM307.907 149.486C307.42 154.095 309.899 155.449 314.252 155.908L321.999 156.724C326.353 157.18 329.055 156.368 329.539 151.756L330.034 147.057C330.519 142.45 328.045 141.088 323.695 140.63L315.944 139.822C311.592 139.363 308.886 140.176 308.404 144.789L307.907 149.486Z" fill="white"/>
<path fill-rule="evenodd" clip-rule="evenodd" d="M344.076 159.445L348.862 160.285L350.864 148.962L350.904 148.97L357.893 161.879L365.31 163.185L368.061 147.592L363.275 146.751L361.278 158.079L361.231 158.071L354.239 145.16L346.831 143.855L344.076 159.445Z" fill="white"/>
<path fill-rule="evenodd" clip-rule="evenodd" d="M380.727 166.29L385.481 167.299L388.775 151.814L384.022 150.804L380.727 166.29Z" fill="white"/>
<path fill-rule="evenodd" clip-rule="evenodd" d="M407.591 163.796C408.102 161.893 408.878 160.855 411.351 161.52L416.848 162.993C419.321 163.655 419.475 164.939 418.967 166.84L418.523 168.488C417.928 170.702 417.237 171.424 415.017 170.83L409.012 169.22C406.795 168.629 406.554 167.658 407.148 165.441L407.591 163.796ZM401.939 165.608C400.738 170.088 402.971 171.817 407.197 172.949L414.724 174.962C418.953 176.094 421.752 175.712 422.952 171.235L424.175 166.671C425.378 162.196 423.146 160.468 418.917 159.333L411.39 157.317C407.161 156.187 404.365 156.57 403.163 161.048L401.939 165.608Z" fill="white"/>
<path fill-rule="evenodd" clip-rule="evenodd" d="M163.228 258.955L147.4 261.956L135.106 197.152L191.483 186.469C194.606 185.873 197.614 187.925 198.206 191.046L203.544 218.8C204.137 221.921 202.087 224.929 198.964 225.519L158.336 233.219L163.228 258.955ZM155.682 219.244L184.015 213.873C185.263 213.635 186.084 212.432 185.847 211.189L184.53 204.604C184.292 203.358 183.088 202.538 181.841 202.775L153.578 208.132L155.682 219.244ZM362.325 201.73C362.854 198.601 360.747 195.635 357.611 195.106L301.044 185.533L290.009 250.565L305.898 253.252L310.339 227.433L330.826 230.898L338.695 232.23C339.947 232.44 340.794 233.627 340.583 234.878L337.219 254.324C336.525 258.434 338.885 258.685 339.916 258.891C341.064 259.117 353.54 261.31 353.54 261.31C353.164 260.913 352.395 259.513 353.018 256.702L356.945 233.861C357.282 231.603 356.194 229.646 354.311 228.752C356.976 228.468 358.197 226.392 358.579 224.224L358.915 222.241L362.325 201.73ZM312.714 213.407L341.072 218.205C342.326 218.413 343.513 217.572 343.729 216.322L344.782 209.695C344.995 208.44 344.152 207.254 342.898 207.04L314.54 202.246L312.714 213.407ZM412.466 253.069C413.672 253.459 414.261 254.981 413.87 256.194L411.758 262.679C411.368 263.888 410.071 264.551 408.86 264.155L385.506 256.573C384.298 256.183 383.637 254.887 384.033 253.681L385.369 249.561L370.11 244.61L365.403 259.095C364.418 262.118 366.073 265.359 369.095 266.34L416.361 281.68C419.383 282.662 422.629 281.007 423.612 277.993L432.545 250.523C433.529 247.499 431.872 244.259 428.852 243.279L399.028 233.599L393.559 231.823C392.348 231.427 391.686 230.131 392.082 228.925L394.168 222.501C394.562 221.29 395.858 220.633 397.07 221.025L420.419 228.603C421.631 228.995 422.292 230.294 421.896 231.505L420.605 235.162L435.923 240.135L440.456 226.194C441.438 223.173 439.786 219.932 436.76 218.953L389.496 203.607C386.475 202.627 383.226 204.279 382.247 207.298L373.447 234.36C372.462 237.379 374.117 240.62 377.141 241.602L395.179 247.46L412.466 253.069ZM93.4048 251.368L75.362 257.227C72.3421 258.209 69.0961 256.554 68.1128 253.533L67.4032 251.347L59.3143 226.476C58.3318 223.458 59.9842 220.211 63.008 219.233L110.274 203.891C113.297 202.908 116.542 204.561 117.523 207.58L122.056 221.52L106.833 226.462L105.632 222.77C105.241 221.565 103.939 220.903 102.733 221.295L79.381 228.873C78.1715 229.27 77.5104 230.564 77.9048 231.774L79.9937 238.197C80.3858 239.402 81.6842 240.064 82.8905 239.673L118.186 228.216C121.207 227.235 124.452 228.887 125.437 231.906L126.323 234.64L134.371 259.378C135.352 262.395 133.698 265.637 130.677 266.619L83.4096 281.963C80.3858 282.943 77.1413 281.295 76.1596 278.272L71.4469 263.785L86.7048 258.833L88.0445 262.95C88.4366 264.158 89.7334 264.82 90.9413 264.428L114.294 256.847C115.503 256.453 116.164 255.158 115.769 253.951L113.66 247.46C113.268 246.253 111.896 245.367 110.688 245.76L93.4048 251.368Z" fill="#0F1216"/>
</svg>
