<svg width="500" height="500" viewBox="0 0 500 500" fill="none" xmlns="http://www.w3.org/2000/svg">
<path fill-rule="evenodd" clip-rule="evenodd" d="M422.024 333.163L473.75 214.439L233.17 214.453L223.095 237.456L216.112 214.439L167.944 214.453C167.944 214.453 136.167 286.959 127.055 307.772C127.921 303.591 128.365 299.261 128.365 294.824C128.365 294.227 128.336 293.634 128.314 293.04C131.866 284.911 159.974 220.521 165.663 207.491H297.777L326.114 142.583H169.721L118.296 260.329C106.891 242.487 86.9271 230.648 64.1797 230.648C28.7326 230.648 0 259.375 0 294.824C0 330.274 28.7326 359 64.1797 359C85.7396 359 104.797 348.366 116.438 332.065L105.498 357.274H131.762L147.26 321.732H176.903L187.602 357.274H464.468L475.034 333.163H422.024ZM157.821 297.621L164.827 281.626L169.643 297.621H157.821ZM249.781 325.414L223.424 238.549H287.832C268.855 281.843 257.087 308.696 249.781 325.414ZM349.251 333.163H318.947L360.173 238.549H390.688C368.45 289.28 356.104 317.445 349.251 333.163Z" fill="white"/>
<path fill-rule="evenodd" clip-rule="evenodd" d="M3.96631 297.696C4.71718 313.554 11.5852 327.789 22.2441 338.142C33.5983 328.146 41.0149 313.782 41.8109 297.696H3.96631Z" fill="#111B2B"/>
<path fill-rule="evenodd" clip-rule="evenodd" d="M47.1053 297.696C46.3214 315.133 38.4151 330.744 26.2285 341.69C35.9533 349.587 48.1686 354.543 61.5428 355.118V297.696H47.1053Z" fill="#ED9B2D"/>
<path fill-rule="evenodd" clip-rule="evenodd" d="M3.94775 292.397H41.8167C41.1422 276.139 33.703 261.602 22.2498 251.515C11.4903 261.963 4.58404 276.362 3.94775 292.397Z" fill="#111B2B"/>
<path fill-rule="evenodd" clip-rule="evenodd" d="M26.2368 247.966C38.5189 259.002 46.4451 274.784 47.1162 292.397H61.5406V234.531C48.1674 235.11 35.9538 240.064 26.2368 247.966Z" fill="#ED9B2D"/>
<path fill-rule="evenodd" clip-rule="evenodd" d="M124.416 297.696H86.5737C87.3697 313.782 94.7881 328.146 106.143 338.142C116.799 327.789 123.672 313.554 124.416 297.696Z" fill="#111B2B"/>
<path fill-rule="evenodd" clip-rule="evenodd" d="M81.2776 297.696H66.8384V355.118C80.2116 354.543 92.4321 349.587 102.152 341.69C89.9695 330.744 82.0693 315.133 81.2776 297.696Z" fill="#2A4832"/>
<path fill-rule="evenodd" clip-rule="evenodd" d="M102.146 247.966C92.4253 240.064 80.2118 235.11 66.8394 234.531V292.397H81.2699C81.9409 274.784 89.8654 259.002 102.146 247.966Z" fill="#2A4832"/>
<path fill-rule="evenodd" clip-rule="evenodd" d="M172.21 146.4L118.652 269.037C115.532 262.465 111.296 256.523 106.135 251.516C94.6831 261.601 87.2456 276.134 86.5659 292.397H124.44L163.167 203.677H276.298L301.302 146.4H172.21Z" fill="#111B2B"/>
<path fill-rule="evenodd" clip-rule="evenodd" d="M295.279 203.676L320.288 146.398H309.627L284.62 203.676H295.279Z" fill="#2A4832"/>
<path fill-rule="evenodd" clip-rule="evenodd" d="M190.436 353.457H235.482L194.782 218.269H170.437L111.198 353.457H129.193C129.193 353.457 135.884 338.182 144.763 317.916H179.743L190.436 353.457ZM151.982 301.437C156.41 291.329 161.06 280.727 165.492 270.608L174.776 301.437H151.982Z" fill="#111B2B"/>
<path fill-rule="evenodd" clip-rule="evenodd" d="M239.589 339.85L245.862 325.638L213.279 218.253H202.619L239.589 339.85Z" fill="#2A4832"/>
<path fill-rule="evenodd" clip-rule="evenodd" d="M396.855 336.977L448.876 218.269L373.17 218.253L365.995 234.733H396.523C380.727 270.766 344.497 353.447 344.497 353.447L461.974 353.458L469.198 336.977H396.855Z" fill="#111B2B"/>
<path fill-rule="evenodd" clip-rule="evenodd" d="M316.446 329.353L364.855 218.253H354.193L305.788 329.353H316.446Z" fill="#2A4832"/>
<path fill-rule="evenodd" clip-rule="evenodd" d="M419.518 329.353L467.924 218.253H457.265L408.86 329.353H419.518Z" fill="#2A4832"/>
<path fill-rule="evenodd" clip-rule="evenodd" d="M346.021 218.269H235.667L228.452 234.733H293.67C277.873 270.768 241.641 353.447 241.641 353.447L336.82 353.457L343.97 336.976H294.007L346.021 218.269Z" fill="#111B2B"/>
<path fill-rule="evenodd" clip-rule="evenodd" d="M340.407 194.831H326.348L347.757 146.389H337.429L315.287 196.491C313.554 200.41 315.33 203.59 319.25 203.59H339.616C343.537 203.59 348.12 200.41 349.852 196.491L371.995 146.389H361.817L340.407 194.831Z" fill="#111B2B"/>
<path fill-rule="evenodd" clip-rule="evenodd" d="M417.459 146.389H381.461L377.59 155.149L391.573 155.151L370.165 203.59H380.492L401.899 155.153L413.55 155.155L417.459 146.389Z" fill="#111B2B"/>
<path fill-rule="evenodd" clip-rule="evenodd" d="M431.9 160.631L425.86 185.661H415.894L431.9 160.631ZM443.566 146.389H433.372L394.471 203.59H404.197L409.919 194.874H423.617L421.632 203.59H431.907L443.566 146.389Z" fill="#111B2B"/>
<path fill-rule="evenodd" clip-rule="evenodd" d="M489.673 146.389L478.987 170.567H465.076L475.761 146.389H465.435L440.154 203.59H450.481L461.171 179.402H475.083L464.392 203.59H474.719L500 146.389H489.673Z" fill="#111B2B"/>
</svg>
